<?xml version="1.0" encoding="UTF-8" standalone="no"?>
<!DOCTYPE svg PUBLIC "-//W3C//DTD SVG 1.1//EN"
 "http://www.w3.org/Graphics/SVG/1.1/DTD/svg11.dtd">
<!-- Generated by graphviz version 2.43.0 (0)
 -->
<!-- Title: data/Legacy_Cotton_VT_data.csv Pages: 1 -->
<svg width="233pt" height="283pt"
 viewBox="0.00 0.00 233.00 282.50" xmlns="http://www.w3.org/2000/svg" xmlns:xlink="http://www.w3.org/1999/xlink">
<g id="graph0" class="graph" transform="scale(1 1) rotate(0) translate(4 278.5)">
<title>data/Legacy_Cotton_VT_data.csv</title>
<polygon fill="white" stroke="transparent" points="-4,4 -4,-278.5 229,-278.5 229,4 -4,4"/>
<!-- class -->
<g id="node1" class="node">
<title>class</title>
<ellipse fill="none" stroke="black" cx="112.5" cy="-18" rx="33.6" ry="18"/>
<text text-anchor="middle" x="112.5" y="-14.3" font-family="Times,serif" font-size="14.00">class</text>
</g>
<!-- datatype -->
<g id="node2" class="node">
<title>datatype</title>
<polygon fill="none" stroke="black" points="168.56,-64.54 168.56,-79.46 135.72,-90 89.28,-90 56.44,-79.46 56.44,-64.54 89.28,-54 135.72,-54 168.56,-64.54"/>
<text text-anchor="middle" x="112.5" y="-68.3" font-family="Times,serif" font-size="14.00">datatype</text>
</g>
<!-- literal -->
<g id="node3" class="node">
<title>literal</title>
<polygon fill="none" stroke="black" points="142,-144 83,-144 83,-108 142,-108 142,-144"/>
<text text-anchor="middle" x="112.5" y="-122.3" font-family="Times,serif" font-size="14.00">literal</text>
</g>
<!-- iri -->
<g id="node4" class="node">
<title>iri</title>
<polygon fill="none" stroke="black" points="112.5,-198 83.17,-180 112.5,-162 141.83,-180 112.5,-198"/>
<text text-anchor="middle" x="112.5" y="-176.3" font-family="Times,serif" font-size="14.00">iri</text>
</g>
<!-- bnode -->
<g id="node5" class="node">
<title>bnode</title>
<ellipse fill="black" stroke="black" cx="112.5" cy="-218" rx="1.8" ry="1.8"/>
</g>
<!-- oneof -->
<g id="node6" class="node">
<title>oneof</title>
<polygon fill="none" stroke="black" points="0,-238 0,-274 225,-274 225,-238 0,-238"/>
<text text-anchor="middle" x="37.5" y="-252.3" font-family="Times,serif" font-size="14.00">option 1</text>
<polyline fill="none" stroke="black" points="75,-238 75,-274 "/>
<text text-anchor="middle" x="112.5" y="-252.3" font-family="Times,serif" font-size="14.00">option ..</text>
<polyline fill="none" stroke="black" points="150,-238 150,-274 "/>
<text text-anchor="middle" x="187.5" y="-252.3" font-family="Times,serif" font-size="14.00">option n</text>
</g>
</g>
</svg>