<?xml version="1.0" encoding="UTF-8" standalone="no"?>
<!DOCTYPE svg PUBLIC "-//W3C//DTD SVG 1.1//EN"
 "http://www.w3.org/Graphics/SVG/1.1/DTD/svg11.dtd">
<!-- Generated by graphviz version 2.43.0 (0)
 -->
<!-- Title: %3 Pages: 1 -->
<svg width="1361pt" height="265pt"
 viewBox="0.00 0.00 1361.33 265.00" xmlns="http://www.w3.org/2000/svg" xmlns:xlink="http://www.w3.org/1999/xlink">
<g id="graph0" class="graph" transform="scale(1 1) rotate(0) translate(4 261)">
<title>%3</title>
<polygon fill="white" stroke="transparent" points="-4,4 -4,-261 1357.33,-261 1357.33,4 -4,4"/>
<!-- production -->
<g id="node1" class="node">
<title>production</title>
<polygon fill="none" stroke="black" points="123.17,-37.5 36.03,-19.5 123.17,-1.5 210.31,-19.5 123.17,-37.5"/>
<text text-anchor="middle" x="123.17" y="-15.8" font-family="Times,serif" font-size="14.00">Production</text>
</g>
<!-- productioncrop -->
<g id="node2" class="node">
<title>productioncrop</title>
<polygon fill="none" stroke="black" points="123.17,-91.5 -0.17,-73.5 123.17,-55.5 246.5,-73.5 123.17,-91.5"/>
<text text-anchor="middle" x="123.17" y="-69.8" font-family="Times,serif" font-size="14.00">Production Crop</text>
</g>
<!-- administrationtype -->
<g id="node3" class="node">
<title>administrationtype</title>
<polygon fill="none" stroke="black" points="1010.33,-55.5 1010.33,-91.5 1353.33,-91.5 1353.33,-55.5 1010.33,-55.5"/>
<text text-anchor="middle" x="1062.33" y="-69.8" font-family="Times,serif" font-size="14.00">schema:City</text>
<polyline fill="none" stroke="black" points="1114.33,-55.5 1114.33,-91.5 "/>
<text text-anchor="middle" x="1177.33" y="-69.8" font-family="Times,serif" font-size="14.00">schema:County</text>
<polyline fill="none" stroke="black" points="1240.33,-55.5 1240.33,-91.5 "/>
<text text-anchor="middle" x="1296.83" y="-69.8" font-family="Times,serif" font-size="14.00">schema:State</text>
</g>
<!-- harvest -->
<g id="node4" class="node">
<title>harvest</title>
<polygon fill="none" stroke="black" points="87.67,-110.5 87.67,-146.5 158.67,-146.5 158.67,-110.5 87.67,-110.5"/>
<text text-anchor="middle" x="123.17" y="-124.8" font-family="Times,serif" font-size="14.00">harvest</text>
</g>
<!-- harvestlocation -->
<g id="node5" class="node">
<title>harvestlocation</title>
<polygon fill="none" stroke="black" points="453.33,-110.5 453.33,-146.5 580.33,-146.5 580.33,-110.5 453.33,-110.5"/>
<text text-anchor="middle" x="516.83" y="-124.8" font-family="Times,serif" font-size="14.00">harvestlocation</text>
</g>
<!-- harvest&#45;&gt;harvestlocation -->
<g id="edge1" class="edge">
<title>harvest&#45;&gt;harvestlocation</title>
<path fill="none" stroke="black" d="M158.92,-128.5C222.43,-128.5 358.45,-128.5 443.02,-128.5"/>
<polygon fill="black" stroke="black" points="443.07,-132 453.07,-128.5 443.07,-125 443.07,-132"/>
<text text-anchor="middle" x="349.83" y="-132.3" font-family="Times,serif" font-size="14.00">agschemas:harvestedAt</text>
</g>
<!-- latitude -->
<g id="node6" class="node">
<title>latitude</title>
<polygon fill="none" stroke="black" points="797.33,-220.5 797.33,-256.5 869.33,-256.5 869.33,-220.5 797.33,-220.5"/>
<text text-anchor="middle" x="833.33" y="-234.8" font-family="Times,serif" font-size="14.00">latitude</text>
</g>
<!-- harvestlocation&#45;&gt;latitude -->
<g id="edge2" class="edge">
<title>harvestlocation&#45;&gt;latitude</title>
<path fill="none" stroke="black" d="M536.75,-146.73C552.13,-160.54 575.04,-178.89 598.33,-189.5 660.09,-217.63 738.42,-229.82 786.95,-234.95"/>
<polygon fill="black" stroke="black" points="786.84,-238.46 797.14,-235.97 787.53,-231.49 786.84,-238.46"/>
<text text-anchor="middle" x="665.33" y="-230.3" font-family="Times,serif" font-size="14.00">schema:latitude</text>
</g>
<!-- longitude -->
<g id="node7" class="node">
<title>longitude</title>
<polygon fill="none" stroke="black" points="791.33,-165.5 791.33,-201.5 875.33,-201.5 875.33,-165.5 791.33,-165.5"/>
<text text-anchor="middle" x="833.33" y="-179.8" font-family="Times,serif" font-size="14.00">longitude</text>
</g>
<!-- harvestlocation&#45;&gt;longitude -->
<g id="edge3" class="edge">
<title>harvestlocation&#45;&gt;longitude</title>
<path fill="none" stroke="black" d="M580.57,-143.81C586.56,-145.12 592.56,-146.38 598.33,-147.5 660.92,-159.68 733.57,-170.32 781.12,-176.81"/>
<polygon fill="black" stroke="black" points="780.78,-180.3 791.16,-178.17 781.72,-173.36 780.78,-180.3"/>
<text text-anchor="middle" x="665.33" y="-174.3" font-family="Times,serif" font-size="14.00">schema:longitude</text>
</g>
<!-- harvestlocationname -->
<g id="node8" class="node">
<title>harvestlocationname</title>
<polygon fill="none" stroke="black" points="750.33,-110.5 750.33,-146.5 916.33,-146.5 916.33,-110.5 750.33,-110.5"/>
<text text-anchor="middle" x="833.33" y="-124.8" font-family="Times,serif" font-size="14.00">harvestlocationname</text>
</g>
<!-- harvestlocation&#45;&gt;harvestlocationname -->
<g id="edge4" class="edge">
<title>harvestlocation&#45;&gt;harvestlocationname</title>
<path fill="none" stroke="black" d="M580.35,-128.5C626.02,-128.5 688.71,-128.5 740.13,-128.5"/>
<polygon fill="black" stroke="black" points="740.25,-132 750.25,-128.5 740.25,-125 740.25,-132"/>
<text text-anchor="middle" x="665.33" y="-132.3" font-family="Times,serif" font-size="14.00">skos:prefLabel</text>
</g>
<!-- administration -->
<g id="node9" class="node">
<title>administration</title>
<polygon fill="none" stroke="black" points="772.33,-55.5 772.33,-91.5 894.33,-91.5 894.33,-55.5 772.33,-55.5"/>
<text text-anchor="middle" x="833.33" y="-69.8" font-family="Times,serif" font-size="14.00">administration</text>
</g>
<!-- harvestlocation&#45;&gt;administration -->
<g id="edge5" class="edge">
<title>harvestlocation&#45;&gt;administration</title>
<path fill="none" stroke="black" d="M580.57,-113.19C586.56,-111.88 592.56,-110.62 598.33,-109.5 653.02,-98.86 715.41,-89.39 762,-82.84"/>
<polygon fill="black" stroke="black" points="762.57,-86.29 771.99,-81.45 761.6,-79.36 762.57,-86.29"/>
<text text-anchor="middle" x="665.33" y="-113.3" font-family="Times,serif" font-size="14.00">schema:isPartOf</text>
</g>
<!-- zipcode -->
<g id="node10" class="node">
<title>zipcode</title>
<polygon fill="none" stroke="black" points="797.83,-0.5 797.83,-36.5 868.83,-36.5 868.83,-0.5 797.83,-0.5"/>
<text text-anchor="middle" x="833.33" y="-14.8" font-family="Times,serif" font-size="14.00">zipcode</text>
</g>
<!-- harvestlocation&#45;&gt;zipcode -->
<g id="edge7" class="edge">
<title>harvestlocation&#45;&gt;zipcode</title>
<path fill="none" stroke="black" d="M537.13,-110.33C552.55,-96.8 575.31,-78.93 598.33,-68.5 660.38,-40.38 738.94,-27.77 787.41,-22.34"/>
<polygon fill="black" stroke="black" points="788,-25.79 797.57,-21.25 787.26,-18.83 788,-25.79"/>
<text text-anchor="middle" x="665.33" y="-72.3" font-family="Times,serif" font-size="14.00">schemapostalCode</text>
</g>
<!-- administration&#45;&gt;administrationtype -->
<g id="edge6" class="edge">
<title>administration&#45;&gt;administrationtype</title>
<path fill="none" stroke="black" d="M894.69,-73.5C924.41,-73.5 961.99,-73.5 1000.05,-73.5"/>
<polygon fill="black" stroke="black" points="1000.26,-77 1010.26,-73.5 1000.26,-70 1000.26,-77"/>
<text text-anchor="middle" x="963.33" y="-77.3" font-family="Times,serif" font-size="14.00">rdf:type</text>
</g>
</g>
</svg>