<?xml version="1.0" encoding="UTF-8" standalone="no"?>
<!DOCTYPE svg PUBLIC "-//W3C//DTD SVG 1.1//EN"
 "http://www.w3.org/Graphics/SVG/1.1/DTD/svg11.dtd">
<!-- Generated by graphviz version 2.43.0 (0)
 -->
<!-- Title: %3 Pages: 1 -->
<svg width="1150pt" height="716pt"
 viewBox="0.00 0.00 1150.40 716.00" xmlns="http://www.w3.org/2000/svg" xmlns:xlink="http://www.w3.org/1999/xlink">
<g id="graph0" class="graph" transform="scale(1 1) rotate(0) translate(4 712)">
<title>%3</title>
<polygon fill="white" stroke="transparent" points="-4,4 -4,-712 1146.4,-712 1146.4,4 -4,4"/>
<!-- production -->
<g id="node1" class="node">
<title>production</title>
<polygon fill="none" stroke="black" points="87.32,-442 0.18,-424 87.32,-406 174.46,-424 87.32,-442"/>
<text text-anchor="middle" x="87.32" y="-420.3" font-family="Times,serif" font-size="14.00">Production</text>
</g>
<!-- harvestid -->
<g id="node3" class="node">
<title>harvestid</title>
<polygon fill="none" stroke="black" points="620.27,-633.54 620.27,-648.46 579.92,-659 522.85,-659 482.5,-648.46 482.5,-633.54 522.85,-623 579.92,-623 620.27,-633.54"/>
<text text-anchor="middle" x="551.38" y="-637.3" font-family="Times,serif" font-size="14.00">xsd:integer</text>
</g>
<!-- production&#45;&gt;harvestid -->
<g id="edge19" class="edge">
<title>production&#45;&gt;harvestid</title>
<path fill="none" stroke="black" d="M142.41,-430.68C154.66,-434.71 166.46,-441.06 174.64,-451 197.93,-479.31 166.24,-589.56 192.64,-615 272.83,-692.29 415.58,-674.28 494.34,-656.4"/>
<polygon fill="black" stroke="black" points="495.15,-659.8 504.09,-654.11 493.55,-652.99 495.15,-659.8"/>
<text text-anchor="middle" x="308.14" y="-674.8" font-family="Times,serif" font-size="14.00">dcterms:identifier</text>
</g>
<!-- plantingdate -->
<g id="node4" class="node">
<title>plantingdate</title>
<polygon fill="none" stroke="black" points="605.72,-579.54 605.72,-594.46 573.89,-605 528.88,-605 497.05,-594.46 497.05,-579.54 528.88,-569 573.89,-569 605.72,-579.54"/>
<text text-anchor="middle" x="551.38" y="-583.3" font-family="Times,serif" font-size="14.00">xsd:date</text>
</g>
<!-- production&#45;&gt;plantingdate -->
<g id="edge21" class="edge">
<title>production&#45;&gt;plantingdate</title>
<path fill="none" stroke="black" d="M141.63,-430.81C154.06,-434.83 166.12,-441.13 174.64,-451 208.16,-489.83 154.68,-530.5 192.64,-565 234.26,-602.84 395.5,-598.2 486.66,-592.22"/>
<polygon fill="black" stroke="black" points="487.14,-595.69 496.88,-591.52 486.66,-588.71 487.14,-595.69"/>
<text text-anchor="middle" x="308.14" y="-599.8" font-family="Times,serif" font-size="14.00">agschemas:plantingDate</text>
</g>
<!-- harvestdate -->
<g id="node5" class="node">
<title>harvestdate</title>
<polygon fill="none" stroke="black" points="605.72,-525.54 605.72,-540.46 573.89,-551 528.88,-551 497.05,-540.46 497.05,-525.54 528.88,-515 573.89,-515 605.72,-525.54"/>
<text text-anchor="middle" x="551.38" y="-529.3" font-family="Times,serif" font-size="14.00">xsd:date</text>
</g>
<!-- production&#45;&gt;harvestdate -->
<g id="edge20" class="edge">
<title>production&#45;&gt;harvestdate</title>
<path fill="none" stroke="black" d="M137.8,-431.66C150.98,-435.65 164.38,-441.74 174.64,-451 189.71,-464.61 176.33,-480.89 192.64,-493 280.16,-557.98 414.49,-552.98 491.21,-543.2"/>
<polygon fill="black" stroke="black" points="491.74,-546.66 501.19,-541.86 490.81,-539.72 491.74,-546.66"/>
<text text-anchor="middle" x="308.14" y="-551.8" font-family="Times,serif" font-size="14.00">agschemas:harvestDate</text>
</g>
<!-- valueperac -->
<g id="node6" class="node">
<title>valueperac</title>
<ellipse fill="black" stroke="black" cx="551.38" cy="-495" rx="1.8" ry="1.8"/>
</g>
<!-- production&#45;&gt;valueperac -->
<g id="edge1" class="edge">
<title>production&#45;&gt;valueperac</title>
<path fill="none" stroke="black" d="M137.77,-431.6C243.32,-447.82 485.48,-485.03 539.55,-493.33"/>
<polygon fill="black" stroke="black" points="539.12,-496.81 549.54,-494.87 540.19,-489.89 539.12,-496.81"/>
<text text-anchor="middle" x="308.14" y="-477.8" font-family="Times,serif" font-size="14.00">agschemas:ValuePerAcre</text>
</g>
<!-- seedingrateperacre -->
<g id="node13" class="node">
<title>seedingrateperacre</title>
<polygon fill="none" stroke="black" points="661.37,-388.54 661.37,-403.46 596.94,-414 505.83,-414 441.39,-403.46 441.39,-388.54 505.83,-378 596.94,-378 661.37,-388.54"/>
<text text-anchor="middle" x="551.38" y="-392.3" font-family="Times,serif" font-size="14.00">seedingrateperacre</text>
</g>
<!-- production&#45;&gt;seedingrateperacre -->
<g id="edge6" class="edge">
<title>production&#45;&gt;seedingrateperacre</title>
<path fill="none" stroke="black" d="M155.01,-419.96C227.09,-415.59 343.4,-408.54 431.26,-403.22"/>
<polygon fill="black" stroke="black" points="431.51,-406.71 441.28,-402.61 431.09,-399.72 431.51,-406.71"/>
<text text-anchor="middle" x="308.14" y="-420.8" font-family="Times,serif" font-size="14.00">agschemas:SeedingRatePerAcre</text>
</g>
<!-- percentballopened -->
<g id="node18" class="node">
<title>percentballopened</title>
<polygon fill="none" stroke="black" points="656.03,-199.54 656.03,-214.46 594.73,-225 508.04,-225 446.74,-214.46 446.74,-199.54 508.04,-189 594.73,-189 656.03,-199.54"/>
<text text-anchor="middle" x="551.38" y="-203.3" font-family="Times,serif" font-size="14.00">percentballopened</text>
</g>
<!-- production&#45;&gt;percentballopened -->
<g id="edge11" class="edge">
<title>production&#45;&gt;percentballopened</title>
<path fill="none" stroke="black" d="M114.82,-411.55C190.08,-376.21 405.85,-274.88 502.53,-229.47"/>
<polygon fill="black" stroke="black" points="504.22,-232.55 511.78,-225.13 501.24,-226.21 504.22,-232.55"/>
<text text-anchor="middle" x="308.14" y="-374.8" font-family="Times,serif" font-size="14.00">agschemas:unitpercent</text>
</g>
<!-- fileURI -->
<g id="node23" class="node">
<title>fileURI</title>
<polygon fill="none" stroke="black" points="597.75,-145.54 597.75,-160.46 570.59,-171 532.18,-171 505.02,-160.46 505.02,-145.54 532.18,-135 570.59,-135 597.75,-145.54"/>
<text text-anchor="middle" x="551.38" y="-149.3" font-family="Times,serif" font-size="14.00">fileURI</text>
</g>
<!-- production&#45;&gt;fileURI -->
<g id="edge16" class="edge">
<title>production&#45;&gt;fileURI</title>
<path fill="none" stroke="black" d="M93.78,-407.21C105.85,-372.73 138.16,-293.72 192.64,-252 283.04,-182.77 419.07,-161.94 494.68,-155.68"/>
<polygon fill="black" stroke="black" points="495.24,-159.15 504.94,-154.89 494.7,-152.17 495.24,-159.15"/>
<text text-anchor="middle" x="308.14" y="-255.8" font-family="Times,serif" font-size="14.00">schema:isPartOf</text>
</g>
<!-- crop -->
<g id="node24" class="node">
<title>crop</title>
<polygon fill="none" stroke="black" points="584.92,-37.54 584.92,-52.46 565.28,-63 537.49,-63 517.85,-52.46 517.85,-37.54 537.49,-27 565.28,-27 584.92,-37.54"/>
<text text-anchor="middle" x="551.38" y="-41.3" font-family="Times,serif" font-size="14.00">crop</text>
</g>
<!-- production&#45;&gt;crop -->
<g id="edge17" class="edge">
<title>production&#45;&gt;crop</title>
<path fill="none" stroke="black" d="M89.56,-406.28C93.97,-357.13 113.22,-217.92 192.64,-145 282.17,-62.79 433.79,-47.43 507.54,-45.04"/>
<polygon fill="black" stroke="black" points="507.93,-48.53 517.84,-44.78 507.75,-41.54 507.93,-48.53"/>
<text text-anchor="middle" x="308.14" y="-148.8" font-family="Times,serif" font-size="14.00">agschemas:harvested</text>
</g>
<!-- cotton -->
<g id="node2" class="node">
<title>cotton</title>
<ellipse fill="none" stroke="black" cx="998.77" cy="-18" rx="94.48" ry="18"/>
<text text-anchor="middle" x="998.77" y="-14.3" font-family="Times,serif" font-size="14.00">cotton (nalt:4418)</text>
</g>
<!-- valueperacType -->
<g id="node9" class="node">
<title>valueperacType</title>
<ellipse fill="none" stroke="black" cx="998.77" cy="-666" rx="75.29" ry="18"/>
<text text-anchor="middle" x="998.77" y="-662.3" font-family="Times,serif" font-size="14.00">qudt:Quantity</text>
</g>
<!-- valueperac&#45;&gt;valueperacType -->
<g id="edge2" class="edge">
<title>valueperac&#45;&gt;valueperacType</title>
<path fill="none" stroke="black" d="M553.22,-494.75C561.47,-492.37 628.46,-474.27 661.13,-506 705.49,-549.1 634.08,-601.61 679.13,-644 748.22,-709.01 867.28,-696.96 938.66,-681.8"/>
<polygon fill="black" stroke="black" points="939.82,-685.13 948.83,-679.55 938.31,-678.29 939.82,-685.13"/>
<text text-anchor="middle" x="758.13" y="-696.8" font-family="Times,serif" font-size="14.00">rdf:type</text>
</g>
<!-- valueperacKind -->
<g id="node10" class="node">
<title>valueperacKind</title>
<ellipse fill="none" stroke="black" cx="998.77" cy="-612" rx="110.48" ry="18"/>
<text text-anchor="middle" x="998.77" y="-608.3" font-family="Times,serif" font-size="14.00">agunits:ValuePerAcre</text>
</g>
<!-- valueperac&#45;&gt;valueperacKind -->
<g id="edge3" class="edge">
<title>valueperac&#45;&gt;valueperacKind</title>
<path fill="none" stroke="black" d="M553.2,-494.78C561.21,-492.65 626.38,-476.57 661.13,-506 684.33,-525.65 656.17,-552.07 679.13,-572 741.64,-626.24 838.8,-631.03 909.4,-625.47"/>
<polygon fill="black" stroke="black" points="909.96,-628.94 919.62,-624.58 909.35,-621.97 909.96,-628.94"/>
<text text-anchor="middle" x="758.13" y="-628.8" font-family="Times,serif" font-size="14.00">qudt:hasQuantityKind</text>
</g>
<!-- usdperacre -->
<g id="node11" class="node">
<title>usdperacre</title>
<ellipse fill="none" stroke="black" cx="998.77" cy="-558" rx="103.18" ry="18"/>
<text text-anchor="middle" x="998.77" y="-554.3" font-family="Times,serif" font-size="14.00">agunits:UsdPerAcre</text>
</g>
<!-- valueperac&#45;&gt;usdperacre -->
<g id="edge5" class="edge">
<title>valueperac&#45;&gt;usdperacre</title>
<path fill="none" stroke="black" d="M553.51,-494.9C562.17,-494.17 619.27,-490.09 661.13,-506 670.35,-509.51 669.94,-515.4 679.13,-519 744.38,-544.58 822.41,-554.44 884.92,-557.85"/>
<polygon fill="black" stroke="black" points="885.05,-561.36 895.21,-558.36 885.4,-554.37 885.05,-561.36"/>
<text text-anchor="middle" x="758.13" y="-556.8" font-family="Times,serif" font-size="14.00">qudt:unit</text>
</g>
<!-- valueperacValue -->
<g id="node12" class="node">
<title>valueperacValue</title>
<polygon fill="none" stroke="black" points="1053.11,-496.54 1053.11,-511.46 1021.27,-522 976.26,-522 944.43,-511.46 944.43,-496.54 976.26,-486 1021.27,-486 1053.11,-496.54"/>
<text text-anchor="middle" x="998.77" y="-500.3" font-family="Times,serif" font-size="14.00">xsd:float</text>
</g>
<!-- valueperac&#45;&gt;valueperacValue -->
<g id="edge4" class="edge">
<title>valueperac&#45;&gt;valueperacValue</title>
<path fill="none" stroke="black" d="M553.66,-495.03C573.37,-495.42 816.2,-500.33 934.21,-502.72"/>
<polygon fill="black" stroke="black" points="934.47,-506.22 944.54,-502.92 934.61,-499.22 934.47,-506.22"/>
<text text-anchor="middle" x="758.13" y="-503.8" font-family="Times,serif" font-size="14.00">qudt:value</text>
</g>
<!-- seedingrate -->
<g id="node7" class="node">
<title>seedingrate</title>
<ellipse fill="black" stroke="black" cx="87.32" cy="-462" rx="1.8" ry="1.8"/>
</g>
<!-- ballopened -->
<g id="node8" class="node">
<title>ballopened</title>
<ellipse fill="black" stroke="black" cx="87.32" cy="-484" rx="1.8" ry="1.8"/>
</g>
<!-- seedingrateperacreType -->
<g id="node14" class="node">
<title>seedingrateperacreType</title>
<ellipse fill="none" stroke="black" cx="998.77" cy="-450" rx="75.29" ry="18"/>
<text text-anchor="middle" x="998.77" y="-446.3" font-family="Times,serif" font-size="14.00">qudt:Quantity</text>
</g>
<!-- seedingrateperacre&#45;&gt;seedingrateperacreType -->
<g id="edge7" class="edge">
<title>seedingrateperacre&#45;&gt;seedingrateperacreType</title>
<path fill="none" stroke="black" d="M631.76,-408.39C647.44,-410.7 663.79,-413.01 679.13,-415 760.59,-425.58 854.04,-435.59 918.58,-442.18"/>
<polygon fill="black" stroke="black" points="918.38,-445.67 928.68,-443.2 919.08,-438.71 918.38,-445.67"/>
<text text-anchor="middle" x="758.13" y="-436.8" font-family="Times,serif" font-size="14.00">rdf:type</text>
</g>
<!-- seedingrateperacreKind -->
<g id="node15" class="node">
<title>seedingrateperacreKind</title>
<ellipse fill="none" stroke="black" cx="998.77" cy="-396" rx="143.77" ry="18"/>
<text text-anchor="middle" x="998.77" y="-392.3" font-family="Times,serif" font-size="14.00">agunits:SeedingRatePerAcre</text>
</g>
<!-- seedingrateperacre&#45;&gt;seedingrateperacreKind -->
<g id="edge8" class="edge">
<title>seedingrateperacre&#45;&gt;seedingrateperacreKind</title>
<path fill="none" stroke="black" d="M661.34,-396C716.59,-396 784.62,-396 845,-396"/>
<polygon fill="black" stroke="black" points="845.02,-399.5 855.02,-396 845.02,-392.5 845.02,-399.5"/>
<text text-anchor="middle" x="758.13" y="-399.8" font-family="Times,serif" font-size="14.00">qudt:hasQuantityKind</text>
</g>
<!-- seedsperacre -->
<g id="node16" class="node">
<title>seedsperacre</title>
<ellipse fill="none" stroke="black" cx="998.77" cy="-342" rx="112.38" ry="18"/>
<text text-anchor="middle" x="998.77" y="-338.3" font-family="Times,serif" font-size="14.00">agunits:SeedsPerAcre</text>
</g>
<!-- seedingrateperacre&#45;&gt;seedsperacre -->
<g id="edge10" class="edge">
<title>seedingrateperacre&#45;&gt;seedsperacre</title>
<path fill="none" stroke="black" d="M631.76,-383.61C647.44,-381.3 663.79,-378.99 679.13,-377 750.23,-367.77 830.46,-358.97 892.63,-352.5"/>
<polygon fill="black" stroke="black" points="893.25,-355.95 902.84,-351.44 892.53,-348.99 893.25,-355.95"/>
<text text-anchor="middle" x="758.13" y="-380.8" font-family="Times,serif" font-size="14.00">qudt:unit</text>
</g>
<!-- seedingrateperacreValue -->
<g id="node17" class="node">
<title>seedingrateperacreValue</title>
<polygon fill="none" stroke="black" points="1053.11,-280.54 1053.11,-295.46 1021.27,-306 976.26,-306 944.43,-295.46 944.43,-280.54 976.26,-270 1021.27,-270 1053.11,-280.54"/>
<text text-anchor="middle" x="998.77" y="-284.3" font-family="Times,serif" font-size="14.00">xsd:float</text>
</g>
<!-- seedingrateperacre&#45;&gt;seedingrateperacreValue -->
<g id="edge9" class="edge">
<title>seedingrateperacre&#45;&gt;seedingrateperacreValue</title>
<path fill="none" stroke="black" d="M585.87,-378C610.9,-365.28 646.31,-348.82 679.13,-339 765.49,-313.17 869.15,-299.66 934.26,-293.19"/>
<polygon fill="black" stroke="black" points="934.76,-296.66 944.37,-292.21 934.08,-289.69 934.76,-296.66"/>
<text text-anchor="middle" x="758.13" y="-342.8" font-family="Times,serif" font-size="14.00">qudt:value</text>
</g>
<!-- percentballopenedType -->
<g id="node19" class="node">
<title>percentballopenedType</title>
<ellipse fill="none" stroke="black" cx="998.77" cy="-234" rx="75.29" ry="18"/>
<text text-anchor="middle" x="998.77" y="-230.3" font-family="Times,serif" font-size="14.00">qudt:Quantity</text>
</g>
<!-- percentballopened&#45;&gt;percentballopenedType -->
<g id="edge12" class="edge">
<title>percentballopened&#45;&gt;percentballopenedType</title>
<path fill="none" stroke="black" d="M656.24,-213.3C735.17,-218.08 842.26,-224.57 915.35,-229"/>
<polygon fill="black" stroke="black" points="915.24,-232.5 925.43,-229.61 915.66,-225.52 915.24,-232.5"/>
<text text-anchor="middle" x="758.13" y="-226.8" font-family="Times,serif" font-size="14.00">rdf:type</text>
</g>
<!-- percentballopenedKind -->
<g id="node20" class="node">
<title>percentballopenedKind</title>
<ellipse fill="none" stroke="black" cx="998.77" cy="-180" rx="102.88" ry="18"/>
<text text-anchor="middle" x="998.77" y="-176.3" font-family="Times,serif" font-size="14.00">agunits:unitpercent</text>
</g>
<!-- percentballopened&#45;&gt;percentballopenedKind -->
<g id="edge13" class="edge">
<title>percentballopened&#45;&gt;percentballopenedKind</title>
<path fill="none" stroke="black" d="M645.44,-197.68C656.78,-196.7 668.22,-195.77 679.13,-195 748.47,-190.09 826.41,-186.39 887.85,-183.89"/>
<polygon fill="black" stroke="black" points="888.1,-187.38 897.95,-183.48 887.82,-180.39 888.1,-187.38"/>
<text text-anchor="middle" x="758.13" y="-198.8" font-family="Times,serif" font-size="14.00">qudt:hasQuantityKind</text>
</g>
<!-- openballpercentage -->
<g id="node21" class="node">
<title>openballpercentage</title>
<ellipse fill="none" stroke="black" cx="998.77" cy="-126" rx="116.98" ry="18"/>
<text text-anchor="middle" x="998.77" y="-122.3" font-family="Times,serif" font-size="14.00">agunits:unit:PERCENT</text>
</g>
<!-- percentballopened&#45;&gt;openballpercentage -->
<g id="edge15" class="edge">
<title>percentballopened&#45;&gt;openballpercentage</title>
<path fill="none" stroke="black" d="M622.77,-193.71C635.83,-190.08 649.13,-185.57 661.13,-180 670.08,-175.85 669.95,-170.63 679.13,-167 739.8,-143 811.56,-132.37 871.6,-127.91"/>
<polygon fill="black" stroke="black" points="872.17,-131.37 881.9,-127.19 871.68,-124.39 872.17,-131.37"/>
<text text-anchor="middle" x="758.13" y="-170.8" font-family="Times,serif" font-size="14.00">qudt:unit</text>
</g>
<!-- percentballopenedValue -->
<g id="node22" class="node">
<title>percentballopenedValue</title>
<polygon fill="none" stroke="black" points="1053.11,-64.54 1053.11,-79.46 1021.27,-90 976.26,-90 944.43,-79.46 944.43,-64.54 976.26,-54 1021.27,-54 1053.11,-64.54"/>
<text text-anchor="middle" x="998.77" y="-68.3" font-family="Times,serif" font-size="14.00">xsd:float</text>
</g>
<!-- percentballopened&#45;&gt;percentballopenedValue -->
<g id="edge14" class="edge">
<title>percentballopened&#45;&gt;percentballopenedValue</title>
<path fill="none" stroke="black" d="M636.57,-196.06C645.66,-192.12 654.13,-186.89 661.13,-180 683.41,-158.06 655.59,-132.58 679.13,-112 750.84,-49.3 868.75,-52.47 939.26,-61.52"/>
<polygon fill="black" stroke="black" points="938.93,-65.01 949.31,-62.89 939.87,-58.07 938.93,-65.01"/>
<text text-anchor="middle" x="758.13" y="-115.8" font-family="Times,serif" font-size="14.00">qudt:value</text>
</g>
<!-- crop&#45;&gt;cotton -->
<g id="edge18" class="edge">
<title>crop&#45;&gt;cotton</title>
<path fill="none" stroke="black" d="M584.93,-42.2C610.52,-40.06 647.08,-37.12 679.13,-35 751.91,-30.19 834.12,-25.83 896.8,-22.73"/>
<polygon fill="black" stroke="black" points="897.27,-26.21 907.08,-22.22 896.92,-19.22 897.27,-26.21"/>
<text text-anchor="middle" x="758.13" y="-38.8" font-family="Times,serif" font-size="14.00">rdf:type</text>
</g>
</g>
</svg>