<?xml version="1.0" encoding="UTF-8" standalone="no"?>
<!DOCTYPE svg PUBLIC "-//W3C//DTD SVG 1.1//EN"
 "http://www.w3.org/Graphics/SVG/1.1/DTD/svg11.dtd">
<!-- Generated by graphviz version 6.0.1 (20220911.1526)
 -->
<!-- Pages: 1 -->
<svg width="682pt" height="253pt"
 viewBox="0.00 0.00 682.28 253.00" xmlns="http://www.w3.org/2000/svg" xmlns:xlink="http://www.w3.org/1999/xlink">
<g id="graph0" class="graph" transform="scale(1 1) rotate(0) translate(4 249)">
<polygon fill="white" stroke="none" points="-4,4 -4,-249 678.28,-249 678.28,4 -4,4"/>
<!-- subjectArchivedSpecimen -->
<g id="node1" class="node">
<title>subjectArchivedSpecimen</title>
<polygon fill="none" stroke="black" points="375.78,-157 229.49,-139 375.78,-121 522.07,-139 375.78,-157"/>
<text text-anchor="middle" x="375.78" y="-135.3" font-family="Times,serif" font-size="14.00">subjectArchivedSpecimen</text>
</g>
<!-- NCIT_C70700 -->
<g id="node2" class="node">
<title>NCIT_C70700</title>
<ellipse fill="none" stroke="black" cx="202.78" cy="-35" rx="202.56" ry="18"/>
<text text-anchor="middle" x="202.78" y="-31.3" font-family="Times,serif" font-size="14.00">obo:NCIT_C70700 (Biospecimen Collection Method)</text>
</g>
<!-- subjectArchivedSpecimen&#45;&gt;NCIT_C70700 -->
<g id="edge2" class="edge">
<title>subjectArchivedSpecimen&#45;&gt;NCIT_C70700</title>
<path fill="none" stroke="black" d="M351.73,-123.82C322.84,-106.78 274.04,-78.01 240.21,-58.07"/>
<polygon fill="black" stroke="black" points="241.92,-55.01 231.53,-52.95 238.36,-61.04 241.92,-55.01"/>
<text text-anchor="middle" x="337.28" y="-91.8" font-family="Times,serif" font-size="14.00">rdf:type</text>
</g>
<!-- initialresection -->
<g id="node3" class="node">
<title>initialresection</title>
<polygon fill="none" stroke="black" points="423.28,-0.5 423.28,-69.5 674.28,-69.5 674.28,-0.5 423.28,-0.5"/>
<text text-anchor="middle" x="548.78" y="-54.3" font-family="Times,serif" font-size="14.00">obo:NCIT_C131680 (Partial Resection)</text>
<polyline fill="none" stroke="black" points="423.28,-46.5 674.28,-46.5"/>
<text text-anchor="middle" x="548.78" y="-31.3" font-family="Times,serif" font-size="14.00">obo:NCIT_C175027 (Complete Resection)</text>
<polyline fill="none" stroke="black" points="423.28,-23.5 674.28,-23.5"/>
<text text-anchor="middle" x="548.78" y="-8.3" font-family="Times,serif" font-size="14.00">obo:NCIT_C15189 (Biopsy)</text>
</g>
<!-- subjectArchivedSpecimen&#45;&gt;initialresection -->
<g id="edge3" class="edge">
<title>subjectArchivedSpecimen&#45;&gt;initialresection</title>
<path fill="none" stroke="black" d="M399.84,-123.82C421.29,-111.17 453.72,-92.05 482.85,-74.87"/>
<polygon fill="black" stroke="black" points="484.93,-77.71 491.77,-69.61 481.38,-71.68 484.93,-77.71"/>
<text text-anchor="middle" x="481.28" y="-91.8" font-family="Times,serif" font-size="14.00">rdf:value</text>
</g>
<!-- pathology -->
<g id="node4" class="node">
<title>pathology</title>
<polygon fill="none" stroke="black" points="340.28,-208.5 340.28,-244.5 411.28,-244.5 411.28,-208.5 340.28,-208.5"/>
<text text-anchor="middle" x="375.78" y="-222.8" font-family="Times,serif" font-size="14.00">pathology</text>
</g>
<!-- pathology&#45;&gt;subjectArchivedSpecimen -->
<g id="edge1" class="edge">
<title>pathology&#45;&gt;subjectArchivedSpecimen</title>
<path fill="none" stroke="black" d="M375.78,-208.2C375.78,-196.49 375.78,-180.79 375.78,-167.4"/>
<polygon fill="black" stroke="black" points="379.28,-167.28 375.78,-157.28 372.28,-167.28 379.28,-167.28"/>
<text text-anchor="middle" x="485.78" y="-178.8" font-family="Times,serif" font-size="14.00">obo:HSO_0000308 (sampled specimen)</text>
</g>
</g>
</svg>
