<?xml version="1.0" encoding="UTF-8" standalone="no"?>
<!DOCTYPE svg PUBLIC "-//W3C//DTD SVG 1.1//EN"
 "http://www.w3.org/Graphics/SVG/1.1/DTD/svg11.dtd">
<!-- Generated by graphviz version 6.0.2 (20221011.1828)
 -->
<!-- Title: data/Legacy_Cotton_VT_data.csv Pages: 1 -->
<svg width="1248pt" height="2096pt"
 viewBox="0.00 0.00 1248.27 2096.00" xmlns="http://www.w3.org/2000/svg" xmlns:xlink="http://www.w3.org/1999/xlink">
<g id="graph0" class="graph" transform="scale(1 1) rotate(0) translate(4 2092)">
<title>data/Legacy_Cotton_VT_data.csv</title>
<polygon fill="white" stroke="none" points="-4,4 -4,-2092 1244.27,-2092 1244.27,4 -4,4"/>
<!-- fileURI -->
<g id="node1" class="node">
<title>fileURI</title>
<polygon fill="none" stroke="black" points="409.62,-1953 356.5,-1935 409.62,-1917 462.74,-1935 409.62,-1953"/>
<text text-anchor="middle" x="409.62" y="-1931.3" font-family="Times,serif" font-size="14.00">fileURI</text>
</g>
<!-- dcatdataset -->
<g id="node2" class="node">
<title>dcatdataset</title>
<ellipse fill="none" stroke="black" cx="760.28" cy="-2070" rx="51.99" ry="18"/>
<text text-anchor="middle" x="760.28" y="-2066.3" font-family="Times,serif" font-size="14.00">dcat:dataset</text>
</g>
<!-- fileURI&#45;&gt;dcatdataset -->
<g id="edge1" class="edge">
<title>fileURI&#45;&gt;dcatdataset</title>
<path fill="none" stroke="black" d="M426.33,-1947.73C447.13,-1964.02 485.5,-1992.15 522.29,-2009 580.71,-2035.76 652.82,-2052.19 702.05,-2061.16"/>
<polygon fill="black" stroke="black" points="701.74,-2064.66 712.2,-2062.96 702.96,-2057.77 701.74,-2064.66"/>
<text text-anchor="middle" x="573.79" y="-2046.8" font-family="Times,serif" font-size="14.00">rdf:type</text>
</g>
<!-- Q935809 -->
<g id="node3" class="node">
<title>Q935809</title>
<ellipse fill="none" stroke="black" cx="760.28" cy="-2016" rx="56.59" ry="18"/>
<text text-anchor="middle" x="760.28" y="-2012.3" font-family="Times,serif" font-size="14.00">wd:Q935809</text>
</g>
<!-- fileURI&#45;&gt;Q935809 -->
<g id="edge2" class="edge">
<title>fileURI&#45;&gt;Q935809</title>
<path fill="none" stroke="black" d="M437.04,-1943.86C459.53,-1951.2 492.81,-1961.61 522.29,-1969 582.31,-1984.05 651.84,-1997.36 700,-2005.94"/>
<polygon fill="black" stroke="black" points="699.49,-2009.4 709.94,-2007.7 700.71,-2002.51 699.49,-2009.4"/>
<text text-anchor="middle" x="573.79" y="-1993.8" font-family="Times,serif" font-size="14.00">dcterms:format</text>
</g>
<!-- filename -->
<g id="node5" class="node">
<title>filename</title>
<polygon fill="none" stroke="black" points="809.77,-1954.54 809.77,-1969.46 780.78,-1980 739.78,-1980 710.79,-1969.46 710.79,-1954.54 739.78,-1944 780.78,-1944 809.77,-1954.54"/>
<text text-anchor="middle" x="760.28" y="-1958.3" font-family="Times,serif" font-size="14.00">xsd:string</text>
</g>
<!-- fileURI&#45;&gt;filename -->
<g id="edge4" class="edge">
<title>fileURI&#45;&gt;filename</title>
<path fill="none" stroke="black" d="M453.37,-1938.31C515.51,-1943.12 630.96,-1952.06 700.88,-1957.48"/>
<polygon fill="black" stroke="black" points="700.62,-1960.97 710.86,-1958.25 701.16,-1953.99 700.62,-1960.97"/>
<text text-anchor="middle" x="573.79" y="-1953.8" font-family="Times,serif" font-size="14.00">rdfs:label</text>
</g>
<!-- filedatecreated -->
<g id="node6" class="node">
<title>filedatecreated</title>
<polygon fill="none" stroke="black" points="804.02,-1900.54 804.02,-1915.46 778.4,-1926 742.17,-1926 716.55,-1915.46 716.55,-1900.54 742.17,-1890 778.4,-1890 804.02,-1900.54"/>
<text text-anchor="middle" x="760.28" y="-1904.3" font-family="Times,serif" font-size="14.00">xsd:date</text>
</g>
<!-- fileURI&#45;&gt;filedatecreated -->
<g id="edge5" class="edge">
<title>fileURI&#45;&gt;filedatecreated</title>
<path fill="none" stroke="black" d="M450.39,-1930.78C471.7,-1928.6 498.41,-1925.98 522.29,-1924 585.47,-1918.76 658.22,-1914.04 706.27,-1911.11"/>
<polygon fill="black" stroke="black" points="706.67,-1914.59 716.44,-1910.49 706.25,-1907.61 706.67,-1914.59"/>
<text text-anchor="middle" x="573.79" y="-1927.8" font-family="Times,serif" font-size="14.00">dcterms:issued</text>
</g>
<!-- filedatemodified -->
<g id="node7" class="node">
<title>filedatemodified</title>
<polygon fill="none" stroke="black" points="804.02,-1846.54 804.02,-1861.46 778.4,-1872 742.17,-1872 716.55,-1861.46 716.55,-1846.54 742.17,-1836 778.4,-1836 804.02,-1846.54"/>
<text text-anchor="middle" x="760.28" y="-1850.3" font-family="Times,serif" font-size="14.00">xsd:date</text>
</g>
<!-- fileURI&#45;&gt;filedatemodified -->
<g id="edge6" class="edge">
<title>fileURI&#45;&gt;filedatemodified</title>
<path fill="none" stroke="black" d="M435.14,-1925.48C457.55,-1917.06 491.76,-1904.92 522.29,-1897 584.83,-1880.78 658.21,-1868.48 706.56,-1861.27"/>
<polygon fill="black" stroke="black" points="707.1,-1864.73 716.49,-1859.81 706.08,-1857.8 707.1,-1864.73"/>
<text text-anchor="middle" x="573.79" y="-1900.8" font-family="Times,serif" font-size="14.00">dcterms:modified</text>
</g>
<!-- comma&#45;separated values@en -->
<g id="node4" class="node">
<title>comma&#45;separated values@en</title>
<polygon fill="none" stroke="black" points="1191.27,-2034 1014.27,-2034 1014.27,-1998 1191.27,-1998 1191.27,-2034"/>
<text text-anchor="middle" x="1102.77" y="-2012.3" font-family="Times,serif" font-size="14.00">comma&#45;separated values@en</text>
</g>
<!-- Q935809&#45;&gt;comma&#45;separated values@en -->
<g id="edge3" class="edge">
<title>Q935809&#45;&gt;comma&#45;separated values@en</title>
<path fill="none" stroke="black" d="M817.13,-2016C867.69,-2016 943.3,-2016 1003.9,-2016"/>
<polygon fill="black" stroke="black" points="1004.25,-2019.5 1014.25,-2016 1004.25,-2012.5 1004.25,-2019.5"/>
<text text-anchor="middle" x="921.27" y="-2019.8" font-family="Times,serif" font-size="14.00">rdfs:label</text>
</g>
<!-- harvest -->
<g id="node8" class="node">
<title>harvest</title>
<polygon fill="none" stroke="black" points="51.47,-1184 0.03,-1166 51.47,-1148 102.92,-1166 51.47,-1184"/>
<text text-anchor="middle" x="51.47" y="-1162.3" font-family="Times,serif" font-size="14.00">harvest</text>
</g>
<!-- harvest&#45;&gt;fileURI -->
<g id="edge47" class="edge">
<title>harvest&#45;&gt;fileURI</title>
<path fill="none" stroke="black" d="M79.47,-1174.22C88.48,-1178.37 97.58,-1184.4 102.95,-1193 132.14,-1239.78 96.97,-1639.34 120.95,-1689 176.93,-1804.95 315.74,-1887.52 377.79,-1919.88"/>
<polygon fill="black" stroke="black" points="376.23,-1923.01 386.72,-1924.46 379.42,-1916.78 376.23,-1923.01"/>
<text text-anchor="middle" x="208.95" y="-1871.8" font-family="Times,serif" font-size="14.00">schema:isPartOf</text>
</g>
<!-- crop -->
<g id="node9" class="node">
<title>crop</title>
<polygon fill="none" stroke="black" points="409.62,-1750 371.75,-1732 409.62,-1714 447.49,-1732 409.62,-1750"/>
<text text-anchor="middle" x="409.62" y="-1728.3" font-family="Times,serif" font-size="14.00">crop</text>
</g>
<!-- harvest&#45;&gt;crop -->
<g id="edge48" class="edge">
<title>harvest&#45;&gt;crop</title>
<path fill="none" stroke="black" d="M79.36,-1174.29C88.36,-1178.44 97.48,-1184.46 102.95,-1193 139.66,-1250.38 89.83,-1438.4 120.95,-1499 179.07,-1612.19 319.34,-1689.66 379.94,-1718.96"/>
<polygon fill="black" stroke="black" points="378.76,-1722.28 389.29,-1723.41 381.76,-1715.95 378.76,-1722.28"/>
<text text-anchor="middle" x="208.95" y="-1673.8" font-family="Times,serif" font-size="14.00">agschemas:harvested</text>
</g>
<!-- harvestlocation -->
<g id="node10" class="node">
<title>harvestlocation</title>
<polygon fill="none" stroke="black" points="409.62,-1629 314.77,-1611 409.62,-1593 504.47,-1611 409.62,-1629"/>
<text text-anchor="middle" x="409.62" y="-1607.3" font-family="Times,serif" font-size="14.00">harvest location</text>
</g>
<!-- harvest&#45;&gt;harvestlocation -->
<g id="edge50" class="edge">
<title>harvest&#45;&gt;harvestlocation</title>
<path fill="none" stroke="black" d="M79.25,-1174.36C88.24,-1178.52 97.38,-1184.53 102.95,-1193 129.51,-1233.44 96.83,-1368.05 120.95,-1410 176.84,-1507.21 301.06,-1568.54 366.47,-1595.33"/>
<polygon fill="black" stroke="black" points="365.48,-1598.7 376.06,-1599.18 368.09,-1592.21 365.48,-1598.7"/>
</g>
<!-- harvestid -->
<g id="node18" class="node">
<title>harvestid</title>
<polygon fill="none" stroke="black" points="463.96,-1366.54 463.96,-1381.46 432.13,-1392 387.11,-1392 355.28,-1381.46 355.28,-1366.54 387.11,-1356 432.13,-1356 463.96,-1366.54"/>
<text text-anchor="middle" x="409.62" y="-1370.3" font-family="Times,serif" font-size="14.00">xsd:integer</text>
</g>
<!-- harvest&#45;&gt;harvestid -->
<g id="edge51" class="edge">
<title>harvest&#45;&gt;harvestid</title>
<path fill="none" stroke="black" d="M79.07,-1174.48C88.04,-1178.66 97.21,-1184.64 102.95,-1193 139.92,-1246.92 74.68,-1292.81 120.95,-1339 181.1,-1399.06 287.16,-1395.09 352.33,-1385.44"/>
<polygon fill="black" stroke="black" points="353.09,-1388.87 362.43,-1383.85 352,-1381.95 353.09,-1388.87"/>
<text text-anchor="middle" x="208.95" y="-1394.8" font-family="Times,serif" font-size="14.00">dcterms:identifier</text>
</g>
<!-- plantingdate -->
<g id="node19" class="node">
<title>plantingdate</title>
<polygon fill="none" stroke="black" points="453.35,-1312.54 453.35,-1327.46 427.73,-1338 391.5,-1338 365.89,-1327.46 365.89,-1312.54 391.5,-1302 427.73,-1302 453.35,-1312.54"/>
<text text-anchor="middle" x="409.62" y="-1316.3" font-family="Times,serif" font-size="14.00">xsd:date</text>
</g>
<!-- harvest&#45;&gt;plantingdate -->
<g id="edge53" class="edge">
<title>harvest&#45;&gt;plantingdate</title>
<path fill="none" stroke="black" d="M78.52,-1174.56C87.53,-1178.77 96.89,-1184.75 102.95,-1193 128.38,-1227.64 89.42,-1258.8 120.95,-1288 154.04,-1318.66 282.23,-1322.05 355.84,-1321.35"/>
<polygon fill="black" stroke="black" points="355.89,-1324.84 365.85,-1321.22 355.8,-1317.85 355.89,-1324.84"/>
<text text-anchor="middle" x="208.95" y="-1323.8" font-family="Times,serif" font-size="14.00">agschemas:plantingDate</text>
</g>
<!-- harvestdate -->
<g id="node20" class="node">
<title>harvestdate</title>
<polygon fill="none" stroke="black" points="453.35,-1258.54 453.35,-1273.46 427.73,-1284 391.5,-1284 365.89,-1273.46 365.89,-1258.54 391.5,-1248 427.73,-1248 453.35,-1258.54"/>
<text text-anchor="middle" x="409.62" y="-1262.3" font-family="Times,serif" font-size="14.00">xsd:date</text>
</g>
<!-- harvest&#45;&gt;harvestdate -->
<g id="edge52" class="edge">
<title>harvest&#45;&gt;harvestdate</title>
<path fill="none" stroke="black" d="M77.58,-1174.98C86.59,-1179.26 96.19,-1185.18 102.95,-1193 118.39,-1210.87 102.18,-1228.66 120.95,-1243 156.52,-1270.18 282.62,-1270.62 355.51,-1268.41"/>
<polygon fill="black" stroke="black" points="355.99,-1271.9 365.87,-1268.07 355.76,-1264.9 355.99,-1271.9"/>
<text text-anchor="middle" x="208.95" y="-1272.8" font-family="Times,serif" font-size="14.00">agschemas:harvestDate</text>
</g>
<!-- valueperac -->
<g id="node21" class="node">
<title>valueperac</title>
<ellipse fill="black" stroke="black" cx="409.62" cy="-1228" rx="1.8" ry="1.8"/>
</g>
<!-- harvest&#45;&gt;valueperac -->
<g id="edge7" class="edge">
<title>harvest&#45;&gt;valueperac</title>
<path fill="none" stroke="black" d="M73.35,-1176.59C82.54,-1181.4 93.4,-1187.28 102.95,-1193 111.19,-1197.94 111.86,-1201.85 120.95,-1205 173.48,-1223.22 351.2,-1227.14 397.51,-1227.85"/>
<polygon fill="black" stroke="black" points="397.56,-1231.36 407.6,-1227.99 397.65,-1224.36 397.56,-1231.36"/>
<text text-anchor="middle" x="208.95" y="-1227.8" font-family="Times,serif" font-size="14.00">agschemas:ValuePerAcre</text>
</g>
<!-- stormtolerance -->
<g id="node24" class="node">
<title>stormtolerance</title>
<ellipse fill="black" stroke="black" cx="409.62" cy="-1206" rx="1.8" ry="1.8"/>
</g>
<!-- harvest&#45;&gt;stormtolerance -->
<g id="edge19" class="edge">
<title>harvest&#45;&gt;stormtolerance</title>
<path fill="none" stroke="black" d="M93.19,-1169.44C141.77,-1173.67 225.39,-1181.37 296.95,-1190 333.87,-1194.46 377.47,-1201.11 397.52,-1204.24"/>
<polygon fill="black" stroke="black" points="397.1,-1207.72 407.52,-1205.82 398.19,-1200.81 397.1,-1207.72"/>
<text text-anchor="middle" x="208.95" y="-1193.8" font-family="Times,serif" font-size="14.00">agschemas:StormTolerance</text>
</g>
<!-- yield -->
<g id="node25" class="node">
<title>yield</title>
<ellipse fill="black" stroke="black" cx="409.62" cy="-1122" rx="1.8" ry="1.8"/>
</g>
<!-- harvest&#45;&gt;yield -->
<g id="edge23" class="edge">
<title>harvest&#45;&gt;yield</title>
<path fill="none" stroke="black" d="M84.43,-1159.38C95.91,-1157.15 108.98,-1154.78 120.95,-1153 228.21,-1137.06 359.14,-1125.96 397.54,-1122.87"/>
<polygon fill="black" stroke="black" points="397.89,-1126.35 407.58,-1122.08 397.34,-1119.38 397.89,-1126.35"/>
<text text-anchor="middle" x="208.95" y="-1156.8" font-family="Times,serif" font-size="14.00">agschemas:Yield</text>
</g>
<!-- elongation -->
<g id="node26" class="node">
<title>elongation</title>
<ellipse fill="black" stroke="black" cx="409.62" cy="-963" rx="1.8" ry="1.8"/>
</g>
<!-- harvest&#45;&gt;elongation -->
<g id="edge27" class="edge">
<title>harvest&#45;&gt;elongation</title>
<path fill="none" stroke="black" d="M65.96,-1152.67C78.97,-1140.55 99.77,-1123.07 120.95,-1113 193.48,-1078.51 226.5,-1110.58 296.95,-1072 344.84,-1045.77 386.54,-993.27 402.11,-972.13"/>
<polygon fill="black" stroke="black" points="405.06,-974.03 408.03,-963.86 399.37,-969.96 405.06,-974.03"/>
<text text-anchor="middle" x="208.95" y="-1116.8" font-family="Times,serif" font-size="14.00">agschemas:Elongation</text>
</g>
<!-- leaf -->
<g id="node27" class="node">
<title>leaf</title>
<ellipse fill="black" stroke="black" cx="409.62" cy="-801" rx="1.8" ry="1.8"/>
</g>
<!-- harvest&#45;&gt;leaf -->
<g id="edge35" class="edge">
<title>harvest&#45;&gt;leaf</title>
<path fill="none" stroke="black" d="M57.6,-1150.14C66.43,-1125.42 86.91,-1077.96 120.95,-1053 185.88,-1005.38 238.29,-1065.17 296.95,-1010 316.61,-991.51 303.74,-976.56 314.95,-952 341.12,-894.64 385.2,-832.63 401.92,-809.95"/>
<polygon fill="black" stroke="black" points="404.75,-812.01 407.93,-801.91 399.14,-807.82 404.75,-812.01"/>
<text text-anchor="middle" x="208.95" y="-1056.8" font-family="Times,serif" font-size="14.00">agschemas:Leaf</text>
</g>
<!-- length -->
<g id="node28" class="node">
<title>length</title>
<ellipse fill="black" stroke="black" cx="409.62" cy="-666" rx="1.8" ry="1.8"/>
</g>
<!-- harvest&#45;&gt;length -->
<g id="edge39" class="edge">
<title>harvest&#45;&gt;length</title>
<path fill="none" stroke="black" d="M54.53,-1148.8C59.54,-1114.22 75.53,-1035.78 120.95,-991 180.44,-932.35 244.92,-990.36 296.95,-925 334.64,-877.64 291.95,-845.99 314.95,-790 335.61,-739.7 381.8,-691.74 400.52,-673.61"/>
<polygon fill="black" stroke="black" points="402.98,-676.1 407.86,-666.69 398.18,-671.01 402.98,-676.1"/>
<text text-anchor="middle" x="208.95" y="-994.8" font-family="Times,serif" font-size="14.00">agschemas:Length</text>
</g>
<!-- lintfraction -->
<g id="node29" class="node">
<title>lintfraction</title>
<ellipse fill="black" stroke="black" cx="409.62" cy="-558" rx="1.8" ry="1.8"/>
</g>
<!-- harvest&#45;&gt;lintfraction -->
<g id="edge43" class="edge">
<title>harvest&#45;&gt;lintfraction</title>
<path fill="none" stroke="black" d="M52.86,-1148.38C54.68,-1103.6 64.82,-983.5 120.95,-906 175.61,-830.52 247.18,-870.8 296.95,-792 329.74,-740.08 288.27,-710.32 314.95,-655 335.06,-613.29 380.02,-578.12 399.42,-564.29"/>
<polygon fill="black" stroke="black" points="401.59,-567.04 407.85,-558.5 397.63,-561.27 401.59,-567.04"/>
<text text-anchor="middle" x="208.95" y="-909.8" font-family="Times,serif" font-size="14.00">agschemas:LintFraction</text>
</g>
<!-- seedingrateperacre -->
<g id="node33" class="node">
<title>seedingrateperacre</title>
<polygon fill="none" stroke="black" points="492.64,-415.54 492.64,-430.46 444.01,-441 375.23,-441 326.59,-430.46 326.59,-415.54 375.23,-405 444.01,-405 492.64,-415.54"/>
<text text-anchor="middle" x="409.62" y="-419.3" font-family="Times,serif" font-size="14.00">seedingrateperacre</text>
</g>
<!-- harvest&#45;&gt;seedingrateperacre -->
<g id="edge11" class="edge">
<title>harvest&#45;&gt;seedingrateperacre</title>
<path fill="none" stroke="black" d="M52.34,-1148.18C52.58,-1090.84 58.47,-907.02 120.95,-773 172.25,-662.93 220.13,-658.05 296.95,-564 329.17,-524.55 365.67,-478.12 387.91,-449.63"/>
<polygon fill="black" stroke="black" points="390.95,-451.43 394.34,-441.39 385.43,-447.13 390.95,-451.43"/>
<text text-anchor="middle" x="208.95" y="-776.8" font-family="Times,serif" font-size="14.00">agschemas:SeedingRatePerAcre</text>
</g>
<!-- percentballopened -->
<g id="node37" class="node">
<title>percentballopened</title>
<polygon fill="none" stroke="black" points="491.33,-253.54 491.33,-268.46 443.46,-279 375.77,-279 327.91,-268.46 327.91,-253.54 375.77,-243 443.46,-243 491.33,-253.54"/>
<text text-anchor="middle" x="409.62" y="-257.3" font-family="Times,serif" font-size="14.00">percentballopened</text>
</g>
<!-- harvest&#45;&gt;percentballopened -->
<g id="edge15" class="edge">
<title>harvest&#45;&gt;percentballopened</title>
<path fill="none" stroke="black" d="M52.84,-1148.46C54.93,-1059.27 67.25,-655.93 120.95,-545 178.62,-425.85 307.49,-328.1 371.32,-284.9"/>
<polygon fill="black" stroke="black" points="373.52,-287.64 379.88,-279.17 369.62,-281.82 373.52,-287.64"/>
<text text-anchor="middle" x="208.95" y="-548.8" font-family="Times,serif" font-size="14.00">agschemas:unitpercent</text>
</g>
<!-- hvicolor -->
<g id="node50" class="node">
<title>hvicolor</title>
<polygon fill="none" stroke="black" points="453.35,-91.54 453.35,-106.46 427.73,-117 391.5,-117 365.89,-106.46 365.89,-91.54 391.5,-81 427.73,-81 453.35,-91.54"/>
<text text-anchor="middle" x="409.62" y="-95.3" font-family="Times,serif" font-size="14.00">hvicolor</text>
</g>
<!-- harvest&#45;&gt;hvicolor -->
<g id="edge31" class="edge">
<title>harvest&#45;&gt;hvicolor</title>
<path fill="none" stroke="black" d="M53.06,-1148.26C56.97,-1033.49 80.35,-398.18 120.95,-323 177.27,-218.69 305.16,-147.11 369.75,-116.2"/>
<polygon fill="black" stroke="black" points="371.24,-119.37 378.8,-111.94 368.26,-113.03 371.24,-119.37"/>
<text text-anchor="middle" x="208.95" y="-326.8" font-family="Times,serif" font-size="14.00">agschemas:HVIColor</text>
</g>
<!-- cotton -->
<g id="node12" class="node">
<title>cotton</title>
<ellipse fill="none" stroke="black" cx="760.28" cy="-1800" rx="74.19" ry="18"/>
<text text-anchor="middle" x="760.28" y="-1796.3" font-family="Times,serif" font-size="14.00">cotton (nalt:4418)</text>
</g>
<!-- crop&#45;&gt;cotton -->
<g id="edge49" class="edge">
<title>crop&#45;&gt;cotton</title>
<path fill="none" stroke="black" d="M435.4,-1737.85C457.98,-1743.11 492.3,-1750.93 522.29,-1757 578.04,-1768.29 641.45,-1779.72 688.64,-1787.96"/>
<polygon fill="black" stroke="black" points="688.31,-1791.45 698.76,-1789.72 689.51,-1784.56 688.31,-1791.45"/>
<text text-anchor="middle" x="573.79" y="-1778.8" font-family="Times,serif" font-size="14.00">rdf:type</text>
</g>
<!-- administration -->
<g id="node11" class="node">
<title>administration</title>
<polygon fill="none" stroke="black" points="760.28,-1764 673.14,-1746 760.28,-1728 847.42,-1746 760.28,-1764"/>
<text text-anchor="middle" x="760.28" y="-1742.3" font-family="Times,serif" font-size="14.00">administration</text>
</g>
<!-- harvestlocation&#45;&gt;administration -->
<g id="edge57" class="edge">
<title>harvestlocation&#45;&gt;administration</title>
<path fill="none" stroke="black" d="M428.54,-1625.45C449.78,-1641.94 486.77,-1668.73 522.29,-1685 579.63,-1711.27 650.15,-1727.58 699.29,-1736.65"/>
<polygon fill="black" stroke="black" points="698.98,-1740.15 709.44,-1738.48 700.22,-1733.26 698.98,-1740.15"/>
<text text-anchor="middle" x="573.79" y="-1722.8" font-family="Times,serif" font-size="14.00">schema:isPartOf</text>
</g>
<!-- harvestlocationname -->
<g id="node13" class="node">
<title>harvestlocationname</title>
<polygon fill="none" stroke="black" points="828.78,-1710 691.78,-1710 691.78,-1674 828.78,-1674 828.78,-1710"/>
<text text-anchor="middle" x="760.28" y="-1688.3" font-family="Times,serif" font-size="14.00">harvest location name</text>
</g>
<!-- harvestlocation&#45;&gt;harvestlocationname -->
<g id="edge56" class="edge">
<title>harvestlocation&#45;&gt;harvestlocationname</title>
<path fill="none" stroke="black" d="M445.08,-1622.46C467.03,-1629.52 496.15,-1638.44 522.29,-1645 575.07,-1658.23 635.22,-1670.12 681.71,-1678.64"/>
<polygon fill="black" stroke="black" points="681.25,-1682.11 691.72,-1680.45 682.51,-1675.22 681.25,-1682.11"/>
<text text-anchor="middle" x="573.79" y="-1669.8" font-family="Times,serif" font-size="14.00">rdfs:label</text>
</g>
<!-- zipcode -->
<g id="node14" class="node">
<title>zipcode</title>
<polygon fill="none" stroke="black" points="793.28,-1656 727.28,-1656 727.28,-1620 793.28,-1620 793.28,-1656"/>
<text text-anchor="middle" x="760.28" y="-1634.3" font-family="Times,serif" font-size="14.00">ZIP code</text>
</g>
<!-- harvestlocation&#45;&gt;zipcode -->
<g id="edge59" class="edge">
<title>harvestlocation&#45;&gt;zipcode</title>
<path fill="none" stroke="black" d="M477.43,-1616.17C548.13,-1621.65 657.53,-1630.12 717.1,-1634.73"/>
<polygon fill="black" stroke="black" points="717.04,-1638.24 727.28,-1635.52 717.58,-1631.26 717.04,-1638.24"/>
<text text-anchor="middle" x="573.79" y="-1629.8" font-family="Times,serif" font-size="14.00">schemapostalCode</text>
</g>
<!-- latitude -->
<g id="node16" class="node">
<title>latitude</title>
<polygon fill="none" stroke="black" points="813.71,-1576.54 813.71,-1591.46 782.41,-1602 738.15,-1602 706.85,-1591.46 706.85,-1576.54 738.15,-1566 782.41,-1566 813.71,-1576.54"/>
<text text-anchor="middle" x="760.28" y="-1580.3" font-family="Times,serif" font-size="14.00">xsd:double</text>
</g>
<!-- harvestlocation&#45;&gt;latitude -->
<g id="edge54" class="edge">
<title>harvestlocation&#45;&gt;latitude</title>
<path fill="none" stroke="black" d="M473.79,-1605.15C489.63,-1603.73 506.58,-1602.27 522.29,-1601 581.28,-1596.24 648.59,-1591.48 696.36,-1588.21"/>
<polygon fill="black" stroke="black" points="696.81,-1591.69 706.55,-1587.51 696.34,-1584.7 696.81,-1591.69"/>
<text text-anchor="middle" x="573.79" y="-1604.8" font-family="Times,serif" font-size="14.00">schema:latitude</text>
</g>
<!-- longitude -->
<g id="node17" class="node">
<title>longitude</title>
<polygon fill="none" stroke="black" points="813.71,-1522.54 813.71,-1537.46 782.41,-1548 738.15,-1548 706.85,-1537.46 706.85,-1522.54 738.15,-1512 782.41,-1512 813.71,-1522.54"/>
<text text-anchor="middle" x="760.28" y="-1526.3" font-family="Times,serif" font-size="14.00">xsd:double</text>
</g>
<!-- harvestlocation&#45;&gt;longitude -->
<g id="edge55" class="edge">
<title>harvestlocation&#45;&gt;longitude</title>
<path fill="none" stroke="black" d="M442.53,-1599.14C464.68,-1591.22 495,-1581.02 522.29,-1574 580.94,-1558.92 649.01,-1546.83 697.11,-1539.16"/>
<polygon fill="black" stroke="black" points="697.72,-1542.61 707.06,-1537.6 696.63,-1535.7 697.72,-1542.61"/>
<text text-anchor="middle" x="573.79" y="-1577.8" font-family="Times,serif" font-size="14.00">schema:longitude</text>
</g>
<!-- administrationtype -->
<g id="node61" class="node">
<title>administrationtype</title>
<polygon fill="none" stroke="black" points="965.27,-1728 965.27,-1764 1240.27,-1764 1240.27,-1728 965.27,-1728"/>
<text text-anchor="middle" x="1007.77" y="-1742.3" font-family="Times,serif" font-size="14.00">schema:City</text>
<polyline fill="none" stroke="black" points="1050.27,-1728 1050.27,-1764"/>
<text text-anchor="middle" x="1100.77" y="-1742.3" font-family="Times,serif" font-size="14.00">schema:County</text>
<polyline fill="none" stroke="black" points="1151.27,-1728 1151.27,-1764"/>
<text text-anchor="middle" x="1195.77" y="-1742.3" font-family="Times,serif" font-size="14.00">schema:State</text>
</g>
<!-- administration&#45;&gt;administrationtype -->
<g id="edge58" class="edge">
<title>administration&#45;&gt;administrationtype</title>
<path fill="none" stroke="black" d="M847.64,-1746C880.24,-1746 918.3,-1746 954.9,-1746"/>
<polygon fill="black" stroke="black" points="955.18,-1749.5 965.18,-1746 955.18,-1742.5 955.18,-1749.5"/>
<text text-anchor="middle" x="921.27" y="-1749.8" font-family="Times,serif" font-size="14.00">rdf:type</text>
</g>
<!-- plantingdata -->
<g id="node15" class="node">
<title>plantingdata</title>
<polygon fill="none" stroke="black" points="82.47,-1238 20.47,-1238 20.47,-1202 82.47,-1202 82.47,-1238"/>
<text text-anchor="middle" x="51.47" y="-1216.3" font-family="Times,serif" font-size="14.00">xsd:date</text>
</g>
<!-- valueperacType -->
<g id="node30" class="node">
<title>valueperacType</title>
<ellipse fill="none" stroke="black" cx="760.28" cy="-1476" rx="59.59" ry="18"/>
<text text-anchor="middle" x="760.28" y="-1472.3" font-family="Times,serif" font-size="14.00">qudt:Quantity</text>
</g>
<!-- valueperac&#45;&gt;valueperacType -->
<g id="edge8" class="edge">
<title>valueperac&#45;&gt;valueperacType</title>
<path fill="none" stroke="black" d="M411.75,-1227.68C420.48,-1225.31 477.41,-1211.24 504.29,-1239 537.18,-1272.97 489.2,-1417.23 522.29,-1451 567.99,-1497.64 647.42,-1496.27 701.62,-1488.37"/>
<polygon fill="black" stroke="black" points="702.43,-1491.78 711.77,-1486.77 701.34,-1484.87 702.43,-1491.78"/>
<text text-anchor="middle" x="573.79" y="-1494.8" font-family="Times,serif" font-size="14.00">rdf:type</text>
</g>
<!-- usdperacre -->
<g id="node31" class="node">
<title>usdperacre</title>
<ellipse fill="none" stroke="black" cx="760.28" cy="-1422" rx="81.49" ry="18"/>
<text text-anchor="middle" x="760.28" y="-1418.3" font-family="Times,serif" font-size="14.00">agunits:UsdPerAcre</text>
</g>
<!-- valueperac&#45;&gt;usdperacre -->
<g id="edge10" class="edge">
<title>valueperac&#45;&gt;usdperacre</title>
<path fill="none" stroke="black" d="M411.74,-1227.69C420.41,-1225.39 476.94,-1211.7 504.29,-1239 552.12,-1286.75 474.87,-1341.84 522.29,-1390 563.75,-1432.11 632.36,-1437.29 685.12,-1433.58"/>
<polygon fill="black" stroke="black" points="685.43,-1437.07 695.11,-1432.76 684.86,-1430.09 685.43,-1437.07"/>
<text text-anchor="middle" x="573.79" y="-1435.8" font-family="Times,serif" font-size="14.00">qudt:unit</text>
</g>
<!-- valueperacValue -->
<g id="node32" class="node">
<title>valueperacValue</title>
<polygon fill="none" stroke="black" points="805.33,-1360.54 805.33,-1375.46 778.94,-1386 741.62,-1386 715.23,-1375.46 715.23,-1360.54 741.62,-1350 778.94,-1350 805.33,-1360.54"/>
<text text-anchor="middle" x="760.28" y="-1364.3" font-family="Times,serif" font-size="14.00">xsd:float</text>
</g>
<!-- valueperac&#45;&gt;valueperacValue -->
<g id="edge9" class="edge">
<title>valueperac&#45;&gt;valueperacValue</title>
<path fill="none" stroke="black" d="M411.72,-1227.71C420.24,-1225.56 475.86,-1212.83 504.29,-1239 533.98,-1266.33 493.3,-1299.93 522.29,-1328 570.45,-1374.63 651.49,-1378.49 705.18,-1374.89"/>
<polygon fill="black" stroke="black" points="705.51,-1378.38 715.21,-1374.11 704.96,-1371.4 705.51,-1378.38"/>
<text text-anchor="middle" x="573.79" y="-1374.8" font-family="Times,serif" font-size="14.00">qudt:value</text>
</g>
<!-- seedingrate -->
<g id="node22" class="node">
<title>seedingrate</title>
<ellipse fill="black" stroke="black" cx="51.47" cy="-1258" rx="1.8" ry="1.8"/>
</g>
<!-- ballopened -->
<g id="node23" class="node">
<title>ballopened</title>
<ellipse fill="black" stroke="black" cx="51.47" cy="-1280" rx="1.8" ry="1.8"/>
</g>
<!-- stormtoleranceType -->
<g id="node41" class="node">
<title>stormtoleranceType</title>
<ellipse fill="none" stroke="black" cx="760.28" cy="-1314" rx="59.59" ry="18"/>
<text text-anchor="middle" x="760.28" y="-1310.3" font-family="Times,serif" font-size="14.00">qudt:Quantity</text>
</g>
<!-- stormtolerance&#45;&gt;stormtoleranceType -->
<g id="edge20" class="edge">
<title>stormtolerance&#45;&gt;stormtoleranceType</title>
<path fill="none" stroke="black" d="M411.69,-1205.75C419.93,-1203.93 473.87,-1193.17 504.29,-1217 522.23,-1231.05 504.98,-1250.18 522.29,-1265 568.75,-1304.77 638.98,-1315.15 690.94,-1316.71"/>
<polygon fill="black" stroke="black" points="691.01,-1320.22 701.08,-1316.91 691.15,-1313.22 691.01,-1320.22"/>
<text text-anchor="middle" x="573.79" y="-1312.8" font-family="Times,serif" font-size="14.00">rdf:type</text>
</g>
<!-- TBD tbdstormtolerance -->
<g id="node42" class="node">
<title>TBD tbdstormtolerance</title>
<ellipse fill="none" stroke="black" cx="760.28" cy="-1260" rx="116.98" ry="18"/>
<text text-anchor="middle" x="760.28" y="-1256.3" font-family="Times,serif" font-size="14.00">agunits:TBD Storm Tolerance</text>
</g>
<!-- stormtolerance&#45;&gt;TBD tbdstormtolerance -->
<g id="edge22" class="edge">
<title>stormtolerance&#45;&gt;TBD tbdstormtolerance</title>
<path fill="none" stroke="black" d="M411.56,-1206C418.86,-1206.06 467.02,-1206.78 504.29,-1217 512.74,-1219.31 513.88,-1222.56 522.29,-1225 562.52,-1236.67 607.78,-1244.58 647.88,-1249.87"/>
<polygon fill="black" stroke="black" points="647.59,-1253.37 657.96,-1251.17 648.48,-1246.42 647.59,-1253.37"/>
<text text-anchor="middle" x="573.79" y="-1249.8" font-family="Times,serif" font-size="14.00">qudt:unit</text>
</g>
<!-- stormtoleranceValue -->
<g id="node43" class="node">
<title>stormtoleranceValue</title>
<polygon fill="none" stroke="black" points="805.33,-1198.54 805.33,-1213.46 778.94,-1224 741.62,-1224 715.23,-1213.46 715.23,-1198.54 741.62,-1188 778.94,-1188 805.33,-1198.54"/>
<text text-anchor="middle" x="760.28" y="-1202.3" font-family="Times,serif" font-size="14.00">xsd:float</text>
</g>
<!-- stormtolerance&#45;&gt;stormtoleranceValue -->
<g id="edge21" class="edge">
<title>stormtolerance&#45;&gt;stormtoleranceValue</title>
<path fill="none" stroke="black" d="M411.62,-1206C426.81,-1206 611.19,-1206 705.08,-1206"/>
<polygon fill="black" stroke="black" points="705.24,-1209.5 715.24,-1206 705.24,-1202.5 705.24,-1209.5"/>
<text text-anchor="middle" x="573.79" y="-1209.8" font-family="Times,serif" font-size="14.00">qudt:value</text>
</g>
<!-- yieldType -->
<g id="node44" class="node">
<title>yieldType</title>
<ellipse fill="none" stroke="black" cx="760.28" cy="-1152" rx="59.59" ry="18"/>
<text text-anchor="middle" x="760.28" y="-1148.3" font-family="Times,serif" font-size="14.00">qudt:Quantity</text>
</g>
<!-- yield&#45;&gt;yieldType -->
<g id="edge24" class="edge">
<title>yield&#45;&gt;yieldType</title>
<path fill="none" stroke="black" d="M411.62,-1122.09C426.16,-1123.34 595.85,-1137.94 692.66,-1146.27"/>
<polygon fill="black" stroke="black" points="692.39,-1149.76 702.66,-1147.13 692.99,-1142.78 692.39,-1149.76"/>
<text text-anchor="middle" x="573.79" y="-1142.8" font-family="Times,serif" font-size="14.00">rdf:type</text>
</g>
<!-- yieldcount -->
<g id="node45" class="node">
<title>yieldcount</title>
<ellipse fill="none" stroke="black" cx="760.28" cy="-1098" rx="96.38" ry="18"/>
<text text-anchor="middle" x="760.28" y="-1094.3" font-family="Times,serif" font-size="14.00">agunits:unit:UNITLESS</text>
</g>
<!-- yield&#45;&gt;yieldcount -->
<g id="edge26" class="edge">
<title>yield&#45;&gt;yieldcount</title>
<path fill="none" stroke="black" d="M411.62,-1121.93C424.6,-1121.04 561.18,-1111.64 659.22,-1104.89"/>
<polygon fill="black" stroke="black" points="659.74,-1108.36 669.48,-1104.18 659.26,-1101.38 659.74,-1108.36"/>
<text text-anchor="middle" x="573.79" y="-1117.8" font-family="Times,serif" font-size="14.00">qudt:unit</text>
</g>
<!-- yieldValue -->
<g id="node46" class="node">
<title>yieldValue</title>
<polygon fill="none" stroke="black" points="814.62,-1036.54 814.62,-1051.46 782.79,-1062 737.77,-1062 705.94,-1051.46 705.94,-1036.54 737.77,-1026 782.79,-1026 814.62,-1036.54"/>
<text text-anchor="middle" x="760.28" y="-1040.3" font-family="Times,serif" font-size="14.00">xsd:integer</text>
</g>
<!-- yield&#45;&gt;yieldValue -->
<g id="edge25" class="edge">
<title>yield&#45;&gt;yieldValue</title>
<path fill="none" stroke="black" d="M411.71,-1121.62C420.13,-1118.67 475.83,-1099.35 522.29,-1088 581.12,-1073.63 649.16,-1061.45 697.21,-1053.57"/>
<polygon fill="black" stroke="black" points="697.84,-1057.01 707.15,-1051.96 696.72,-1050.1 697.84,-1057.01"/>
<text text-anchor="middle" x="573.79" y="-1091.8" font-family="Times,serif" font-size="14.00">qudt:value</text>
</g>
<!-- elongationType -->
<g id="node47" class="node">
<title>elongationType</title>
<ellipse fill="none" stroke="black" cx="760.28" cy="-990" rx="59.59" ry="18"/>
<text text-anchor="middle" x="760.28" y="-986.3" font-family="Times,serif" font-size="14.00">qudt:Quantity</text>
</g>
<!-- elongation&#45;&gt;elongationType -->
<g id="edge28" class="edge">
<title>elongation&#45;&gt;elongationType</title>
<path fill="none" stroke="black" d="M411.62,-963.08C426.14,-964.2 595.4,-977.31 692.28,-984.81"/>
<polygon fill="black" stroke="black" points="692.04,-988.3 702.28,-985.59 692.58,-981.32 692.04,-988.3"/>
<text text-anchor="middle" x="573.79" y="-981.8" font-family="Times,serif" font-size="14.00">rdf:type</text>
</g>
<!-- elongationcounts -->
<g id="node48" class="node">
<title>elongationcounts</title>
<ellipse fill="none" stroke="black" cx="760.28" cy="-936" rx="96.38" ry="18"/>
<text text-anchor="middle" x="760.28" y="-932.3" font-family="Times,serif" font-size="14.00">agunits:unit:UNITLESS</text>
</g>
<!-- elongation&#45;&gt;elongationcounts -->
<g id="edge30" class="edge">
<title>elongation&#45;&gt;elongationcounts</title>
<path fill="none" stroke="black" d="M411.72,-962.88C420.23,-961.94 476.47,-955.8 522.29,-952 566.81,-948.31 616.08,-944.87 658.12,-942.14"/>
<polygon fill="black" stroke="black" points="658.6,-945.62 668.36,-941.48 658.15,-938.63 658.6,-945.62"/>
<text text-anchor="middle" x="573.79" y="-955.8" font-family="Times,serif" font-size="14.00">qudt:unit</text>
</g>
<!-- elongationValue -->
<g id="node49" class="node">
<title>elongationValue</title>
<polygon fill="none" stroke="black" points="814.62,-874.54 814.62,-889.46 782.79,-900 737.77,-900 705.94,-889.46 705.94,-874.54 737.77,-864 782.79,-864 814.62,-874.54"/>
<text text-anchor="middle" x="760.28" y="-878.3" font-family="Times,serif" font-size="14.00">xsd:integer</text>
</g>
<!-- elongation&#45;&gt;elongationValue -->
<g id="edge29" class="edge">
<title>elongation&#45;&gt;elongationValue</title>
<path fill="none" stroke="black" d="M411.7,-962.56C420.08,-959.19 475.51,-937.13 522.29,-925 580.49,-909.91 648.06,-898.21 696.13,-890.84"/>
<polygon fill="black" stroke="black" points="696.72,-894.3 706.08,-889.34 695.67,-887.37 696.72,-894.3"/>
<text text-anchor="middle" x="573.79" y="-928.8" font-family="Times,serif" font-size="14.00">qudt:value</text>
</g>
<!-- leafType -->
<g id="node54" class="node">
<title>leafType</title>
<ellipse fill="none" stroke="black" cx="760.28" cy="-828" rx="59.59" ry="18"/>
<text text-anchor="middle" x="760.28" y="-824.3" font-family="Times,serif" font-size="14.00">qudt:Quantity</text>
</g>
<!-- leaf&#45;&gt;leafType -->
<g id="edge36" class="edge">
<title>leaf&#45;&gt;leafType</title>
<path fill="none" stroke="black" d="M411.62,-801.08C426.14,-802.2 595.4,-815.31 692.28,-822.81"/>
<polygon fill="black" stroke="black" points="692.04,-826.3 702.28,-823.59 692.58,-819.32 692.04,-826.3"/>
<text text-anchor="middle" x="573.79" y="-819.8" font-family="Times,serif" font-size="14.00">rdf:type</text>
</g>
<!-- leafcount -->
<g id="node55" class="node">
<title>leafcount</title>
<ellipse fill="none" stroke="black" cx="760.28" cy="-774" rx="96.38" ry="18"/>
<text text-anchor="middle" x="760.28" y="-770.3" font-family="Times,serif" font-size="14.00">agunits:unit:UNITLESS</text>
</g>
<!-- leaf&#45;&gt;leafcount -->
<g id="edge38" class="edge">
<title>leaf&#45;&gt;leafcount</title>
<path fill="none" stroke="black" d="M411.72,-800.88C420.23,-799.94 476.47,-793.8 522.29,-790 566.81,-786.31 616.08,-782.87 658.12,-780.14"/>
<polygon fill="black" stroke="black" points="658.6,-783.62 668.36,-779.48 658.15,-776.63 658.6,-783.62"/>
<text text-anchor="middle" x="573.79" y="-793.8" font-family="Times,serif" font-size="14.00">qudt:unit</text>
</g>
<!-- leafValue -->
<g id="node56" class="node">
<title>leafValue</title>
<polygon fill="none" stroke="black" points="814.62,-712.54 814.62,-727.46 782.79,-738 737.77,-738 705.94,-727.46 705.94,-712.54 737.77,-702 782.79,-702 814.62,-712.54"/>
<text text-anchor="middle" x="760.28" y="-716.3" font-family="Times,serif" font-size="14.00">xsd:integer</text>
</g>
<!-- leaf&#45;&gt;leafValue -->
<g id="edge37" class="edge">
<title>leaf&#45;&gt;leafValue</title>
<path fill="none" stroke="black" d="M411.7,-800.56C420.08,-797.19 475.51,-775.13 522.29,-763 580.49,-747.91 648.06,-736.21 696.13,-728.84"/>
<polygon fill="black" stroke="black" points="696.72,-732.3 706.08,-727.34 695.67,-725.37 696.72,-732.3"/>
<text text-anchor="middle" x="573.79" y="-766.8" font-family="Times,serif" font-size="14.00">qudt:value</text>
</g>
<!-- length&#45;&gt;length -->
<g id="edge42" class="edge">
<title>length&#45;&gt;length</title>
<path fill="none" stroke="black" d="M407.72,-666.31C368.59,-673.01 369.22,-685.8 409.62,-685.8 446.23,-685.8 450.18,-675.3 421.47,-668.34"/>
<polygon fill="black" stroke="black" points="422.01,-664.88 411.51,-666.31 420.61,-671.74 422.01,-664.88"/>
<text text-anchor="middle" x="409.62" y="-689.6" font-family="Times,serif" font-size="14.00">qudt:unit</text>
</g>
<!-- lengthType -->
<g id="node57" class="node">
<title>lengthType</title>
<ellipse fill="none" stroke="black" cx="760.28" cy="-666" rx="59.59" ry="18"/>
<text text-anchor="middle" x="760.28" y="-662.3" font-family="Times,serif" font-size="14.00">qudt:Quantity</text>
</g>
<!-- length&#45;&gt;lengthType -->
<g id="edge40" class="edge">
<title>length&#45;&gt;lengthType</title>
<path fill="none" stroke="black" d="M411.62,-666C426.05,-666 593.16,-666 690.34,-666"/>
<polygon fill="black" stroke="black" points="690.38,-669.5 700.38,-666 690.38,-662.5 690.38,-669.5"/>
<text text-anchor="middle" x="573.79" y="-669.8" font-family="Times,serif" font-size="14.00">rdf:type</text>
</g>
<!-- lengthValue -->
<g id="node58" class="node">
<title>lengthValue</title>
<polygon fill="none" stroke="black" points="807.55,-604.54 807.55,-619.46 779.86,-630 740.7,-630 713.01,-619.46 713.01,-604.54 740.7,-594 779.86,-594 807.55,-604.54"/>
<text text-anchor="middle" x="760.28" y="-608.3" font-family="Times,serif" font-size="14.00">xsd:Float</text>
</g>
<!-- length&#45;&gt;lengthValue -->
<g id="edge41" class="edge">
<title>length&#45;&gt;lengthValue</title>
<path fill="none" stroke="black" d="M411.72,-665.8C420.22,-664.29 476.45,-654.28 522.29,-647 583.9,-637.21 654.67,-626.88 702.72,-620"/>
<polygon fill="black" stroke="black" points="703.51,-623.42 712.92,-618.54 702.52,-616.49 703.51,-623.42"/>
<text text-anchor="middle" x="573.79" y="-650.8" font-family="Times,serif" font-size="14.00">qudt:value</text>
</g>
<!-- lintfraction&#45;&gt;lintfraction -->
<g id="edge46" class="edge">
<title>lintfraction&#45;&gt;lintfraction</title>
<path fill="none" stroke="black" d="M407.72,-558.31C368.59,-565.01 369.22,-577.8 409.62,-577.8 446.23,-577.8 450.18,-567.3 421.47,-560.34"/>
<polygon fill="black" stroke="black" points="422.01,-556.88 411.51,-558.31 420.61,-563.74 422.01,-556.88"/>
<text text-anchor="middle" x="409.62" y="-581.6" font-family="Times,serif" font-size="14.00">qudt:unit</text>
</g>
<!-- lintfractionType -->
<g id="node59" class="node">
<title>lintfractionType</title>
<ellipse fill="none" stroke="black" cx="760.28" cy="-558" rx="59.59" ry="18"/>
<text text-anchor="middle" x="760.28" y="-554.3" font-family="Times,serif" font-size="14.00">qudt:Quantity</text>
</g>
<!-- lintfraction&#45;&gt;lintfractionType -->
<g id="edge44" class="edge">
<title>lintfraction&#45;&gt;lintfractionType</title>
<path fill="none" stroke="black" d="M411.62,-558C426.05,-558 593.16,-558 690.34,-558"/>
<polygon fill="black" stroke="black" points="690.38,-561.5 700.38,-558 690.38,-554.5 690.38,-561.5"/>
<text text-anchor="middle" x="573.79" y="-561.8" font-family="Times,serif" font-size="14.00">rdf:type</text>
</g>
<!-- lintfractionValue -->
<g id="node60" class="node">
<title>lintfractionValue</title>
<polygon fill="none" stroke="black" points="807.55,-496.54 807.55,-511.46 779.86,-522 740.7,-522 713.01,-511.46 713.01,-496.54 740.7,-486 779.86,-486 807.55,-496.54"/>
<text text-anchor="middle" x="760.28" y="-500.3" font-family="Times,serif" font-size="14.00">xsd:Float</text>
</g>
<!-- lintfraction&#45;&gt;lintfractionValue -->
<g id="edge45" class="edge">
<title>lintfraction&#45;&gt;lintfractionValue</title>
<path fill="none" stroke="black" d="M411.72,-557.8C420.22,-556.29 476.45,-546.28 522.29,-539 583.9,-529.21 654.67,-518.88 702.72,-512"/>
<polygon fill="black" stroke="black" points="703.51,-515.42 712.92,-510.54 702.52,-508.49 703.51,-515.42"/>
<text text-anchor="middle" x="573.79" y="-542.8" font-family="Times,serif" font-size="14.00">qudt:value</text>
</g>
<!-- seedingrateperacreType -->
<g id="node34" class="node">
<title>seedingrateperacreType</title>
<ellipse fill="none" stroke="black" cx="760.28" cy="-450" rx="59.59" ry="18"/>
<text text-anchor="middle" x="760.28" y="-446.3" font-family="Times,serif" font-size="14.00">qudt:Quantity</text>
</g>
<!-- seedingrateperacre&#45;&gt;seedingrateperacreType -->
<g id="edge12" class="edge">
<title>seedingrateperacre&#45;&gt;seedingrateperacreType</title>
<path fill="none" stroke="black" d="M492.81,-429.36C553.46,-434.06 634.99,-440.37 691.83,-444.78"/>
<polygon fill="black" stroke="black" points="691.91,-448.29 702.15,-445.58 692.45,-441.31 691.91,-448.29"/>
<text text-anchor="middle" x="573.79" y="-441.8" font-family="Times,serif" font-size="14.00">rdf:type</text>
</g>
<!-- seedsperacre -->
<g id="node35" class="node">
<title>seedsperacre</title>
<ellipse fill="none" stroke="black" cx="760.28" cy="-396" rx="87.99" ry="18"/>
<text text-anchor="middle" x="760.28" y="-392.3" font-family="Times,serif" font-size="14.00">agunits:SeedsPerAcre</text>
</g>
<!-- seedingrateperacre&#45;&gt;seedsperacre -->
<g id="edge14" class="edge">
<title>seedingrateperacre&#45;&gt;seedsperacre</title>
<path fill="none" stroke="black" d="M489.9,-414.89C500.78,-413.86 511.81,-412.87 522.29,-412 569.57,-408.08 622.21,-404.45 665.85,-401.64"/>
<polygon fill="black" stroke="black" points="666.12,-405.13 675.88,-401 665.68,-398.15 666.12,-405.13"/>
<text text-anchor="middle" x="573.79" y="-415.8" font-family="Times,serif" font-size="14.00">qudt:unit</text>
</g>
<!-- seedingrateperacreValue -->
<g id="node36" class="node">
<title>seedingrateperacreValue</title>
<polygon fill="none" stroke="black" points="805.33,-334.54 805.33,-349.46 778.94,-360 741.62,-360 715.23,-349.46 715.23,-334.54 741.62,-324 778.94,-324 805.33,-334.54"/>
<text text-anchor="middle" x="760.28" y="-338.3" font-family="Times,serif" font-size="14.00">xsd:float</text>
</g>
<!-- seedingrateperacre&#45;&gt;seedingrateperacreValue -->
<g id="edge13" class="edge">
<title>seedingrateperacre&#45;&gt;seedingrateperacreValue</title>
<path fill="none" stroke="black" d="M453.12,-406.88C473.78,-399.47 499.1,-391.01 522.29,-385 584.27,-368.93 656.88,-356.7 705.24,-349.47"/>
<polygon fill="black" stroke="black" points="705.8,-352.92 715.18,-348 704.77,-346 705.8,-352.92"/>
<text text-anchor="middle" x="573.79" y="-388.8" font-family="Times,serif" font-size="14.00">qudt:value</text>
</g>
<!-- percentballopenedType -->
<g id="node38" class="node">
<title>percentballopenedType</title>
<ellipse fill="none" stroke="black" cx="760.28" cy="-288" rx="59.59" ry="18"/>
<text text-anchor="middle" x="760.28" y="-284.3" font-family="Times,serif" font-size="14.00">qudt:Quantity</text>
</g>
<!-- percentballopened&#45;&gt;percentballopenedType -->
<g id="edge16" class="edge">
<title>percentballopened&#45;&gt;percentballopenedType</title>
<path fill="none" stroke="black" d="M491.49,-267.26C552.4,-271.98 634.94,-278.37 692.21,-282.81"/>
<polygon fill="black" stroke="black" points="692,-286.3 702.24,-283.58 692.54,-279.32 692,-286.3"/>
<text text-anchor="middle" x="573.79" y="-279.8" font-family="Times,serif" font-size="14.00">rdf:type</text>
</g>
<!-- openballpercentage -->
<g id="node39" class="node">
<title>openballpercentage</title>
<ellipse fill="none" stroke="black" cx="760.28" cy="-234" rx="93.68" ry="18"/>
<text text-anchor="middle" x="760.28" y="-230.3" font-family="Times,serif" font-size="14.00">agunits:unit:PERCENT</text>
</g>
<!-- percentballopened&#45;&gt;openballpercentage -->
<g id="edge18" class="edge">
<title>percentballopened&#45;&gt;openballpercentage</title>
<path fill="none" stroke="black" d="M488.99,-252.97C500.16,-251.92 511.52,-250.89 522.29,-250 567.66,-246.23 617.97,-242.74 660.53,-239.99"/>
<polygon fill="black" stroke="black" points="660.85,-243.47 670.61,-239.34 660.4,-236.49 660.85,-243.47"/>
<text text-anchor="middle" x="573.79" y="-253.8" font-family="Times,serif" font-size="14.00">qudt:unit</text>
</g>
<!-- percentballopenedValue -->
<g id="node40" class="node">
<title>percentballopenedValue</title>
<polygon fill="none" stroke="black" points="805.33,-172.54 805.33,-187.46 778.94,-198 741.62,-198 715.23,-187.46 715.23,-172.54 741.62,-162 778.94,-162 805.33,-172.54"/>
<text text-anchor="middle" x="760.28" y="-176.3" font-family="Times,serif" font-size="14.00">xsd:float</text>
</g>
<!-- percentballopened&#45;&gt;percentballopenedValue -->
<g id="edge17" class="edge">
<title>percentballopened&#45;&gt;percentballopenedValue</title>
<path fill="none" stroke="black" d="M452.86,-244.97C473.56,-237.54 499,-229.04 522.29,-223 584.27,-206.93 656.88,-194.7 705.24,-187.47"/>
<polygon fill="black" stroke="black" points="705.8,-190.92 715.18,-186 704.77,-184 705.8,-190.92"/>
<text text-anchor="middle" x="573.79" y="-226.8" font-family="Times,serif" font-size="14.00">qudt:value</text>
</g>
<!-- hvicolorType -->
<g id="node51" class="node">
<title>hvicolorType</title>
<ellipse fill="none" stroke="black" cx="760.28" cy="-126" rx="59.59" ry="18"/>
<text text-anchor="middle" x="760.28" y="-122.3" font-family="Times,serif" font-size="14.00">qudt:Quantity</text>
</g>
<!-- hvicolor&#45;&gt;hvicolorType -->
<g id="edge32" class="edge">
<title>hvicolor&#45;&gt;hvicolorType</title>
<path fill="none" stroke="black" d="M453.37,-102.31C512.99,-106.93 621.7,-115.35 692.18,-120.8"/>
<polygon fill="black" stroke="black" points="692.05,-124.3 702.29,-121.59 692.59,-117.33 692.05,-124.3"/>
<text text-anchor="middle" x="573.79" y="-117.8" font-family="Times,serif" font-size="14.00">rdf:type</text>
</g>
<!-- hvicolorcode -->
<g id="node52" class="node">
<title>hvicolorcode</title>
<ellipse fill="none" stroke="black" cx="760.28" cy="-72" rx="96.38" ry="18"/>
<text text-anchor="middle" x="760.28" y="-68.3" font-family="Times,serif" font-size="14.00">agunits:unit:UNITLESS</text>
</g>
<!-- hvicolor&#45;&gt;hvicolorcode -->
<g id="edge34" class="edge">
<title>hvicolor&#45;&gt;hvicolorcode</title>
<path fill="none" stroke="black" d="M453.28,-94.49C474.08,-92.37 499.48,-89.89 522.29,-88 566.81,-84.31 616.08,-80.87 658.12,-78.14"/>
<polygon fill="black" stroke="black" points="658.6,-81.62 668.36,-77.48 658.15,-74.63 658.6,-81.62"/>
<text text-anchor="middle" x="573.79" y="-91.8" font-family="Times,serif" font-size="14.00">qudt:unit</text>
</g>
<!-- hvicolorValue -->
<g id="node53" class="node">
<title>hvicolorValue</title>
<polygon fill="none" stroke="black" points="814.62,-10.54 814.62,-25.46 782.79,-36 737.77,-36 705.94,-25.46 705.94,-10.54 737.77,0 782.79,0 814.62,-10.54"/>
<text text-anchor="middle" x="760.28" y="-14.3" font-family="Times,serif" font-size="14.00">xsd:integer</text>
</g>
<!-- hvicolor&#45;&gt;hvicolorValue -->
<g id="edge33" class="edge">
<title>hvicolor&#45;&gt;hvicolorValue</title>
<path fill="none" stroke="black" d="M442.49,-86.74C464.62,-78.58 494.94,-68.09 522.29,-61 580.49,-45.91 648.06,-34.21 696.13,-26.84"/>
<polygon fill="black" stroke="black" points="696.72,-30.3 706.08,-25.34 695.67,-23.37 696.72,-30.3"/>
<text text-anchor="middle" x="573.79" y="-64.8" font-family="Times,serif" font-size="14.00">qudt:value</text>
</g>
</g>
</svg>
