<?xml version="1.0" encoding="UTF-8" standalone="no"?>
<!DOCTYPE svg PUBLIC "-//W3C//DTD SVG 1.1//EN"
 "http://www.w3.org/Graphics/SVG/1.1/DTD/svg11.dtd">
<!-- Generated by graphviz version 6.0.1 (20220911.1526)
 -->
<!-- Pages: 1 -->
<svg width="2329pt" height="1729pt"
 viewBox="0.00 0.00 2328.89 1729.00" xmlns="http://www.w3.org/2000/svg" xmlns:xlink="http://www.w3.org/1999/xlink">
<g id="graph0" class="graph" transform="scale(1 1) rotate(0) translate(4 1725)">
<polygon fill="white" stroke="none" points="-4,4 -4,-1725 2324.89,-1725 2324.89,4 -4,4"/>
<!-- pathology -->
<g id="node1" class="node">
<title>pathology</title>
<polygon fill="none" stroke="black" points="379.26,-978 314.24,-960 379.26,-942 444.28,-960 379.26,-978"/>
<text text-anchor="middle" x="379.26" y="-956.3" font-family="Times,serif" font-size="14.00">pathology</text>
</g>
<!-- localization -->
<g id="node2" class="node">
<title>localization</title>
<polygon fill="none" stroke="black" points="860.71,-944 787.14,-926 860.71,-908 934.27,-926 860.71,-944"/>
<text text-anchor="middle" x="860.71" y="-922.3" font-family="Times,serif" font-size="14.00">localization</text>
</g>
<!-- pathology&#45;&gt;localization -->
<g id="edge3" class="edge">
<title>pathology&#45;&gt;localization</title>
<path fill="none" stroke="black" d="M416.55,-952.31C430.82,-949.57 447.38,-946.74 462.52,-945 571.7,-932.49 698.68,-928.19 779.11,-926.73"/>
<polygon fill="black" stroke="black" points="779.23,-930.23 789.17,-926.56 779.11,-923.23 779.23,-930.23"/>
<text text-anchor="middle" x="578.52" y="-948.8" font-family="Times,serif" font-size="14.00">wdt:P927 (anatomical location)</text>
</g>
<!-- idh12status -->
<g id="node3" class="node">
<title>idh12status</title>
<polygon fill="none" stroke="black" points="860.71,-856 779.1,-838 860.71,-820 942.32,-838 860.71,-856"/>
<text text-anchor="middle" x="860.71" y="-834.3" font-family="Times,serif" font-size="14.00">idh 1/2 status</text>
</g>
<!-- pathology&#45;&gt;idh12status -->
<g id="edge8" class="edge">
<title>pathology&#45;&gt;idh12status</title>
<path fill="none" stroke="black" d="M397.57,-946.86C413.58,-935.37 438.46,-919.13 462.52,-910 523.21,-886.97 704.05,-859.57 799.37,-846.18"/>
<polygon fill="black" stroke="black" points="800.02,-849.62 809.44,-844.77 799.05,-842.69 800.02,-849.62"/>
<text text-anchor="middle" x="578.52" y="-913.8" font-family="Times,serif" font-size="14.00">obo:MICRO_0001469 (has measurement)</text>
</g>
<!-- mgmtstatus -->
<g id="node4" class="node">
<title>mgmtstatus</title>
<polygon fill="none" stroke="black" points="860.71,-746 773.57,-728 860.71,-710 947.85,-728 860.71,-746"/>
<text text-anchor="middle" x="860.71" y="-724.3" font-family="Times,serif" font-size="14.00">MGMT status</text>
</g>
<!-- pathology&#45;&gt;mgmtstatus -->
<g id="edge11" class="edge">
<title>pathology&#45;&gt;mgmtstatus</title>
<path fill="none" stroke="black" d="M386.93,-943.9C398.41,-918.3 424.38,-868.61 462.52,-843 550.33,-784.04 593.22,-820.43 694.52,-790 738.98,-776.64 788.68,-757.38 821.85,-743.87"/>
<polygon fill="black" stroke="black" points="823.24,-747.09 831.16,-740.05 820.58,-740.61 823.24,-747.09"/>
<text text-anchor="middle" x="578.52" y="-846.8" font-family="Times,serif" font-size="14.00">obo:MICRO_0001469 (has measurement)</text>
</g>
<!-- adjTMZ -->
<g id="node5" class="node">
<title>adjTMZ</title>
<polygon fill="none" stroke="black" points="860.71,-582 763.35,-564 860.71,-546 958.07,-564 860.71,-582"/>
<text text-anchor="middle" x="860.71" y="-560.3" font-family="Times,serif" font-size="14.00">Cycles adj TMZ</text>
</g>
<!-- pathology&#45;&gt;adjTMZ -->
<g id="edge14" class="edge">
<title>pathology&#45;&gt;adjTMZ</title>
<path fill="none" stroke="black" d="M382.95,-942.98C389.63,-906.29 410.36,-819.22 462.52,-771 542.61,-696.96 598.48,-742.69 694.52,-691 749.49,-661.41 805.42,-614 836.03,-586.24"/>
<polygon fill="black" stroke="black" points="838.6,-588.63 843.61,-579.3 833.87,-583.47 838.6,-588.63"/>
<text text-anchor="middle" x="578.52" y="-774.8" font-family="Times,serif" font-size="14.00">obo:BFO_0000185 (has history)</text>
</g>
<!-- dosesbevacizumab -->
<g id="node6" class="node">
<title>dosesbevacizumab</title>
<polygon fill="none" stroke="black" points="860.71,-439 748.43,-421 860.71,-403 972.98,-421 860.71,-439"/>
<text text-anchor="middle" x="860.71" y="-417.3" font-family="Times,serif" font-size="14.00">doses bevacizumab</text>
</g>
<!-- pathology&#45;&gt;dosesbevacizumab -->
<g id="edge19" class="edge">
<title>pathology&#45;&gt;dosesbevacizumab</title>
<path fill="none" stroke="black" d="M380.95,-942.14C383.69,-893.72 397.1,-757.8 462.52,-672 535.68,-576.05 592.73,-595.79 694.52,-531 742.34,-500.56 796.93,-463.81 829.83,-441.44"/>
<polygon fill="black" stroke="black" points="832.21,-444.05 838.51,-435.52 828.27,-438.26 832.21,-444.05"/>
<text text-anchor="middle" x="578.52" y="-675.8" font-family="Times,serif" font-size="14.00">obo:BFO_0000185 (has history)</text>
</g>
<!-- bestresponse -->
<g id="node7" class="node">
<title>bestresponse</title>
<polygon fill="none" stroke="black" points="860.71,-312 776.08,-294 860.71,-276 945.33,-294 860.71,-312"/>
<text text-anchor="middle" x="860.71" y="-290.3" font-family="Times,serif" font-size="14.00">Best response</text>
</g>
<!-- pathology&#45;&gt;bestresponse -->
<g id="edge23" class="edge">
<title>pathology&#45;&gt;bestresponse</title>
<path fill="none" stroke="black" d="M381.51,-942.16C387.01,-867.81 411.15,-583.17 462.52,-512 549.65,-391.29 725.03,-329.91 810.56,-306.11"/>
<polygon fill="black" stroke="black" points="811.56,-309.47 820.28,-303.46 809.71,-302.72 811.56,-309.47"/>
<text text-anchor="middle" x="578.52" y="-515.8" font-family="Times,serif" font-size="14.00">obo:NCIT_R108 (Disease has finding)</text>
</g>
<!-- pseudoprogression -->
<g id="node8" class="node">
<title>pseudoprogression</title>
<polygon fill="none" stroke="black" points="860.71,-220 743.74,-202 860.71,-184 977.67,-202 860.71,-220"/>
<text text-anchor="middle" x="860.71" y="-198.3" font-family="Times,serif" font-size="14.00">Pseudo&#45;progression </text>
</g>
<!-- pathology&#45;&gt;pseudoprogression -->
<g id="edge28" class="edge">
<title>pathology&#45;&gt;pseudoprogression</title>
<path fill="none" stroke="black" d="M380.12,-942.24C379.72,-850.12 382.36,-427.45 462.52,-331 533.76,-245.28 662.68,-215.99 754.31,-206.27"/>
<polygon fill="black" stroke="black" points="754.85,-209.74 764.45,-205.26 754.15,-202.77 754.85,-209.74"/>
<text text-anchor="middle" x="578.52" y="-334.8" font-family="Times,serif" font-size="14.00">obo:NCIT_R108 (Disease has finding)</text>
</g>
<!-- progression -->
<g id="node9" class="node">
<title>progression</title>
<polygon fill="none" stroke="black" points="860.71,-1666 787.14,-1648 860.71,-1630 934.27,-1648 860.71,-1666"/>
<text text-anchor="middle" x="860.71" y="-1644.3" font-family="Times,serif" font-size="14.00">Progression</text>
</g>
<!-- pathology&#45;&gt;progression -->
<g id="edge29" class="edge">
<title>pathology&#45;&gt;progression</title>
<path fill="none" stroke="black" d="M380.19,-977.84C380.19,-1066.62 384.67,-1460.1 462.52,-1547 546.06,-1640.26 702.42,-1653.03 792.02,-1651.9"/>
<polygon fill="black" stroke="black" points="792.14,-1655.4 802.07,-1651.71 792.01,-1648.4 792.14,-1655.4"/>
<text text-anchor="middle" x="578.52" y="-1649.8" font-family="Times,serif" font-size="14.00">obo:NCIT_R108 (Disease has finding)</text>
</g>
<!-- œdema -->
<g id="node10" class="node">
<title>œdema</title>
<polygon fill="none" stroke="black" points="860.71,-1556 809.26,-1538 860.71,-1520 912.15,-1538 860.71,-1556"/>
<text text-anchor="middle" x="860.71" y="-1534.3" font-family="Times,serif" font-size="14.00">œdema</text>
</g>
<!-- pathology&#45;&gt;œdema -->
<g id="edge31" class="edge">
<title>pathology&#45;&gt;œdema</title>
<path fill="none" stroke="black" d="M380.98,-977.68C384.46,-1054 401.85,-1354.4 462.52,-1422 550.12,-1519.61 714.8,-1536.99 802.05,-1538.94"/>
<polygon fill="black" stroke="black" points="802.24,-1542.44 812.3,-1539.1 802.36,-1535.44 802.24,-1542.44"/>
<text text-anchor="middle" x="578.52" y="-1531.8" font-family="Times,serif" font-size="14.00">obo:NCIT_R108 (Disease has finding)</text>
</g>
<!-- osurv -->
<g id="node11" class="node">
<title>osurv</title>
<polygon fill="none" stroke="black" points="860.71,-1428 788.82,-1410 860.71,-1392 932.6,-1410 860.71,-1428"/>
<text text-anchor="middle" x="860.71" y="-1406.3" font-family="Times,serif" font-size="14.00">months OS</text>
</g>
<!-- pathology&#45;&gt;osurv -->
<g id="edge35" class="edge">
<title>pathology&#45;&gt;osurv</title>
<path fill="none" stroke="black" d="M382.06,-977.37C388.95,-1040.56 415.64,-1256.97 462.52,-1305 548.02,-1392.61 697.41,-1409.94 786.59,-1411.85"/>
<polygon fill="black" stroke="black" points="786.57,-1415.35 796.62,-1412.01 786.68,-1408.35 786.57,-1415.35"/>
<text text-anchor="middle" x="578.52" y="-1406.8" font-family="Times,serif" font-size="14.00">obo:RO_0000086 (has quality)</text>
</g>
<!-- pfs -->
<g id="node12" class="node">
<title>pfs</title>
<polygon fill="none" stroke="black" points="860.71,-1309 784.63,-1291 860.71,-1273 936.79,-1291 860.71,-1309"/>
<text text-anchor="middle" x="860.71" y="-1287.3" font-family="Times,serif" font-size="14.00">months PFS</text>
</g>
<!-- pathology&#45;&gt;pfs -->
<g id="edge36" class="edge">
<title>pathology&#45;&gt;pfs</title>
<path fill="none" stroke="black" d="M380.92,-977.59C383.55,-1021.46 396.7,-1136.49 462.52,-1196 551.68,-1276.61 696.95,-1292.12 784.9,-1293.4"/>
<polygon fill="black" stroke="black" points="785.04,-1296.9 795.07,-1293.49 785.1,-1289.9 785.04,-1296.9"/>
<text text-anchor="middle" x="578.52" y="-1289.8" font-family="Times,serif" font-size="14.00">obo:RO_0000086 (has quality)</text>
</g>
<!-- steroidPreV1 -->
<g id="node15" class="node">
<title>steroidPreV1</title>
<ellipse fill="black" stroke="black" cx="860.71" cy="-1173" rx="1.8" ry="1.8"/>
</g>
<!-- pathology&#45;&gt;steroidPreV1 -->
<g id="edge49" class="edge">
<title>pathology&#45;&gt;steroidPreV1</title>
<path fill="none" stroke="black" d="M384.46,-977.04C393.16,-1008.52 416.35,-1075.53 462.52,-1108 590.49,-1197.99 798.44,-1180.29 848.57,-1174.44"/>
<polygon fill="black" stroke="black" points="849.1,-1177.9 858.58,-1173.16 848.22,-1170.95 849.1,-1177.9"/>
<text text-anchor="middle" x="578.52" y="-1180.8" font-family="Times,serif" font-size="14.00">obo:BFO_0000185 (has history)</text>
</g>
<!-- steroidAfterV1 -->
<g id="node17" class="node">
<title>steroidAfterV1</title>
<ellipse fill="black" stroke="black" cx="860.71" cy="-1077" rx="1.8" ry="1.8"/>
</g>
<!-- pathology&#45;&gt;steroidAfterV1 -->
<g id="edge56" class="edge">
<title>pathology&#45;&gt;steroidAfterV1</title>
<path fill="none" stroke="black" d="M389.76,-975.19C403.21,-995.18 429.84,-1029.57 462.52,-1045 601.99,-1110.84 799.76,-1086.28 848.52,-1078.83"/>
<polygon fill="black" stroke="black" points="849.33,-1082.25 858.64,-1077.19 848.21,-1075.34 849.33,-1082.25"/>
<text text-anchor="middle" x="578.52" y="-1092.8" font-family="Times,serif" font-size="14.00">obo:BFO_0000185 (has history)</text>
</g>
<!-- diseases -->
<g id="node46" class="node">
<title>diseases</title>
<polygon fill="none" stroke="black" points="745.21,-1018 745.21,-1054 976.21,-1054 976.21,-1018 745.21,-1018"/>
<text text-anchor="middle" x="821.21" y="-1032.3" font-family="Times,serif" font-size="14.00">obo:DOID_3068 (GBM)</text>
<polyline fill="none" stroke="black" points="897.21,-1018 897.21,-1054"/>
<text text-anchor="middle" x="936.71" y="-1032.3" font-family="Times,serif" font-size="14.00">(tbd) (AIII)</text>
</g>
<!-- pathology&#45;&gt;diseases -->
<g id="edge2" class="edge">
<title>pathology&#45;&gt;diseases</title>
<path fill="none" stroke="black" d="M404.2,-971.23C420.33,-978.31 442.28,-987.03 462.52,-992 552.17,-1014 655.93,-1025.02 734.91,-1030.53"/>
<polygon fill="black" stroke="black" points="734.69,-1034.02 744.91,-1031.2 735.17,-1027.04 734.69,-1034.02"/>
<text text-anchor="middle" x="578.52" y="-1029.8" font-family="Times,serif" font-size="14.00">rdf:type</text>
</g>
<!-- steroidUseAfterV1 -->
<g id="node56" class="node">
<title>steroidUseAfterV1</title>
<polygon fill="none" stroke="black" points="801.21,-963 801.21,-999 920.21,-999 920.21,-963 801.21,-963"/>
<text text-anchor="middle" x="860.71" y="-977.3" font-family="Times,serif" font-size="14.00">steroidUseAfterV1</text>
</g>
<!-- pathology&#45;&gt;steroidUseAfterV1 -->
<g id="edge54" class="edge">
<title>pathology&#45;&gt;steroidUseAfterV1</title>
<path fill="none" stroke="black" d="M435.73,-962.43C523.72,-966.28 695.13,-973.79 790.85,-977.98"/>
<polygon fill="black" stroke="black" points="790.86,-981.49 801.01,-978.43 791.17,-974.49 790.86,-981.49"/>
<text text-anchor="middle" x="578.52" y="-976.8" font-family="Times,serif" font-size="14.00">obo:BFO_0000185 (has history)</text>
</g>
<!-- NCIT_C13717 -->
<g id="node34" class="node">
<title>NCIT_C13717</title>
<ellipse fill="none" stroke="black" cx="1706.89" cy="-1003" rx="137.28" ry="18"/>
<text text-anchor="middle" x="1706.89" y="-999.3" font-family="Times,serif" font-size="14.00">obo:NICT_C13717 (Anatomic site)</text>
</g>
<!-- localization&#45;&gt;NCIT_C13717 -->
<g id="edge4" class="edge">
<title>localization&#45;&gt;NCIT_C13717</title>
<path fill="none" stroke="black" d="M915.82,-930.57C944.38,-934.38 979.51,-941.34 1008.89,-954 1017.96,-957.9 1017.59,-963.72 1026.89,-967 1217.49,-1034.26 1456.86,-1027.65 1594.51,-1015.9"/>
<polygon fill="black" stroke="black" points="1595,-1019.37 1604.65,-1015.01 1594.38,-1012.4 1595,-1019.37"/>
<text text-anchor="middle" x="1125.39" y="-1012.8" font-family="Times,serif" font-size="14.00">rdf:type</text>
</g>
<!-- localizations -->
<g id="node47" class="node">
<title>localizations</title>
<polygon fill="none" stroke="black" points="1422.89,-930 1422.89,-966 1990.89,-966 1990.89,-930 1422.89,-930"/>
<text text-anchor="middle" x="1516.89" y="-944.3" font-family="Times,serif" font-size="14.00">obo:NCIT_C12354 (parietal R)</text>
<polyline fill="none" stroke="black" points="1610.89,-930 1610.89,-966"/>
<text text-anchor="middle" x="1709.39" y="-944.3" font-family="Times,serif" font-size="14.00">obo:NCIT_C12353 (temporal D)</text>
<polyline fill="none" stroke="black" points="1807.89,-930 1807.89,-966"/>
<text text-anchor="middle" x="1899.39" y="-944.3" font-family="Times,serif" font-size="14.00">obo:NCIT_C12352 (frontal R)</text>
</g>
<!-- localization&#45;&gt;localizations -->
<g id="edge5" class="edge">
<title>localization&#45;&gt;localizations</title>
<path fill="none" stroke="black" d="M910.41,-931.85C943.26,-935.52 987.62,-939.93 1026.89,-942 1153.28,-948.67 1293.07,-950.8 1412.8,-951.02"/>
<polygon fill="black" stroke="black" points="1412.85,-954.52 1422.85,-951.04 1412.86,-947.52 1412.85,-954.52"/>
<text text-anchor="middle" x="1125.39" y="-951.8" font-family="Times,serif" font-size="14.00">rdf:value</text>
</g>
<!-- localization&#45;&gt;localizations -->
<g id="edge6" class="edge">
<title>localization&#45;&gt;localizations</title>
<path fill="none" stroke="black" d="M928.41,-924.51C958.5,-923.91 994.48,-923.29 1026.89,-923 1114.45,-922.21 1136.37,-920.73 1223.89,-923 1284.89,-924.58 1350.19,-927.29 1412.4,-930.35"/>
<polygon fill="black" stroke="black" points="1412.6,-933.86 1422.76,-930.86 1412.95,-926.87 1412.6,-933.86"/>
<text text-anchor="middle" x="1125.39" y="-926.8" font-family="Times,serif" font-size="14.00">rdf:type</text>
</g>
<!-- orientations -->
<g id="node48" class="node">
<title>orientations</title>
<polygon fill="none" stroke="black" points="1543.39,-875 1543.39,-911 1870.39,-911 1870.39,-875 1543.39,-875"/>
<text text-anchor="middle" x="1623.39" y="-889.3" font-family="Times,serif" font-size="14.00">obo:NCIT_C25228 (right)</text>
<polyline fill="none" stroke="black" points="1703.39,-875 1703.39,-911"/>
<text text-anchor="middle" x="1786.89" y="-889.3" font-family="Times,serif" font-size="14.00">obo:NCIT_C45874 (dorsal)</text>
</g>
<!-- localization&#45;&gt;orientations -->
<g id="edge7" class="edge">
<title>localization&#45;&gt;orientations</title>
<path fill="none" stroke="black" d="M903.29,-918.42C936.59,-912.72 984.57,-905.34 1026.89,-902 1198.74,-888.44 1395.78,-887.43 1533.19,-889.06"/>
<polygon fill="black" stroke="black" points="1533.35,-892.56 1543.39,-889.19 1533.43,-885.57 1533.35,-892.56"/>
<text text-anchor="middle" x="1125.39" y="-905.8" font-family="Times,serif" font-size="14.00">obo:NCIT_A4 (Qualifier applies to)</text>
</g>
<!-- NCIT_C157185 -->
<g id="node19" class="node">
<title>NCIT_C157185</title>
<ellipse fill="none" stroke="black" cx="1706.89" cy="-838" rx="202.26" ry="18"/>
<text text-anchor="middle" x="1706.89" y="-834.3" font-family="Times,serif" font-size="14.00">obo:NCIT_C157185 (IDH1/IDH2 Mutation Analysis)</text>
</g>
<!-- idh12status&#45;&gt;NCIT_C157185 -->
<g id="edge9" class="edge">
<title>idh12status&#45;&gt;NCIT_C157185</title>
<path fill="none" stroke="black" d="M942.65,-838C1068.61,-838 1315.64,-838 1494.63,-838"/>
<polygon fill="black" stroke="black" points="1494.7,-841.5 1504.7,-838 1494.7,-834.5 1494.7,-841.5"/>
<text text-anchor="middle" x="1125.39" y="-841.8" font-family="Times,serif" font-size="14.00">rdf:type</text>
</g>
<!-- wtmut -->
<g id="node49" class="node">
<title>wtmut</title>
<polygon fill="none" stroke="black" points="1505.39,-765 1505.39,-801 1908.39,-801 1908.39,-765 1505.39,-765"/>
<text text-anchor="middle" x="1599.39" y="-779.3" font-family="Times,serif" font-size="14.00">obo:NCIT_C62195 (Wild type)</text>
<polyline fill="none" stroke="black" points="1693.39,-765 1693.39,-801"/>
<text text-anchor="middle" x="1800.89" y="-779.3" font-family="Times,serif" font-size="14.00">obo:NCIT_C18093 (Gene mutation)</text>
</g>
<!-- idh12status&#45;&gt;wtmut -->
<g id="edge10" class="edge">
<title>idh12status&#45;&gt;wtmut</title>
<path fill="none" stroke="black" d="M912.6,-831.33C945.22,-827.25 988.49,-822.22 1026.89,-819 1183.54,-805.85 1360.95,-796.64 1495.13,-790.83"/>
<polygon fill="black" stroke="black" points="1495.29,-794.33 1505.13,-790.4 1494.98,-787.33 1495.29,-794.33"/>
<text text-anchor="middle" x="1125.39" y="-822.8" font-family="Times,serif" font-size="14.00">rdf:value</text>
</g>
<!-- NCIT_C79101 -->
<g id="node20" class="node">
<title>NCIT_C79101</title>
<ellipse fill="none" stroke="black" cx="1706.89" cy="-728" rx="184.67" ry="18"/>
<text text-anchor="middle" x="1706.89" y="-724.3" font-family="Times,serif" font-size="14.00">obo:NCIT_C79101 (MGMT Methylation Assay)</text>
</g>
<!-- mgmtstatus&#45;&gt;NCIT_C79101 -->
<g id="edge12" class="edge">
<title>mgmtstatus&#45;&gt;NCIT_C79101</title>
<path fill="none" stroke="black" d="M948.08,-728C1079.79,-728 1334.21,-728 1511.76,-728"/>
<polygon fill="black" stroke="black" points="1512.01,-731.5 1522.01,-728 1512.01,-724.5 1512.01,-731.5"/>
<text text-anchor="middle" x="1125.39" y="-731.8" font-family="Times,serif" font-size="14.00">rdf:type</text>
</g>
<!-- meth -->
<g id="node50" class="node">
<title>meth</title>
<polygon fill="none" stroke="black" points="1359.39,-655 1359.39,-691 2054.39,-691 2054.39,-655 1359.39,-655"/>
<text text-anchor="middle" x="1530.39" y="-669.3" font-family="Times,serif" font-size="14.00">obo:NCIT_C153562 (MGMT Gene Promoter Methylation)</text>
<polyline fill="none" stroke="black" points="1701.39,-655 1701.39,-691"/>
<text text-anchor="middle" x="1877.89" y="-669.3" font-family="Times,serif" font-size="14.00">obo:NCIT_C132892 (Unmethylated MGMT Gene Promoter)</text>
</g>
<!-- mgmtstatus&#45;&gt;meth -->
<g id="edge13" class="edge">
<title>mgmtstatus&#45;&gt;meth</title>
<path fill="none" stroke="black" d="M914.44,-721.1C946.84,-717.06 989.21,-712.16 1026.89,-709 1131.45,-700.22 1245.25,-693.2 1349.28,-687.77"/>
<polygon fill="black" stroke="black" points="1349.51,-691.27 1359.32,-687.25 1349.15,-684.28 1349.51,-691.27"/>
<text text-anchor="middle" x="1125.39" y="-712.8" font-family="Times,serif" font-size="14.00">rdf:value</text>
</g>
<!-- NCIT_C1244 -->
<g id="node21" class="node">
<title>NCIT_C1244</title>
<ellipse fill="none" stroke="black" cx="1706.89" cy="-510" rx="136.48" ry="18"/>
<text text-anchor="middle" x="1706.89" y="-506.3" font-family="Times,serif" font-size="14.00">obo:NCIT_C1244 (Temozolomide)</text>
</g>
<!-- adjTMZ&#45;&gt;NCIT_C1244 -->
<g id="edge16" class="edge">
<title>adjTMZ&#45;&gt;NCIT_C1244</title>
<path fill="none" stroke="black" d="M918.19,-556.61C950.06,-552.67 990.65,-548.02 1026.89,-545 1212.23,-529.58 1426.63,-519.88 1564.12,-514.71"/>
<polygon fill="black" stroke="black" points="1564.43,-518.2 1574.29,-514.33 1564.17,-511.2 1564.43,-518.2"/>
<text text-anchor="middle" x="1125.39" y="-548.8" font-family="Times,serif" font-size="14.00">rdf:type</text>
</g>
<!-- NCIT_C2140 -->
<g id="node22" class="node">
<title>NCIT_C2140</title>
<ellipse fill="none" stroke="black" cx="1706.89" cy="-618" rx="118.08" ry="18"/>
<text text-anchor="middle" x="1706.89" y="-614.3" font-family="Times,serif" font-size="14.00">obo:NCIT_C2140 (Adjuvant )</text>
</g>
<!-- adjTMZ&#45;&gt;NCIT_C2140 -->
<g id="edge18" class="edge">
<title>adjTMZ&#45;&gt;NCIT_C2140</title>
<path fill="none" stroke="black" d="M918.19,-571.39C950.06,-575.33 990.65,-579.98 1026.89,-583 1219.98,-599.06 1444.6,-608.92 1580.94,-613.92"/>
<polygon fill="black" stroke="black" points="1580.89,-617.42 1591.01,-614.29 1581.15,-610.42 1580.89,-617.42"/>
<text text-anchor="middle" x="1125.39" y="-599.8" font-family="Times,serif" font-size="14.00">obo:RO_0000086 (has quality)</text>
</g>
<!-- NCIT_C25472 -->
<g id="node23" class="node">
<title>NCIT_C25472</title>
<ellipse fill="none" stroke="black" cx="1706.89" cy="-456" rx="107.78" ry="18"/>
<text text-anchor="middle" x="1706.89" y="-452.3" font-family="Times,serif" font-size="14.00">obo:NCIT_C25472 (Cycle)</text>
</g>
<!-- adjTMZ&#45;&gt;NCIT_C25472 -->
<g id="edge17" class="edge">
<title>adjTMZ&#45;&gt;NCIT_C25472</title>
<path fill="none" stroke="black" d="M893.86,-552.08C926.82,-540.28 979.8,-522.51 1026.89,-512 1220.75,-468.75 1452.44,-458.14 1588.92,-455.97"/>
<polygon fill="black" stroke="black" points="1589.04,-459.46 1598.98,-455.82 1588.93,-452.46 1589.04,-459.46"/>
<text text-anchor="middle" x="1125.39" y="-515.8" font-family="Times,serif" font-size="14.00">sio:SIO_000221 (has unit)</text>
</g>
<!-- Cycles adj TMZ -->
<g id="node39" class="node">
<title>Cycles adj TMZ</title>
<polygon fill="none" stroke="black" points="1761.23,-556.54 1761.23,-571.46 1729.4,-582 1684.39,-582 1652.56,-571.46 1652.56,-556.54 1684.39,-546 1729.4,-546 1761.23,-556.54"/>
<text text-anchor="middle" x="1706.89" y="-560.3" font-family="Times,serif" font-size="14.00">xsd:integer</text>
</g>
<!-- adjTMZ&#45;&gt;Cycles adj TMZ -->
<g id="edge15" class="edge">
<title>adjTMZ&#45;&gt;Cycles adj TMZ</title>
<path fill="none" stroke="black" d="M958.13,-564C1132.51,-564 1495.77,-564 1642.44,-564"/>
<polygon fill="black" stroke="black" points="1642.62,-567.5 1652.62,-564 1642.62,-560.5 1642.62,-567.5"/>
<text text-anchor="middle" x="1125.39" y="-567.8" font-family="Times,serif" font-size="14.00">rdf:value</text>
</g>
<!-- dosesbevacizumab&#45;&gt;NCIT_C25472 -->
<g id="edge22" class="edge">
<title>dosesbevacizumab&#45;&gt;NCIT_C25472</title>
<path fill="none" stroke="black" d="M950.45,-424.68C1104.65,-431.07 1421.79,-444.22 1591.99,-451.28"/>
<polygon fill="black" stroke="black" points="1591.85,-454.77 1601.98,-451.69 1592.14,-447.78 1591.85,-454.77"/>
<text text-anchor="middle" x="1125.39" y="-438.8" font-family="Times,serif" font-size="14.00">sio:SIO_000221 (has unit)</text>
</g>
<!-- NCIT_C2039 -->
<g id="node24" class="node">
<title>NCIT_C2039</title>
<ellipse fill="none" stroke="black" cx="1706.89" cy="-402" rx="131.08" ry="18"/>
<text text-anchor="middle" x="1706.89" y="-398.3" font-family="Times,serif" font-size="14.00">obo:NCIT_C2039 (Bevacizumab)</text>
</g>
<!-- dosesbevacizumab&#45;&gt;NCIT_C2039 -->
<g id="edge20" class="edge">
<title>dosesbevacizumab&#45;&gt;NCIT_C2039</title>
<path fill="none" stroke="black" d="M922.38,-412.82C953.55,-409.01 992.18,-404.91 1026.89,-403 1214.21,-392.69 1431.04,-394.81 1568.29,-397.89"/>
<polygon fill="black" stroke="black" points="1568.37,-401.39 1578.45,-398.12 1568.53,-394.4 1568.37,-401.39"/>
<text text-anchor="middle" x="1125.39" y="-406.8" font-family="Times,serif" font-size="14.00">rdf:type</text>
</g>
<!-- dosesbevacizumabvalue -->
<g id="node40" class="node">
<title>dosesbevacizumabvalue</title>
<polygon fill="none" stroke="black" points="1761.23,-340.54 1761.23,-355.46 1729.4,-366 1684.39,-366 1652.56,-355.46 1652.56,-340.54 1684.39,-330 1729.4,-330 1761.23,-340.54"/>
<text text-anchor="middle" x="1706.89" y="-344.3" font-family="Times,serif" font-size="14.00">xsd:integer</text>
</g>
<!-- dosesbevacizumab&#45;&gt;dosesbevacizumabvalue -->
<g id="edge21" class="edge">
<title>dosesbevacizumab&#45;&gt;dosesbevacizumabvalue</title>
<path fill="none" stroke="black" d="M897.96,-408.9C931.11,-398.42 981.71,-383.9 1026.89,-377 1251.3,-342.74 1521.91,-343.6 1642.53,-346.14"/>
<polygon fill="black" stroke="black" points="1642.61,-349.64 1652.69,-346.36 1642.77,-342.64 1642.61,-349.64"/>
<text text-anchor="middle" x="1125.39" y="-380.8" font-family="Times,serif" font-size="14.00">rdf.value</text>
</g>
<!-- NCIT_C50995 -->
<g id="node25" class="node">
<title>NCIT_C50995</title>
<ellipse fill="none" stroke="black" cx="1706.89" cy="-294" rx="150.57" ry="18"/>
<text text-anchor="middle" x="1706.89" y="-290.3" font-family="Times,serif" font-size="14.00">obo:NCIT_C50995 (Disease Response)</text>
</g>
<!-- bestresponse&#45;&gt;NCIT_C50995 -->
<g id="edge24" class="edge">
<title>bestresponse&#45;&gt;NCIT_C50995</title>
<path fill="none" stroke="black" d="M945.35,-294C1084.84,-294 1367.28,-294 1545.95,-294"/>
<polygon fill="black" stroke="black" points="1545.97,-297.5 1555.97,-294 1545.97,-290.5 1545.97,-297.5"/>
<text text-anchor="middle" x="1125.39" y="-297.8" font-family="Times,serif" font-size="14.00">rdf:type</text>
</g>
<!-- disresponses -->
<g id="node51" class="node">
<title>disresponses</title>
<polygon fill="none" stroke="black" points="1241.89,-221 1241.89,-257 2171.89,-257 2171.89,-221 1241.89,-221"/>
<text text-anchor="middle" x="1363.39" y="-235.3" font-family="Times,serif" font-size="14.00">Progressive Disease (obo:NCIT_C35571)</text>
<polyline fill="none" stroke="black" points="1484.89,-221 1484.89,-257"/>
<text text-anchor="middle" x="1591.89" y="-235.3" font-family="Times,serif" font-size="14.00">Stable Disease (obo:NCIT_C18213)</text>
<polyline fill="none" stroke="black" points="1698.89,-221 1698.89,-257"/>
<text text-anchor="middle" x="1814.39" y="-235.3" font-family="Times,serif" font-size="14.00">Partial Remission (obo:NCIT_C18058)</text>
<polyline fill="none" stroke="black" points="1929.89,-221 1929.89,-257"/>
<text text-anchor="middle" x="2050.89" y="-235.3" font-family="Times,serif" font-size="14.00">Complete Remission (obo:NCIT_C4870)</text>
</g>
<!-- bestresponse&#45;&gt;disresponses -->
<g id="edge25" class="edge">
<title>bestresponse&#45;&gt;disresponses</title>
<path fill="none" stroke="black" d="M913.7,-287.19C946.19,-283.14 988.92,-278.19 1026.89,-275 1108.42,-268.16 1195.58,-262.38 1279.33,-257.59"/>
<polygon fill="black" stroke="black" points="1279.74,-261.08 1289.53,-257.02 1279.34,-254.09 1279.74,-261.08"/>
<text text-anchor="middle" x="1125.39" y="-278.8" font-family="Times,serif" font-size="14.00">rdf:value</text>
</g>
<!-- NCIT_C98298 -->
<g id="node26" class="node">
<title>NCIT_C98298</title>
<ellipse fill="none" stroke="black" cx="1706.89" cy="-184" rx="153.27" ry="18"/>
<text text-anchor="middle" x="1706.89" y="-180.3" font-family="Times,serif" font-size="14.00">obo:NCIT_C98298 (Pseudoprogression)</text>
</g>
<!-- pseudoprogression&#45;&gt;NCIT_C98298 -->
<g id="edge26" class="edge">
<title>pseudoprogression&#45;&gt;NCIT_C98298</title>
<path fill="none" stroke="black" d="M963.96,-199.82C1108.68,-196.73 1374.65,-191.06 1545.71,-187.42"/>
<polygon fill="black" stroke="black" points="1545.9,-190.91 1555.82,-187.2 1545.75,-183.91 1545.9,-190.91"/>
<text text-anchor="middle" x="1125.39" y="-201.8" font-family="Times,serif" font-size="14.00">rdf:type</text>
</g>
<!-- pseudoprogressionvalue -->
<g id="node52" class="node">
<title>pseudoprogressionvalue</title>
<polygon fill="none" stroke="black" points="1663.39,-111 1663.39,-147 1750.39,-147 1750.39,-111 1663.39,-111"/>
<text text-anchor="middle" x="1684.39" y="-125.3" font-family="Times,serif" font-size="14.00">True</text>
<polyline fill="none" stroke="black" points="1705.39,-111 1705.39,-147"/>
<text text-anchor="middle" x="1727.89" y="-125.3" font-family="Times,serif" font-size="14.00">False</text>
</g>
<!-- pseudoprogression&#45;&gt;pseudoprogressionvalue -->
<g id="edge27" class="edge">
<title>pseudoprogression&#45;&gt;pseudoprogressionvalue</title>
<path fill="none" stroke="black" d="M914.75,-192.24C947.07,-186.57 989.26,-179.64 1026.89,-175 1259.15,-146.34 1538.47,-134.49 1653,-130.6"/>
<polygon fill="black" stroke="black" points="1653.36,-134.09 1663.23,-130.26 1653.12,-127.09 1653.36,-134.09"/>
<text text-anchor="middle" x="1125.39" y="-178.8" font-family="Times,serif" font-size="14.00">rdf:value</text>
</g>
<!-- NCIT_C17747 -->
<g id="node27" class="node">
<title>NCIT_C17747</title>
<ellipse fill="none" stroke="black" cx="1706.89" cy="-1703" rx="157.87" ry="18"/>
<text text-anchor="middle" x="1706.89" y="-1699.3" font-family="Times,serif" font-size="14.00">obo:NCIT_C17747 (Disease progression)</text>
</g>
<!-- progression&#45;&gt;NCIT_C17747 -->
<g id="edge30" class="edge">
<title>progression&#45;&gt;NCIT_C17747</title>
<path fill="none" stroke="black" d="M908.98,-1654.22C941.97,-1658.37 987.05,-1663.66 1026.89,-1667 1204.06,-1681.87 1407.77,-1691.7 1545.48,-1697.28"/>
<polygon fill="black" stroke="black" points="1545.56,-1700.79 1555.69,-1697.69 1545.84,-1693.79 1545.56,-1700.79"/>
<text text-anchor="middle" x="1125.39" y="-1683.8" font-family="Times,serif" font-size="14.00">rdf:type</text>
</g>
<!-- progressionvalue -->
<g id="node53" class="node">
<title>progressionvalue</title>
<polygon fill="none" stroke="black" points="1663.39,-1630 1663.39,-1666 1750.39,-1666 1750.39,-1630 1663.39,-1630"/>
<text text-anchor="middle" x="1684.39" y="-1644.3" font-family="Times,serif" font-size="14.00">True</text>
<polyline fill="none" stroke="black" points="1705.39,-1630 1705.39,-1666"/>
<text text-anchor="middle" x="1727.89" y="-1644.3" font-family="Times,serif" font-size="14.00">False</text>
</g>
<!-- progression&#45;&gt;progressionvalue -->
<g id="edge32" class="edge">
<title>progression&#45;&gt;progressionvalue</title>
<path fill="none" stroke="black" d="M934.41,-1648C1101.02,-1648 1507.22,-1648 1652.85,-1648"/>
<polygon fill="black" stroke="black" points="1653.29,-1651.5 1663.29,-1648 1653.29,-1644.5 1653.29,-1651.5"/>
<text text-anchor="middle" x="1125.39" y="-1651.8" font-family="Times,serif" font-size="14.00">rdf:value</text>
</g>
<!-- PATO_0001450 -->
<g id="node28" class="node">
<title>PATO_0001450</title>
<ellipse fill="none" stroke="black" cx="1706.89" cy="-1593" rx="129.18" ry="18"/>
<text text-anchor="middle" x="1706.89" y="-1589.3" font-family="Times,serif" font-size="14.00">obo:PATO_0001450 (edamatous)</text>
</g>
<!-- œdema&#45;&gt;PATO_0001450 -->
<g id="edge33" class="edge">
<title>œdema&#45;&gt;PATO_0001450</title>
<path fill="none" stroke="black" d="M898.38,-1542.87C931.82,-1547.16 982.59,-1553.28 1026.89,-1557 1215.39,-1572.82 1433.94,-1582.94 1571.07,-1588.3"/>
<polygon fill="black" stroke="black" points="1571.09,-1591.8 1581.21,-1588.69 1571.36,-1584.81 1571.09,-1591.8"/>
<text text-anchor="middle" x="1125.39" y="-1573.8" font-family="Times,serif" font-size="14.00">rdf:type</text>
</g>
<!-- œdemavalue -->
<g id="node54" class="node">
<title>œdemavalue</title>
<polygon fill="none" stroke="black" points="1663.39,-1520 1663.39,-1556 1750.39,-1556 1750.39,-1520 1663.39,-1520"/>
<text text-anchor="middle" x="1684.39" y="-1534.3" font-family="Times,serif" font-size="14.00">True</text>
<polyline fill="none" stroke="black" points="1705.39,-1520 1705.39,-1556"/>
<text text-anchor="middle" x="1727.89" y="-1534.3" font-family="Times,serif" font-size="14.00">False</text>
</g>
<!-- œdema&#45;&gt;œdemavalue -->
<g id="edge34" class="edge">
<title>œdema&#45;&gt;œdemavalue</title>
<path fill="none" stroke="black" d="M912.3,-1538C1061.82,-1538 1500.72,-1538 1653.08,-1538"/>
<polygon fill="black" stroke="black" points="1653.12,-1541.5 1663.12,-1538 1653.12,-1534.5 1653.12,-1541.5"/>
<text text-anchor="middle" x="1125.39" y="-1541.8" font-family="Times,serif" font-size="14.00">rdf:value</text>
</g>
<!-- NCIT_C125201 -->
<g id="node29" class="node">
<title>NCIT_C125201</title>
<ellipse fill="none" stroke="black" cx="1706.89" cy="-1483" rx="150.27" ry="18"/>
<text text-anchor="middle" x="1706.89" y="-1479.3" font-family="Times,serif" font-size="14.00">obo:NCIT_C125201 (Overall Survival)</text>
</g>
<!-- osurv&#45;&gt;NCIT_C125201 -->
<g id="edge37" class="edge">
<title>osurv&#45;&gt;NCIT_C125201</title>
<path fill="none" stroke="black" d="M903.7,-1417.36C937.02,-1423.02 984.84,-1430.74 1026.89,-1436 1206.77,-1458.5 1414.9,-1470.91 1552.82,-1477.25"/>
<polygon fill="black" stroke="black" points="1552.9,-1480.75 1563.04,-1477.71 1553.21,-1473.76 1552.9,-1480.75"/>
<text text-anchor="middle" x="1125.39" y="-1458.8" font-family="Times,serif" font-size="14.00">rdf:type</text>
</g>
<!-- NCIT_C29846 -->
<g id="node31" class="node">
<title>NCIT_C29846</title>
<ellipse fill="none" stroke="black" cx="1706.89" cy="-1375" rx="111.28" ry="18"/>
<text text-anchor="middle" x="1706.89" y="-1371.3" font-family="Times,serif" font-size="14.00">obo:NCIT_C29846 (Month)</text>
</g>
<!-- osurv&#45;&gt;NCIT_C29846 -->
<g id="edge41" class="edge">
<title>osurv&#45;&gt;NCIT_C29846</title>
<path fill="none" stroke="black" d="M911.52,-1404.68C944.27,-1401.38 988.09,-1397.33 1026.89,-1395 1222.42,-1383.25 1450.05,-1378.33 1585.82,-1376.32"/>
<polygon fill="black" stroke="black" points="1585.89,-1379.82 1595.84,-1376.18 1585.79,-1372.82 1585.89,-1379.82"/>
<text text-anchor="middle" x="1125.39" y="-1398.8" font-family="Times,serif" font-size="14.00">sio:SIO_000221 (has unit)</text>
</g>
<!-- osurvvalues -->
<g id="node41" class="node">
<title>osurvvalues</title>
<polygon fill="none" stroke="black" points="1761.23,-1421.54 1761.23,-1436.46 1729.4,-1447 1684.39,-1447 1652.56,-1436.46 1652.56,-1421.54 1684.39,-1411 1729.4,-1411 1761.23,-1421.54"/>
<text text-anchor="middle" x="1706.89" y="-1425.3" font-family="Times,serif" font-size="14.00">xsd:integer</text>
</g>
<!-- osurv&#45;&gt;osurvvalues -->
<g id="edge39" class="edge">
<title>osurv&#45;&gt;osurvvalues</title>
<path fill="none" stroke="black" d="M926.9,-1411.47C1084.73,-1415.02 1485.91,-1424.05 1642.2,-1427.57"/>
<polygon fill="black" stroke="black" points="1642.5,-1431.07 1652.58,-1427.8 1642.66,-1424.08 1642.5,-1431.07"/>
<text text-anchor="middle" x="1125.39" y="-1420.8" font-family="Times,serif" font-size="14.00">rdf:value</text>
</g>
<!-- NCIT_C28234 -->
<g id="node30" class="node">
<title>NCIT_C28234</title>
<ellipse fill="none" stroke="black" cx="1706.89" cy="-1321" rx="177.37" ry="18"/>
<text text-anchor="middle" x="1706.89" y="-1317.3" font-family="Times,serif" font-size="14.00">obo:NCIT_C28234 (Progression&#45;free Survival)</text>
</g>
<!-- pfs&#45;&gt;NCIT_C28234 -->
<g id="edge38" class="edge">
<title>pfs&#45;&gt;NCIT_C28234</title>
<path fill="none" stroke="black" d="M927.25,-1293.33C1055.06,-1297.87 1341.48,-1308.05 1529.02,-1314.71"/>
<polygon fill="black" stroke="black" points="1529.15,-1318.22 1539.27,-1315.08 1529.4,-1311.23 1529.15,-1318.22"/>
<text text-anchor="middle" x="1125.39" y="-1306.8" font-family="Times,serif" font-size="14.00">rdf:type</text>
</g>
<!-- pfs&#45;&gt;NCIT_C29846 -->
<g id="edge42" class="edge">
<title>pfs&#45;&gt;NCIT_C29846</title>
<path fill="none" stroke="black" d="M901.97,-1299.32C935.34,-1306.03 984.07,-1315.4 1026.89,-1322 1222.13,-1352.09 1451.73,-1365.48 1587.69,-1371.15"/>
<polygon fill="black" stroke="black" points="1587.58,-1374.65 1597.72,-1371.56 1587.87,-1367.65 1587.58,-1374.65"/>
<text text-anchor="middle" x="1125.39" y="-1348.8" font-family="Times,serif" font-size="14.00">sio:SIO_000221 (has unit)</text>
</g>
<!-- pfsvalues -->
<g id="node42" class="node">
<title>pfsvalues</title>
<polygon fill="none" stroke="black" points="1761.23,-1259.54 1761.23,-1274.46 1729.4,-1285 1684.39,-1285 1652.56,-1274.46 1652.56,-1259.54 1684.39,-1249 1729.4,-1249 1761.23,-1259.54"/>
<text text-anchor="middle" x="1706.89" y="-1263.3" font-family="Times,serif" font-size="14.00">xsd:integer</text>
</g>
<!-- pfs&#45;&gt;pfsvalues -->
<g id="edge40" class="edge">
<title>pfs&#45;&gt;pfsvalues</title>
<path fill="none" stroke="black" d="M915.59,-1285.91C947.85,-1283.07 989.68,-1279.76 1026.89,-1278 1253.18,-1267.27 1522.31,-1266.45 1642.48,-1266.71"/>
<polygon fill="black" stroke="black" points="1642.59,-1270.21 1652.6,-1266.73 1642.61,-1263.21 1642.59,-1270.21"/>
<text text-anchor="middle" x="1125.39" y="-1281.8" font-family="Times,serif" font-size="14.00">rdf:value</text>
</g>
<!-- lymphcounts -->
<g id="node13" class="node">
<title>lymphcounts</title>
<ellipse fill="black" stroke="black" cx="379.26" cy="-94" rx="1.8" ry="1.8"/>
</g>
<!-- lymphcountsTS -->
<g id="node14" class="node">
<title>lymphcountsTS</title>
<ellipse fill="black" stroke="black" cx="860.71" cy="-56" rx="1.8" ry="1.8"/>
</g>
<!-- lymphcounts&#45;&gt;lymphcountsTS -->
<g id="edge45" class="edge">
<title>lymphcounts&#45;&gt;lymphcountsTS</title>
<path fill="none" stroke="black" d="M381.06,-93.76C387.26,-91.89 428.26,-79.74 462.52,-75 614.32,-54.01 801.5,-55.14 848.57,-55.81"/>
<polygon fill="black" stroke="black" points="848.65,-59.31 858.71,-55.98 848.77,-52.31 848.65,-59.31"/>
<text text-anchor="middle" x="578.52" y="-78.8" font-family="Times,serif" font-size="14.00">obo:IAO_0000581 (has time stamp)</text>
</g>
<!-- EFO_0004587 -->
<g id="node32" class="node">
<title>EFO_0004587</title>
<ellipse fill="none" stroke="black" cx="860.71" cy="-18" rx="148.37" ry="18"/>
<text text-anchor="middle" x="860.71" y="-14.3" font-family="Times,serif" font-size="14.00">efo:EFO_0004587 (lymphocyte count)</text>
</g>
<!-- lymphcounts&#45;&gt;EFO_0004587 -->
<g id="edge44" class="edge">
<title>lymphcounts&#45;&gt;EFO_0004587</title>
<path fill="none" stroke="black" d="M380.98,-93.28C386.6,-87.74 424.05,-51.8 462.52,-39 547.49,-10.74 648.29,-5.72 727.09,-7.65"/>
<polygon fill="black" stroke="black" points="727.47,-11.16 737.56,-7.95 727.67,-4.17 727.47,-11.16"/>
<text text-anchor="middle" x="578.52" y="-42.8" font-family="Times,serif" font-size="14.00">rdf:type</text>
</g>
<!-- GperL -->
<g id="node36" class="node">
<title>GperL</title>
<polygon fill="none" stroke="black" points="887.71,-166 833.71,-166 833.71,-130 887.71,-130 887.71,-166"/>
<text text-anchor="middle" x="860.71" y="-144.3" font-family="Times,serif" font-size="14.00">G/L</text>
</g>
<!-- lymphcounts&#45;&gt;GperL -->
<g id="edge47" class="edge">
<title>lymphcounts&#45;&gt;GperL</title>
<path fill="none" stroke="black" d="M381.06,-94.23C387.27,-96.01 428.36,-107.58 462.52,-113 594.53,-133.96 753.36,-143.21 823.45,-146.49"/>
<polygon fill="black" stroke="black" points="823.38,-149.99 833.53,-146.95 823.7,-143 823.38,-149.99"/>
<text text-anchor="middle" x="578.52" y="-141.8" font-family="Times,serif" font-size="14.00">sio:SIO_000221 (has unit)</text>
</g>
<!-- lncvalue -->
<g id="node43" class="node">
<title>lncvalue</title>
<polygon fill="none" stroke="black" points="902.22,-86.54 902.22,-101.46 877.9,-112 843.51,-112 819.2,-101.46 819.2,-86.54 843.51,-76 877.9,-76 902.22,-86.54"/>
<text text-anchor="middle" x="860.71" y="-90.3" font-family="Times,serif" font-size="14.00">xsd:real</text>
</g>
<!-- lymphcounts&#45;&gt;lncvalue -->
<g id="edge48" class="edge">
<title>lymphcounts&#45;&gt;lncvalue</title>
<path fill="none" stroke="black" d="M381.64,-94C403.87,-94 689.76,-94 808.52,-94"/>
<polygon fill="black" stroke="black" points="808.8,-97.5 818.8,-94 808.8,-90.5 808.8,-97.5"/>
<text text-anchor="middle" x="578.52" y="-97.8" font-family="Times,serif" font-size="14.00">rdf:value</text>
</g>
<!-- lnV1 -->
<g id="node35" class="node">
<title>lnV1</title>
<polygon fill="none" stroke="black" points="1733.89,-74 1679.89,-74 1679.89,-38 1733.89,-38 1733.89,-74"/>
<text text-anchor="middle" x="1706.89" y="-52.3" font-family="Times,serif" font-size="14.00">V1</text>
</g>
<!-- lymphcountsTS&#45;&gt;lnV1 -->
<g id="edge46" class="edge">
<title>lymphcountsTS&#45;&gt;lnV1</title>
<path fill="none" stroke="black" d="M862.66,-56C890.32,-56 1511.67,-56 1669.63,-56"/>
<polygon fill="black" stroke="black" points="1669.77,-59.5 1679.77,-56 1669.77,-52.5 1669.77,-59.5"/>
<text text-anchor="middle" x="1125.39" y="-59.8" font-family="Times,serif" font-size="14.00">rdfs:label</text>
</g>
<!-- steroidPreV1TS -->
<g id="node16" class="node">
<title>steroidPreV1TS</title>
<ellipse fill="black" stroke="black" cx="1706.89" cy="-1175" rx="1.8" ry="1.8"/>
</g>
<!-- steroidPreV1&#45;&gt;steroidPreV1TS -->
<g id="edge50" class="edge">
<title>steroidPreV1&#45;&gt;steroidPreV1TS</title>
<path fill="none" stroke="black" d="M862.66,-1173C892.16,-1173.07 1597.13,-1174.74 1694.73,-1174.97"/>
<polygon fill="black" stroke="black" points="1694.97,-1178.47 1704.98,-1175 1694.99,-1171.47 1694.97,-1178.47"/>
<text text-anchor="middle" x="1125.39" y="-1176.8" font-family="Times,serif" font-size="14.00">has timestamp (obo:IAO_0000581)</text>
</g>
<!-- UO_0000022 -->
<g id="node33" class="node">
<title>UO_0000022</title>
<ellipse fill="none" stroke="black" cx="1706.89" cy="-1136" rx="126.18" ry="18"/>
<text text-anchor="middle" x="1706.89" y="-1132.3" font-family="Times,serif" font-size="14.00"> OBO:UO_0000022 (milligram)</text>
</g>
<!-- steroidPreV1&#45;&gt;UO_0000022 -->
<g id="edge52" class="edge">
<title>steroidPreV1&#45;&gt;UO_0000022</title>
<path fill="none" stroke="black" d="M862.75,-1172.84C873.07,-1171.31 957.78,-1158.88 1026.89,-1154 1215.1,-1140.71 1433.27,-1137 1570.44,-1136.09"/>
<polygon fill="black" stroke="black" points="1570.61,-1139.59 1580.59,-1136.02 1570.57,-1132.59 1570.61,-1139.59"/>
<text text-anchor="middle" x="1125.39" y="-1157.8" font-family="Times,serif" font-size="14.00">sio:SIO_000221 (has unit)</text>
</g>
<!-- steroidpreV1Dose -->
<g id="node44" class="node">
<title>steroidpreV1Dose</title>
<polygon fill="none" stroke="black" points="1761.23,-1205.54 1761.23,-1220.46 1729.4,-1231 1684.39,-1231 1652.56,-1220.46 1652.56,-1205.54 1684.39,-1195 1729.4,-1195 1761.23,-1205.54"/>
<text text-anchor="middle" x="1706.89" y="-1209.3" font-family="Times,serif" font-size="14.00">xsd:integer</text>
</g>
<!-- steroidPreV1&#45;&gt;steroidpreV1Dose -->
<g id="edge53" class="edge">
<title>steroidPreV1&#45;&gt;steroidpreV1Dose</title>
<path fill="none" stroke="black" d="M862.75,-1173.15C873.07,-1174.67 957.8,-1186.97 1026.89,-1192 1252.91,-1208.46 1522.17,-1212.04 1642.43,-1212.81"/>
<polygon fill="black" stroke="black" points="1642.54,-1216.31 1652.56,-1212.86 1642.58,-1209.31 1642.54,-1216.31"/>
<text text-anchor="middle" x="1125.39" y="-1205.8" font-family="Times,serif" font-size="14.00">rdf:value</text>
</g>
<!-- steroidpreV1Label -->
<g id="node37" class="node">
<title>steroidpreV1Label</title>
<polygon fill="none" stroke="black" points="2317.39,-1193 2263.39,-1193 2263.39,-1157 2317.39,-1157 2317.39,-1193"/>
<text text-anchor="middle" x="2290.39" y="-1171.3" font-family="Times,serif" font-size="14.00">pre V1</text>
</g>
<!-- steroidPreV1TS&#45;&gt;steroidpreV1Label -->
<g id="edge51" class="edge">
<title>steroidPreV1TS&#45;&gt;steroidpreV1Label</title>
<path fill="none" stroke="black" d="M1708.84,-1175C1730.79,-1175 2129.73,-1175 2253.25,-1175"/>
<polygon fill="black" stroke="black" points="2253.33,-1178.5 2263.33,-1175 2253.33,-1171.5 2253.33,-1178.5"/>
<text text-anchor="middle" x="2215.89" y="-1178.8" font-family="Times,serif" font-size="14.00">rdfs:label</text>
</g>
<!-- steroidAfterV1TS -->
<g id="node18" class="node">
<title>steroidAfterV1TS</title>
<ellipse fill="black" stroke="black" cx="1706.89" cy="-1041" rx="1.8" ry="1.8"/>
</g>
<!-- steroidAfterV1&#45;&gt;steroidAfterV1TS -->
<g id="edge55" class="edge">
<title>steroidAfterV1&#45;&gt;steroidAfterV1TS</title>
<path fill="none" stroke="black" d="M862.65,-1077C872,-1076.99 948.62,-1076.53 1008.89,-1064 1017.15,-1062.28 1018.59,-1059.47 1026.89,-1058 1162.69,-1034.01 1617.12,-1039.67 1694.61,-1040.82"/>
<polygon fill="black" stroke="black" points="1694.98,-1044.33 1705.03,-1040.99 1695.09,-1037.33 1694.98,-1044.33"/>
<text text-anchor="middle" x="1125.39" y="-1061.8" font-family="Times,serif" font-size="14.00">obo:IAO_0000581 (has timestamp)</text>
</g>
<!-- steroidAfterV1&#45;&gt;UO_0000022 -->
<g id="edge58" class="edge">
<title>steroidAfterV1&#45;&gt;UO_0000022</title>
<path fill="none" stroke="black" d="M862.75,-1077.12C873.09,-1078.35 957.94,-1088.32 1026.89,-1094 1218.38,-1109.77 1440.69,-1122.46 1577.33,-1129.61"/>
<polygon fill="black" stroke="black" points="1577.25,-1133.11 1587.42,-1130.14 1577.62,-1126.12 1577.25,-1133.11"/>
<text text-anchor="middle" x="1125.39" y="-1110.8" font-family="Times,serif" font-size="14.00">sio:SIO_000221 (has unit)</text>
</g>
<!-- steroidafterV1Dose -->
<g id="node45" class="node">
<title>steroidafterV1Dose</title>
<polygon fill="none" stroke="black" points="1761.23,-1071.54 1761.23,-1086.46 1729.4,-1097 1684.39,-1097 1652.56,-1086.46 1652.56,-1071.54 1684.39,-1061 1729.4,-1061 1761.23,-1071.54"/>
<text text-anchor="middle" x="1706.89" y="-1075.3" font-family="Times,serif" font-size="14.00">xsd:integer</text>
</g>
<!-- steroidAfterV1&#45;&gt;steroidafterV1Dose -->
<g id="edge59" class="edge">
<title>steroidAfterV1&#45;&gt;steroidafterV1Dose</title>
<path fill="none" stroke="black" d="M862.66,-1077C888.92,-1077.06 1450.48,-1078.39 1642.32,-1078.85"/>
<polygon fill="black" stroke="black" points="1642.52,-1082.35 1652.53,-1078.87 1642.53,-1075.35 1642.52,-1082.35"/>
<text text-anchor="middle" x="1125.39" y="-1080.8" font-family="Times,serif" font-size="14.00">rdf:value</text>
</g>
<!-- steroidAfterV1Label -->
<g id="node38" class="node">
<title>steroidAfterV1Label</title>
<polygon fill="none" stroke="black" points="2320.89,-1059 2259.89,-1059 2259.89,-1023 2320.89,-1023 2320.89,-1059"/>
<text text-anchor="middle" x="2290.39" y="-1037.3" font-family="Times,serif" font-size="14.00">after V1</text>
</g>
<!-- steroidAfterV1TS&#45;&gt;steroidAfterV1Label -->
<g id="edge57" class="edge">
<title>steroidAfterV1TS&#45;&gt;steroidAfterV1Label</title>
<path fill="none" stroke="black" d="M1708.84,-1041C1730.57,-1041 2121.6,-1041 2249.37,-1041"/>
<polygon fill="black" stroke="black" points="2249.51,-1044.5 2259.51,-1041 2249.51,-1037.5 2249.51,-1044.5"/>
<text text-anchor="middle" x="2215.89" y="-1044.8" font-family="Times,serif" font-size="14.00">rdfs:label</text>
</g>
<!-- subjectproperties -->
<g id="node55" class="node">
<title>subjectproperties</title>
<polygon fill="none" stroke="black" points="0,-489 0,-525 109,-525 109,-489 0,-489"/>
<text text-anchor="middle" x="54.5" y="-503.3" font-family="Times,serif" font-size="14.00">subjectproperties</text>
</g>
<!-- subjectproperties&#45;&gt;pathology -->
<g id="edge1" class="edge">
<title>subjectproperties&#45;&gt;pathology</title>
<path fill="none" stroke="black" d="M68.35,-525.04C118.93,-596.02 304.27,-856.15 361.39,-936.32"/>
<polygon fill="black" stroke="black" points="358.75,-938.65 367.41,-944.77 364.45,-934.59 358.75,-938.65"/>
<text text-anchor="middle" x="211.5" y="-841.8" font-family="Times,serif" font-size="14.00">schema:diagnosis</text>
</g>
<!-- subjectproperties&#45;&gt;lymphcounts -->
<g id="edge43" class="edge">
<title>subjectproperties&#45;&gt;lymphcounts</title>
<path fill="none" stroke="black" d="M69.58,-488.99C125.53,-417.4 331.08,-154.37 371.38,-102.8"/>
<polygon fill="black" stroke="black" points="374.15,-104.94 377.55,-94.91 368.64,-100.63 374.15,-104.94"/>
<text text-anchor="middle" x="211.5" y="-410.8" font-family="Times,serif" font-size="14.00">obo:RO_0000086 (has quality)</text>
</g>
</g>
</svg>
