<?xml version="1.0" encoding="UTF-8" standalone="no"?>
<!DOCTYPE svg PUBLIC "-//W3C//DTD SVG 1.1//EN"
 "http://www.w3.org/Graphics/SVG/1.1/DTD/svg11.dtd">
<!-- Generated by graphviz version 2.43.0 (0)
 -->
<!-- Title: %3 Pages: 1 -->
<svg width="453pt" height="345pt"
 viewBox="0.00 0.00 452.61 345.00" xmlns="http://www.w3.org/2000/svg" xmlns:xlink="http://www.w3.org/1999/xlink">
<g id="graph0" class="graph" transform="scale(1 1) rotate(0) translate(4 341)">
<title>%3</title>
<polygon fill="white" stroke="transparent" points="-4,4 -4,-341 448.61,-341 448.61,4 -4,4"/>
<!-- test -->
<g id="node1" class="node">
<title>test</title>
<polygon fill="none" stroke="black" points="162.61,-249 72.46,-231 162.61,-213 252.77,-231 162.61,-249"/>
<text text-anchor="middle" x="162.61" y="-227.3" font-family="Times,serif" font-size="14.00">experiment</text>
</g>
<!-- triallabel -->
<g id="node3" class="node">
<title>triallabel</title>
<polygon fill="none" stroke="black" points="125.33,-73.54 125.33,-88.46 88.59,-99 36.63,-99 -0.11,-88.46 -0.11,-73.54 36.63,-63 88.59,-63 125.33,-73.54"/>
<text text-anchor="middle" x="62.61" y="-77.3" font-family="Times,serif" font-size="14.00">xsd:string</text>
</g>
<!-- test&#45;&gt;triallabel -->
<g id="edge3" class="edge">
<title>test&#45;&gt;triallabel</title>
<path fill="none" stroke="black" d="M151.28,-215.15C146.65,-208.98 141.29,-201.7 136.61,-195 115.99,-165.46 93.48,-130.69 78.76,-107.59"/>
<polygon fill="black" stroke="black" points="81.65,-105.62 73.34,-99.06 75.74,-109.37 81.65,-105.62"/>
<text text-anchor="middle" x="189.11" y="-183.8" font-family="Times,serif" font-size="14.00">skos:prefLabel</text>
</g>
<!-- agriculturetrialdesign -->
<g id="node5" class="node">
<title>agriculturetrialdesign</title>
<polygon fill="none" stroke="black" points="143.61,-0.5 143.61,-161.5 383.61,-161.5 383.61,-0.5 143.61,-0.5"/>
<text text-anchor="middle" x="263.61" y="-146.3" font-family="Times,serif" font-size="14.00">agschemas:CAST</text>
<polyline fill="none" stroke="black" points="143.61,-138.5 383.61,-138.5 "/>
<text text-anchor="middle" x="263.61" y="-123.3" font-family="Times,serif" font-size="14.00">agschemas:CottonIncorporated</text>
<polyline fill="none" stroke="black" points="143.61,-115.5 383.61,-115.5 "/>
<text text-anchor="middle" x="263.61" y="-100.3" font-family="Times,serif" font-size="14.00">agschemas:County</text>
<polyline fill="none" stroke="black" points="143.61,-92.5 383.61,-92.5 "/>
<text text-anchor="middle" x="263.61" y="-77.3" font-family="Times,serif" font-size="14.00">agschemas:Extension</text>
<polyline fill="none" stroke="black" points="143.61,-69.5 383.61,-69.5 "/>
<text text-anchor="middle" x="263.61" y="-54.3" font-family="Times,serif" font-size="14.00">agschemas:OVT</text>
<polyline fill="none" stroke="black" points="143.61,-46.5 383.61,-46.5 "/>
<text text-anchor="middle" x="263.61" y="-31.3" font-family="Times,serif" font-size="14.00">agschemas:Strip</text>
<polyline fill="none" stroke="black" points="143.61,-23.5 383.61,-23.5 "/>
<text text-anchor="middle" x="263.61" y="-8.3" font-family="Times,serif" font-size="14.00">agschemas:VertWilt</text>
</g>
<!-- test&#45;&gt;agriculturetrialdesign -->
<g id="edge2" class="edge">
<title>test&#45;&gt;agriculturetrialdesign</title>
<path fill="none" stroke="black" d="M201.99,-220.84C216.45,-215.57 231.7,-207.43 241.61,-195 247.28,-187.88 251.63,-179.73 254.95,-171.12"/>
<polygon fill="black" stroke="black" points="258.27,-172.23 258.16,-161.63 251.64,-169.98 258.27,-172.23"/>
<text text-anchor="middle" x="279.61" y="-183.8" font-family="Times,serif" font-size="14.00">rdf:type</text>
</g>
<!-- sample -->
<g id="node2" class="node">
<title>sample</title>
<polygon fill="none" stroke="black" points="294.61,-336.5 216.35,-318.5 294.61,-300.5 372.87,-318.5 294.61,-336.5"/>
<text text-anchor="middle" x="294.61" y="-314.8" font-family="Times,serif" font-size="14.00">nalt:9555</text>
</g>
<g id="node4" class="node">
<title></title>
<polygon fill="none" stroke="black" points="444.61,-311.04 444.61,-325.96 428.79,-336.5 406.43,-336.5 390.61,-325.96 390.61,-311.04 406.43,-300.5 428.79,-300.5 444.61,-311.04"/>
</g>
<!-- harvest -->
<g id="node6" class="node">
<title>harvest</title>
<polygon fill="none" stroke="black" points="127.11,-300.5 127.11,-336.5 198.11,-336.5 198.11,-300.5 127.11,-300.5"/>
<text text-anchor="middle" x="162.61" y="-314.8" font-family="Times,serif" font-size="14.00">harvest</text>
</g>
<!-- harvest&#45;&gt;test -->
<g id="edge1" class="edge">
<title>harvest&#45;&gt;test</title>
<path fill="none" stroke="black" d="M162.61,-300.2C162.61,-288.49 162.61,-272.79 162.61,-259.4"/>
<polygon fill="black" stroke="black" points="166.11,-259.28 162.61,-249.28 159.11,-259.28 166.11,-259.28"/>
<text text-anchor="middle" x="257.11" y="-270.8" font-family="Times,serif" font-size="14.00">agschemas:trialPerformed</text>
</g>
</g>
</svg>