<?xml version="1.0" encoding="UTF-8" standalone="no"?>
<!DOCTYPE svg PUBLIC "-//W3C//DTD SVG 1.1//EN"
 "http://www.w3.org/Graphics/SVG/1.1/DTD/svg11.dtd">
<!-- Generated by graphviz version 6.0.2 (20221011.1828)
 -->
<!-- Title: data/Dawson3242890.csv Pages: 1 -->
<svg width="194pt" height="283pt"
 viewBox="0.00 0.00 194.00 282.50" xmlns="http://www.w3.org/2000/svg" xmlns:xlink="http://www.w3.org/1999/xlink">
<g id="graph0" class="graph" transform="scale(1 1) rotate(0) translate(4 278.5)">
<title>data/Dawson3242890.csv</title>
<polygon fill="white" stroke="none" points="-4,4 -4,-278.5 190,-278.5 190,4 -4,4"/>
<!-- class -->
<g id="node1" class="node">
<title>class</title>
<ellipse fill="none" stroke="black" cx="93" cy="-18" rx="27.9" ry="18"/>
<text text-anchor="middle" x="93" y="-14.3" font-family="Times,serif" font-size="14.00">class</text>
</g>
<!-- datatype -->
<g id="node2" class="node">
<title>datatype</title>
<polygon fill="none" stroke="black" points="136.73,-64.54 136.73,-79.46 111.11,-90 74.89,-90 49.27,-79.46 49.27,-64.54 74.89,-54 111.11,-54 136.73,-64.54"/>
<text text-anchor="middle" x="93" y="-68.3" font-family="Times,serif" font-size="14.00">datatype</text>
</g>
<!-- literal -->
<g id="node3" class="node">
<title>literal</title>
<polygon fill="none" stroke="black" points="120,-144 66,-144 66,-108 120,-108 120,-144"/>
<text text-anchor="middle" x="93" y="-122.3" font-family="Times,serif" font-size="14.00">literal</text>
</g>
<!-- iri -->
<g id="node4" class="node">
<title>iri</title>
<polygon fill="none" stroke="black" points="93,-198 66,-180 93,-162 120,-180 93,-198"/>
<text text-anchor="middle" x="93" y="-176.3" font-family="Times,serif" font-size="14.00">iri</text>
</g>
<!-- bnode -->
<g id="node5" class="node">
<title>bnode</title>
<ellipse fill="black" stroke="black" cx="93" cy="-218" rx="1.8" ry="1.8"/>
</g>
<!-- oneof -->
<g id="node6" class="node">
<title>oneof</title>
<polygon fill="none" stroke="black" points="0,-238 0,-274 186,-274 186,-238 0,-238"/>
<text text-anchor="middle" x="31" y="-252.3" font-family="Times,serif" font-size="14.00">option 1</text>
<polyline fill="none" stroke="black" points="62,-238 62,-274"/>
<text text-anchor="middle" x="93" y="-252.3" font-family="Times,serif" font-size="14.00">option ..</text>
<polyline fill="none" stroke="black" points="124,-238 124,-274"/>
<text text-anchor="middle" x="155" y="-252.3" font-family="Times,serif" font-size="14.00">option n</text>
</g>
</g>
</svg>