<?xml version="1.0" encoding="UTF-8" standalone="no"?>
<!DOCTYPE svg PUBLIC "-//W3C//DTD SVG 1.1//EN"
 "http://www.w3.org/Graphics/SVG/1.1/DTD/svg11.dtd">
<!-- Generated by graphviz version 2.43.0 (0)
 -->
<!-- Title: data/Legacy_Cotton_VT_data.csv Pages: 1 -->
<svg width="795pt" height="260pt"
 viewBox="0.00 0.00 795.42 260.00" xmlns="http://www.w3.org/2000/svg" xmlns:xlink="http://www.w3.org/1999/xlink">
<g id="graph0" class="graph" transform="scale(1 1) rotate(0) translate(4 256)">
<title>data/Legacy_Cotton_VT_data.csv</title>
<polygon fill="white" stroke="transparent" points="-4,4 -4,-256 791.42,-256 791.42,4 -4,4"/>
<!-- fileURI -->
<g id="node1" class="node">
<title>fileURI</title>
<polygon fill="none" stroke="black" points="60.66,-144 -0.16,-126 60.66,-108 121.49,-126 60.66,-144"/>
<text text-anchor="middle" x="60.66" y="-122.3" font-family="Times,serif" font-size="14.00">fileURI</text>
</g>
<!-- dcatdataset -->
<g id="node2" class="node">
<title>dcatdataset</title>
<ellipse fill="none" stroke="black" cx="351.87" cy="-234" rx="68.49" ry="18"/>
<text text-anchor="middle" x="351.87" y="-230.3" font-family="Times,serif" font-size="14.00">dcat:dataset</text>
</g>
<!-- fileURI&#45;&gt;dcatdataset -->
<g id="edge1" class="edge">
<title>fileURI&#45;&gt;dcatdataset</title>
<path fill="none" stroke="black" d="M75.56,-139.82C90.19,-153.59 114.51,-174.3 139.33,-186 183.17,-206.66 236.38,-218.68 278.48,-225.52"/>
<polygon fill="black" stroke="black" points="277.95,-228.98 288.37,-227.07 279.03,-222.07 277.95,-228.98"/>
<text text-anchor="middle" x="201.83" y="-225.8" font-family="Times,serif" font-size="14.00">rdf:type</text>
</g>
<!-- Q935809 -->
<g id="node3" class="node">
<title>Q935809</title>
<ellipse fill="none" stroke="black" cx="351.87" cy="-180" rx="69.59" ry="18"/>
<text text-anchor="middle" x="351.87" y="-176.3" font-family="Times,serif" font-size="14.00">wd:Q935809</text>
</g>
<!-- fileURI&#45;&gt;Q935809 -->
<g id="edge2" class="edge">
<title>fileURI&#45;&gt;Q935809</title>
<path fill="none" stroke="black" d="M93.66,-134.41C107.63,-137.93 124.23,-141.91 139.33,-145 186.33,-154.62 239.62,-163.43 280.95,-169.8"/>
<polygon fill="black" stroke="black" points="280.51,-173.27 290.92,-171.32 281.57,-166.35 280.51,-173.27"/>
<text text-anchor="middle" x="201.83" y="-170.8" font-family="Times,serif" font-size="14.00">dcterms:format</text>
</g>
<!-- filename -->
<g id="node5" class="node">
<title>filename</title>
<polygon fill="none" stroke="black" points="414.59,-118.54 414.59,-133.46 377.85,-144 325.89,-144 289.15,-133.46 289.15,-118.54 325.89,-108 377.85,-108 414.59,-118.54"/>
<text text-anchor="middle" x="351.87" y="-122.3" font-family="Times,serif" font-size="14.00">xsd:string</text>
</g>
<!-- fileURI&#45;&gt;filename -->
<g id="edge4" class="edge">
<title>fileURI&#45;&gt;filename</title>
<path fill="none" stroke="black" d="M121.59,-126C167.31,-126 230.47,-126 278.92,-126"/>
<polygon fill="black" stroke="black" points="279.03,-129.5 289.03,-126 279.03,-122.5 279.03,-129.5"/>
<text text-anchor="middle" x="201.83" y="-129.8" font-family="Times,serif" font-size="14.00">skos:prefLabel</text>
</g>
<!-- filedatecreated -->
<g id="node6" class="node">
<title>filedatecreated</title>
<polygon fill="none" stroke="black" points="406.21,-64.54 406.21,-79.46 374.38,-90 329.36,-90 297.53,-79.46 297.53,-64.54 329.36,-54 374.38,-54 406.21,-64.54"/>
<text text-anchor="middle" x="351.87" y="-68.3" font-family="Times,serif" font-size="14.00">xsd:date</text>
</g>
<!-- fileURI&#45;&gt;filedatecreated -->
<g id="edge5" class="edge">
<title>fileURI&#45;&gt;filedatecreated</title>
<path fill="none" stroke="black" d="M93.66,-117.59C107.63,-114.07 124.23,-110.09 139.33,-107 188.85,-96.86 245.37,-87.63 287.51,-81.2"/>
<polygon fill="black" stroke="black" points="288.27,-84.62 297.64,-79.66 287.22,-77.7 288.27,-84.62"/>
<text text-anchor="middle" x="201.83" y="-110.8" font-family="Times,serif" font-size="14.00">dcterms:issued</text>
</g>
<!-- filedatemodified -->
<g id="node7" class="node">
<title>filedatemodified</title>
<polygon fill="none" stroke="black" points="406.21,-10.54 406.21,-25.46 374.38,-36 329.36,-36 297.53,-25.46 297.53,-10.54 329.36,0 374.38,0 406.21,-10.54"/>
<text text-anchor="middle" x="351.87" y="-14.3" font-family="Times,serif" font-size="14.00">xsd:date</text>
</g>
<!-- fileURI&#45;&gt;filedatemodified -->
<g id="edge6" class="edge">
<title>fileURI&#45;&gt;filedatemodified</title>
<path fill="none" stroke="black" d="M75.89,-112.19C90.6,-98.68 114.8,-78.51 139.33,-67 186.41,-44.91 244.17,-32.4 287.44,-25.56"/>
<polygon fill="black" stroke="black" points="288.19,-28.99 297.55,-24.02 287.14,-22.07 288.19,-28.99"/>
<text text-anchor="middle" x="201.83" y="-70.8" font-family="Times,serif" font-size="14.00">dcterms:modified</text>
</g>
<!-- comma&#45;separated values@en -->
<g id="node4" class="node">
<title>comma&#45;separated values@en</title>
<polygon fill="none" stroke="black" points="787.42,-198 562.42,-198 562.42,-162 787.42,-162 787.42,-198"/>
<text text-anchor="middle" x="674.92" y="-176.3" font-family="Times,serif" font-size="14.00">comma&#45;separated values@en</text>
</g>
<!-- Q935809&#45;&gt;comma&#45;separated values@en -->
<g id="edge3" class="edge">
<title>Q935809&#45;&gt;comma&#45;separated values@en</title>
<path fill="none" stroke="black" d="M421.74,-180C459.69,-180 507.91,-180 552,-180"/>
<polygon fill="black" stroke="black" points="552.23,-183.5 562.23,-180 552.23,-176.5 552.23,-183.5"/>
<text text-anchor="middle" x="491.92" y="-183.8" font-family="Times,serif" font-size="14.00">skos:prefLabel</text>
</g>
</g>
</svg>