<?xml version="1.0" encoding="UTF-8" standalone="no"?>
<!DOCTYPE svg PUBLIC "-//W3C//DTD SVG 1.1//EN"
 "http://www.w3.org/Graphics/SVG/1.1/DTD/svg11.dtd">
<!-- Generated by graphviz version 6.0.2 (20221011.1828)
 -->
<!-- Title: data/Legacy_Cotton_VT_data.csv Pages: 1 -->
<svg width="655pt" height="260pt"
 viewBox="0.00 0.00 654.71 260.00" xmlns="http://www.w3.org/2000/svg" xmlns:xlink="http://www.w3.org/1999/xlink">
<g id="graph0" class="graph" transform="scale(1 1) rotate(0) translate(4 256)">
<title>data/Legacy_Cotton_VT_data.csv</title>
<polygon fill="white" stroke="none" points="-4,4 -4,-256 650.71,-256 650.71,4 -4,4"/>
<!-- fileURI -->
<g id="node1" class="node">
<title>fileURI</title>
<polygon fill="none" stroke="black" points="53.31,-144 0.19,-126 53.31,-108 106.43,-126 53.31,-144"/>
<text text-anchor="middle" x="53.31" y="-122.3" font-family="Times,serif" font-size="14.00">fileURI</text>
</g>
<!-- dcatdataset -->
<g id="node2" class="node">
<title>dcatdataset</title>
<ellipse fill="none" stroke="black" cx="296.17" cy="-234" rx="51.99" ry="18"/>
<text text-anchor="middle" x="296.17" y="-230.3" font-family="Times,serif" font-size="14.00">dcat:dataset</text>
</g>
<!-- fileURI&#45;&gt;dcatdataset -->
<g id="edge1" class="edge">
<title>fileURI&#45;&gt;dcatdataset</title>
<path fill="none" stroke="black" d="M67.06,-139.62C80.28,-152.97 102.11,-173.02 124.62,-185 160.51,-204.1 204.72,-216.53 239.14,-224.09"/>
<polygon fill="black" stroke="black" points="238.52,-227.53 249.02,-226.19 239.97,-220.69 238.52,-227.53"/>
<text text-anchor="middle" x="173.12" y="-222.8" font-family="Times,serif" font-size="14.00">rdf:type</text>
</g>
<!-- Q935809 -->
<g id="node3" class="node">
<title>Q935809</title>
<ellipse fill="none" stroke="black" cx="296.17" cy="-180" rx="56.59" ry="18"/>
<text text-anchor="middle" x="296.17" y="-176.3" font-family="Times,serif" font-size="14.00">wd:Q935809</text>
</g>
<!-- fileURI&#45;&gt;Q935809 -->
<g id="edge2" class="edge">
<title>fileURI&#45;&gt;Q935809</title>
<path fill="none" stroke="black" d="M82.94,-134.17C95.66,-137.68 110.84,-141.73 124.62,-145 161.93,-153.86 204.15,-162.54 237.25,-169.03"/>
<polygon fill="black" stroke="black" points="236.73,-172.5 247.21,-170.98 238.07,-165.63 236.73,-172.5"/>
<text text-anchor="middle" x="173.12" y="-169.8" font-family="Times,serif" font-size="14.00">dcterms:format</text>
</g>
<!-- filename -->
<g id="node5" class="node">
<title>filename</title>
<polygon fill="none" stroke="black" points="345.66,-118.54 345.66,-133.46 316.67,-144 275.67,-144 246.68,-133.46 246.68,-118.54 275.67,-108 316.67,-108 345.66,-118.54"/>
<text text-anchor="middle" x="296.17" y="-122.3" font-family="Times,serif" font-size="14.00">xsd:string</text>
</g>
<!-- fileURI&#45;&gt;filename -->
<g id="edge4" class="edge">
<title>fileURI&#45;&gt;filename</title>
<path fill="none" stroke="black" d="M106.57,-126C144.88,-126 196.92,-126 236.62,-126"/>
<polygon fill="black" stroke="black" points="236.7,-129.5 246.7,-126 236.7,-122.5 236.7,-129.5"/>
<text text-anchor="middle" x="173.12" y="-129.8" font-family="Times,serif" font-size="14.00">skos:prefLabel</text>
</g>
<!-- filedatecreated -->
<g id="node6" class="node">
<title>filedatecreated</title>
<polygon fill="none" stroke="black" points="339.9,-64.54 339.9,-79.46 314.28,-90 278.05,-90 252.43,-79.46 252.43,-64.54 278.05,-54 314.28,-54 339.9,-64.54"/>
<text text-anchor="middle" x="296.17" y="-68.3" font-family="Times,serif" font-size="14.00">xsd:date</text>
</g>
<!-- fileURI&#45;&gt;filedatecreated -->
<g id="edge5" class="edge">
<title>fileURI&#45;&gt;filedatecreated</title>
<path fill="none" stroke="black" d="M82.94,-117.83C95.66,-114.32 110.84,-110.27 124.62,-107 164.2,-97.6 209.3,-88.41 243.17,-81.81"/>
<polygon fill="black" stroke="black" points="244.16,-85.18 253.31,-79.85 242.82,-78.31 244.16,-85.18"/>
<text text-anchor="middle" x="173.12" y="-110.8" font-family="Times,serif" font-size="14.00">dcterms:issued</text>
</g>
<!-- filedatemodified -->
<g id="node7" class="node">
<title>filedatemodified</title>
<polygon fill="none" stroke="black" points="339.9,-10.54 339.9,-25.46 314.28,-36 278.05,-36 252.43,-25.46 252.43,-10.54 278.05,0 314.28,0 339.9,-10.54"/>
<text text-anchor="middle" x="296.17" y="-14.3" font-family="Times,serif" font-size="14.00">xsd:date</text>
</g>
<!-- fileURI&#45;&gt;filedatemodified -->
<g id="edge6" class="edge">
<title>fileURI&#45;&gt;filedatemodified</title>
<path fill="none" stroke="black" d="M67.12,-112.65C80.38,-99.55 102.25,-79.86 124.62,-68 161.72,-48.34 207.56,-35.45 242.37,-27.69"/>
<polygon fill="black" stroke="black" points="243.3,-31.07 252.34,-25.54 241.82,-24.23 243.3,-31.07"/>
<text text-anchor="middle" x="173.12" y="-71.8" font-family="Times,serif" font-size="14.00">dcterms:modified</text>
</g>
<!-- comma&#45;separated values@en -->
<g id="node4" class="node">
<title>comma&#45;separated values@en</title>
<polygon fill="none" stroke="black" points="646.71,-198 469.71,-198 469.71,-162 646.71,-162 646.71,-198"/>
<text text-anchor="middle" x="558.21" y="-176.3" font-family="Times,serif" font-size="14.00">comma&#45;separated values@en</text>
</g>
<!-- Q935809&#45;&gt;comma&#45;separated values@en -->
<g id="edge3" class="edge">
<title>Q935809&#45;&gt;comma&#45;separated values@en</title>
<path fill="none" stroke="black" d="M352.95,-180C383.99,-180 423.51,-180 459.5,-180"/>
<polygon fill="black" stroke="black" points="459.55,-183.5 469.55,-180 459.55,-176.5 459.55,-183.5"/>
<text text-anchor="middle" x="411.21" y="-183.8" font-family="Times,serif" font-size="14.00">skos:prefLabel</text>
</g>
</g>
</svg>