<?xml version="1.0" encoding="UTF-8" standalone="no"?>
<!DOCTYPE svg PUBLIC "-//W3C//DTD SVG 1.1//EN"
 "http://www.w3.org/Graphics/SVG/1.1/DTD/svg11.dtd">
<!-- Generated by graphviz version 6.0.2 (20221011.1828)
 -->
<!-- Pages: 1 -->
<svg width="906pt" height="701pt"
 viewBox="0.00 0.00 906.32 701.00" xmlns="http://www.w3.org/2000/svg" xmlns:xlink="http://www.w3.org/1999/xlink">
<g id="graph0" class="graph" transform="scale(1 1) rotate(0) translate(4 697)">
<polygon fill="white" stroke="none" points="-4,4 -4,-697 902.32,-697 902.32,4 -4,4"/>
<!-- production -->
<g id="node1" class="node">
<title>production</title>
<polygon fill="none" stroke="black" points="69.86,-442 0.14,-424 69.86,-406 139.57,-424 69.86,-442"/>
<text text-anchor="middle" x="69.86" y="-420.3" font-family="Times,serif" font-size="14.00">Production</text>
</g>
<!-- harvestid -->
<g id="node3" class="node">
<title>harvestid</title>
<polygon fill="none" stroke="black" points="489.06,-633.54 489.06,-648.46 457.23,-659 412.22,-659 380.39,-648.46 380.39,-633.54 412.22,-623 457.23,-623 489.06,-633.54"/>
<text text-anchor="middle" x="434.72" y="-637.3" font-family="Times,serif" font-size="14.00">xsd:integer</text>
</g>
<!-- production&#45;&gt;harvestid -->
<g id="edge19" class="edge">
<title>production&#45;&gt;harvestid</title>
<path fill="none" stroke="black" d="M110.56,-431.52C121.59,-435.52 132.51,-441.64 139.71,-451 182.53,-506.67 108.17,-558.22 157.71,-608 214.55,-665.11 314.65,-661.77 377.4,-652.53"/>
<polygon fill="black" stroke="black" points="378.19,-655.95 387.52,-650.94 377.1,-649.03 378.19,-655.95"/>
<text text-anchor="middle" x="245.71" y="-660.8" font-family="Times,serif" font-size="14.00">dcterms:identifier</text>
</g>
<!-- plantingdate -->
<g id="node4" class="node">
<title>plantingdate</title>
<polygon fill="none" stroke="black" points="478.46,-579.54 478.46,-594.46 452.84,-605 416.61,-605 390.99,-594.46 390.99,-579.54 416.61,-569 452.84,-569 478.46,-579.54"/>
<text text-anchor="middle" x="434.72" y="-583.3" font-family="Times,serif" font-size="14.00">xsd:date</text>
</g>
<!-- production&#45;&gt;plantingdate -->
<g id="edge21" class="edge">
<title>production&#45;&gt;plantingdate</title>
<path fill="none" stroke="black" d="M110.28,-431.74C121.3,-435.75 132.28,-441.82 139.71,-451 170.6,-489.17 121.86,-526.45 157.71,-560 188.96,-589.24 309.89,-590.89 380.89,-589.17"/>
<polygon fill="black" stroke="black" points="381.09,-592.67 390.99,-588.89 380.9,-585.67 381.09,-592.67"/>
<text text-anchor="middle" x="245.71" y="-592.8" font-family="Times,serif" font-size="14.00">agschemas:plantingDate</text>
</g>
<!-- harvestdate -->
<g id="node5" class="node">
<title>harvestdate</title>
<polygon fill="none" stroke="black" points="478.46,-525.54 478.46,-540.46 452.84,-551 416.61,-551 390.99,-540.46 390.99,-525.54 416.61,-515 452.84,-515 478.46,-525.54"/>
<text text-anchor="middle" x="434.72" y="-529.3" font-family="Times,serif" font-size="14.00">xsd:date</text>
</g>
<!-- production&#45;&gt;harvestdate -->
<g id="edge20" class="edge">
<title>production&#45;&gt;harvestdate</title>
<path fill="none" stroke="black" d="M107.55,-432.4C118.97,-436.48 130.86,-442.42 139.71,-451 154.29,-465.13 141.61,-480.63 157.71,-493 222.15,-542.49 320.69,-544.29 380.95,-539.65"/>
<polygon fill="black" stroke="black" points="381.34,-543.13 391.01,-538.79 380.75,-536.16 381.34,-543.13"/>
<text text-anchor="middle" x="245.71" y="-544.8" font-family="Times,serif" font-size="14.00">agschemas:harvestDate</text>
</g>
<!-- valueperac -->
<g id="node6" class="node">
<title>valueperac</title>
<ellipse fill="black" stroke="black" cx="434.72" cy="-495" rx="1.8" ry="1.8"/>
</g>
<!-- production&#45;&gt;valueperac -->
<g id="edge1" class="edge">
<title>production&#45;&gt;valueperac</title>
<path fill="none" stroke="black" d="M110.03,-431.67C191.57,-447.62 375.82,-483.67 422.71,-492.84"/>
<polygon fill="black" stroke="black" points="422.21,-496.31 432.69,-494.8 423.55,-489.44 422.21,-496.31"/>
<text text-anchor="middle" x="245.71" y="-477.8" font-family="Times,serif" font-size="14.00">agschemas:ValuePerAcre</text>
</g>
<!-- seedingrateperacre -->
<g id="node13" class="node">
<title>seedingrateperacre</title>
<polygon fill="none" stroke="black" points="517.75,-388.54 517.75,-403.46 469.11,-414 400.33,-414 351.7,-403.46 351.7,-388.54 400.33,-378 469.11,-378 517.75,-388.54"/>
<text text-anchor="middle" x="434.72" y="-392.3" font-family="Times,serif" font-size="14.00">seedingrateperacre</text>
</g>
<!-- production&#45;&gt;seedingrateperacre -->
<g id="edge6" class="edge">
<title>production&#45;&gt;seedingrateperacre</title>
<path fill="none" stroke="black" d="M124.01,-419.9C181.05,-415.5 272.72,-408.42 341.56,-403.11"/>
<polygon fill="black" stroke="black" points="341.84,-406.6 351.54,-402.34 341.3,-399.62 341.84,-406.6"/>
<text text-anchor="middle" x="245.71" y="-420.8" font-family="Times,serif" font-size="14.00">agschemas:SeedingRatePerAcre</text>
</g>
<!-- percentballopened -->
<g id="node18" class="node">
<title>percentballopened</title>
<polygon fill="none" stroke="black" points="516.43,-199.54 516.43,-214.46 468.57,-225 400.88,-225 353.01,-214.46 353.01,-199.54 400.88,-189 468.57,-189 516.43,-199.54"/>
<text text-anchor="middle" x="434.72" y="-203.3" font-family="Times,serif" font-size="14.00">percentballopened</text>
</g>
<!-- production&#45;&gt;percentballopened -->
<g id="edge11" class="edge">
<title>production&#45;&gt;percentballopened</title>
<path fill="none" stroke="black" d="M91.67,-411.55C150.35,-376.46 317.83,-276.31 394.52,-230.44"/>
<polygon fill="black" stroke="black" points="396.62,-233.27 403.41,-225.13 393.03,-227.26 396.62,-233.27"/>
<text text-anchor="middle" x="245.71" y="-374.8" font-family="Times,serif" font-size="14.00">agschemas:unitpercent</text>
</g>
<!-- fileURI -->
<g id="node23" class="node">
<title>fileURI</title>
<polygon fill="none" stroke="black" points="475.33,-145.54 475.33,-160.46 451.54,-171 417.9,-171 394.12,-160.46 394.12,-145.54 417.9,-135 451.54,-135 475.33,-145.54"/>
<text text-anchor="middle" x="434.72" y="-149.3" font-family="Times,serif" font-size="14.00">fileURI</text>
</g>
<!-- production&#45;&gt;fileURI -->
<g id="edge16" class="edge">
<title>production&#45;&gt;fileURI</title>
<path fill="none" stroke="black" d="M74.88,-407.28C83.88,-373.3 108.82,-295.69 157.71,-252 222.48,-194.12 323.53,-169.42 383.72,-159.38"/>
<polygon fill="black" stroke="black" points="384.42,-162.81 393.74,-157.78 383.32,-155.9 384.42,-162.81"/>
<text text-anchor="middle" x="245.71" y="-255.8" font-family="Times,serif" font-size="14.00">schema:isPartOf</text>
</g>
<!-- crop -->
<g id="node24" class="node">
<title>crop</title>
<polygon fill="none" stroke="black" points="463.41,-37.54 463.41,-52.46 446.61,-63 422.84,-63 406.04,-52.46 406.04,-37.54 422.84,-27 446.61,-27 463.41,-37.54"/>
<text text-anchor="middle" x="434.72" y="-41.3" font-family="Times,serif" font-size="14.00">crop</text>
</g>
<!-- production&#45;&gt;crop -->
<g id="edge17" class="edge">
<title>production&#45;&gt;crop</title>
<path fill="none" stroke="black" d="M71.37,-406.33C73.7,-358.53 86.59,-225.26 157.71,-150 222.49,-81.45 336.69,-57.2 395.84,-48.98"/>
<polygon fill="black" stroke="black" points="396.41,-52.44 405.87,-47.67 395.5,-45.49 396.41,-52.44"/>
<text text-anchor="middle" x="245.71" y="-153.8" font-family="Times,serif" font-size="14.00">agschemas:harvested</text>
</g>
<!-- cotton -->
<g id="node2" class="node">
<title>cotton</title>
<ellipse fill="none" stroke="black" cx="786.53" cy="-18" rx="74.19" ry="18"/>
<text text-anchor="middle" x="786.53" y="-14.3" font-family="Times,serif" font-size="14.00">cotton (nalt:4418)</text>
</g>
<!-- valueperacType -->
<g id="node9" class="node">
<title>valueperacType</title>
<ellipse fill="none" stroke="black" cx="786.53" cy="-666" rx="59.59" ry="18"/>
<text text-anchor="middle" x="786.53" y="-662.3" font-family="Times,serif" font-size="14.00">qudt:Quantity</text>
</g>
<!-- valueperac&#45;&gt;valueperacType -->
<g id="edge2" class="edge">
<title>valueperac&#45;&gt;valueperacType</title>
<path fill="none" stroke="black" d="M436.71,-494.75C444.28,-492.92 493.69,-482.1 517.74,-506 558.49,-546.49 494.86,-593.63 535.74,-634 585.03,-682.69 669.03,-683.36 725.86,-676.8"/>
<polygon fill="black" stroke="black" points="726.31,-680.28 735.79,-675.55 725.44,-673.33 726.31,-680.28"/>
<text text-anchor="middle" x="596.24" y="-681.8" font-family="Times,serif" font-size="14.00">rdf:type</text>
</g>
<!-- valueperacKind -->
<g id="node10" class="node">
<title>valueperacKind</title>
<ellipse fill="none" stroke="black" cx="786.53" cy="-612" rx="87.18" ry="18"/>
<text text-anchor="middle" x="786.53" y="-608.3" font-family="Times,serif" font-size="14.00">agunits:ValuePerAcre</text>
</g>
<!-- valueperac&#45;&gt;valueperacKind -->
<g id="edge3" class="edge">
<title>valueperac&#45;&gt;valueperacKind</title>
<path fill="none" stroke="black" d="M436.68,-494.79C444.02,-493.2 492.04,-483.88 517.74,-506 539.48,-524.72 514.38,-548.84 535.74,-568 578.46,-606.33 642.43,-617.04 694.94,-618.31"/>
<polygon fill="black" stroke="black" points="694.9,-621.81 704.95,-618.44 694.99,-614.81 694.9,-621.81"/>
<text text-anchor="middle" x="596.24" y="-618.8" font-family="Times,serif" font-size="14.00">qudt:hasQuantityKind</text>
</g>
<!-- usdperacre -->
<g id="node11" class="node">
<title>usdperacre</title>
<ellipse fill="none" stroke="black" cx="786.53" cy="-558" rx="81.49" ry="18"/>
<text text-anchor="middle" x="786.53" y="-554.3" font-family="Times,serif" font-size="14.00">agunits:UsdPerAcre</text>
</g>
<!-- valueperac&#45;&gt;usdperacre -->
<g id="edge5" class="edge">
<title>valueperac&#45;&gt;usdperacre</title>
<path fill="none" stroke="black" d="M436.57,-494.96C443.12,-494.69 486.24,-493.44 517.74,-506 526.9,-509.65 526.61,-515.25 535.74,-519 586.42,-539.85 647.09,-549.63 695.95,-554.19"/>
<polygon fill="black" stroke="black" points="695.92,-557.7 706.18,-555.09 696.53,-550.73 695.92,-557.7"/>
<text text-anchor="middle" x="596.24" y="-552.8" font-family="Times,serif" font-size="14.00">qudt:unit</text>
</g>
<!-- valueperacValue -->
<g id="node12" class="node">
<title>valueperacValue</title>
<polygon fill="none" stroke="black" points="831.57,-496.54 831.57,-511.46 805.19,-522 767.87,-522 741.48,-511.46 741.48,-496.54 767.87,-486 805.19,-486 831.57,-496.54"/>
<text text-anchor="middle" x="786.53" y="-500.3" font-family="Times,serif" font-size="14.00">xsd:float</text>
</g>
<!-- valueperac&#45;&gt;valueperacValue -->
<g id="edge4" class="edge">
<title>valueperac&#45;&gt;valueperacValue</title>
<path fill="none" stroke="black" d="M436.73,-495.03C451.97,-495.42 636.95,-500.18 731.15,-502.6"/>
<polygon fill="black" stroke="black" points="731.26,-506.1 741.35,-502.86 731.44,-499.11 731.26,-506.1"/>
<text text-anchor="middle" x="596.24" y="-503.8" font-family="Times,serif" font-size="14.00">qudt:value</text>
</g>
<!-- seedingrate -->
<g id="node7" class="node">
<title>seedingrate</title>
<ellipse fill="black" stroke="black" cx="69.86" cy="-462" rx="1.8" ry="1.8"/>
</g>
<!-- ballopened -->
<g id="node8" class="node">
<title>ballopened</title>
<ellipse fill="black" stroke="black" cx="69.86" cy="-484" rx="1.8" ry="1.8"/>
</g>
<!-- seedingrateperacreType -->
<g id="node14" class="node">
<title>seedingrateperacreType</title>
<ellipse fill="none" stroke="black" cx="786.53" cy="-450" rx="59.59" ry="18"/>
<text text-anchor="middle" x="786.53" y="-446.3" font-family="Times,serif" font-size="14.00">qudt:Quantity</text>
</g>
<!-- seedingrateperacre&#45;&gt;seedingrateperacreType -->
<g id="edge7" class="edge">
<title>seedingrateperacre&#45;&gt;seedingrateperacreType</title>
<path fill="none" stroke="black" d="M496.73,-408.08C509.59,-410.49 523.09,-412.91 535.74,-415 598.39,-425.33 670.21,-435.19 720.71,-441.8"/>
<polygon fill="black" stroke="black" points="720.47,-445.29 730.84,-443.11 721.37,-438.35 720.47,-445.29"/>
<text text-anchor="middle" x="596.24" y="-435.8" font-family="Times,serif" font-size="14.00">rdf:type</text>
</g>
<!-- seedingrateperacreKind -->
<g id="node15" class="node">
<title>seedingrateperacreKind</title>
<ellipse fill="none" stroke="black" cx="786.53" cy="-396" rx="111.58" ry="18"/>
<text text-anchor="middle" x="786.53" y="-392.3" font-family="Times,serif" font-size="14.00">agunits:SeedingRatePerAcre</text>
</g>
<!-- seedingrateperacre&#45;&gt;seedingrateperacreKind -->
<g id="edge8" class="edge">
<title>seedingrateperacre&#45;&gt;seedingrateperacreKind</title>
<path fill="none" stroke="black" d="M517.74,-396C561.38,-396 615.9,-396 664.33,-396"/>
<polygon fill="black" stroke="black" points="664.56,-399.5 674.56,-396 664.56,-392.5 664.56,-399.5"/>
<text text-anchor="middle" x="596.24" y="-399.8" font-family="Times,serif" font-size="14.00">qudt:hasQuantityKind</text>
</g>
<!-- seedsperacre -->
<g id="node16" class="node">
<title>seedsperacre</title>
<ellipse fill="none" stroke="black" cx="786.53" cy="-342" rx="87.99" ry="18"/>
<text text-anchor="middle" x="786.53" y="-338.3" font-family="Times,serif" font-size="14.00">agunits:SeedsPerAcre</text>
</g>
<!-- seedingrateperacre&#45;&gt;seedsperacre -->
<g id="edge10" class="edge">
<title>seedingrateperacre&#45;&gt;seedsperacre</title>
<path fill="none" stroke="black" d="M496.73,-383.92C509.59,-381.51 523.09,-379.09 535.74,-377 590.8,-367.92 652.94,-359.2 701.47,-352.74"/>
<polygon fill="black" stroke="black" points="702.15,-356.18 711.61,-351.4 701.23,-349.24 702.15,-356.18"/>
<text text-anchor="middle" x="596.24" y="-380.8" font-family="Times,serif" font-size="14.00">qudt:unit</text>
</g>
<!-- seedingrateperacreValue -->
<g id="node17" class="node">
<title>seedingrateperacreValue</title>
<polygon fill="none" stroke="black" points="831.57,-280.54 831.57,-295.46 805.19,-306 767.87,-306 741.48,-295.46 741.48,-280.54 767.87,-270 805.19,-270 831.57,-280.54"/>
<text text-anchor="middle" x="786.53" y="-284.3" font-family="Times,serif" font-size="14.00">xsd:float</text>
</g>
<!-- seedingrateperacre&#45;&gt;seedingrateperacreValue -->
<g id="edge9" class="edge">
<title>seedingrateperacre&#45;&gt;seedingrateperacreValue</title>
<path fill="none" stroke="black" d="M462.64,-377.94C482.18,-365.59 509.64,-349.76 535.74,-340 600.69,-315.71 679.63,-301.68 731.14,-294.45"/>
<polygon fill="black" stroke="black" points="731.64,-297.91 741.07,-293.09 730.69,-290.98 731.64,-297.91"/>
<text text-anchor="middle" x="596.24" y="-343.8" font-family="Times,serif" font-size="14.00">qudt:value</text>
</g>
<!-- percentballopenedType -->
<g id="node19" class="node">
<title>percentballopenedType</title>
<ellipse fill="none" stroke="black" cx="786.53" cy="-234" rx="59.59" ry="18"/>
<text text-anchor="middle" x="786.53" y="-230.3" font-family="Times,serif" font-size="14.00">qudt:Quantity</text>
</g>
<!-- percentballopened&#45;&gt;percentballopenedType -->
<g id="edge12" class="edge">
<title>percentballopened&#45;&gt;percentballopenedType</title>
<path fill="none" stroke="black" d="M516.41,-213.23C577.61,-217.95 660.73,-224.37 718.34,-228.81"/>
<polygon fill="black" stroke="black" points="718.19,-232.31 728.43,-229.59 718.72,-225.33 718.19,-232.31"/>
<text text-anchor="middle" x="596.24" y="-226.8" font-family="Times,serif" font-size="14.00">rdf:type</text>
</g>
<!-- percentballopenedKind -->
<g id="node20" class="node">
<title>percentballopenedKind</title>
<ellipse fill="none" stroke="black" cx="786.53" cy="-180" rx="77.99" ry="18"/>
<text text-anchor="middle" x="786.53" y="-176.3" font-family="Times,serif" font-size="14.00">agunits:unitpercent</text>
</g>
<!-- percentballopened&#45;&gt;percentballopenedKind -->
<g id="edge13" class="edge">
<title>percentballopened&#45;&gt;percentballopenedKind</title>
<path fill="none" stroke="black" d="M508.59,-197.75C517.72,-196.74 526.94,-195.79 535.74,-195 590.17,-190.1 651.43,-186.4 699.65,-183.89"/>
<polygon fill="black" stroke="black" points="699.93,-187.38 709.74,-183.38 699.57,-180.39 699.93,-187.38"/>
<text text-anchor="middle" x="596.24" y="-198.8" font-family="Times,serif" font-size="14.00">qudt:hasQuantityKind</text>
</g>
<!-- openballpercentage -->
<g id="node21" class="node">
<title>openballpercentage</title>
<ellipse fill="none" stroke="black" cx="786.53" cy="-126" rx="93.68" ry="18"/>
<text text-anchor="middle" x="786.53" y="-122.3" font-family="Times,serif" font-size="14.00">agunits:unit:PERCENT</text>
</g>
<!-- percentballopened&#45;&gt;openballpercentage -->
<g id="edge15" class="edge">
<title>percentballopened&#45;&gt;openballpercentage</title>
<path fill="none" stroke="black" d="M486.59,-192.96C497.13,-189.31 507.99,-184.97 517.74,-180 526.53,-175.52 526.62,-170.79 535.74,-167 582.99,-147.35 638.94,-137.09 685.9,-131.75"/>
<polygon fill="black" stroke="black" points="686.52,-135.2 696.09,-130.65 685.77,-128.24 686.52,-135.2"/>
<text text-anchor="middle" x="596.24" y="-170.8" font-family="Times,serif" font-size="14.00">qudt:unit</text>
</g>
<!-- percentballopenedValue -->
<g id="node22" class="node">
<title>percentballopenedValue</title>
<polygon fill="none" stroke="black" points="831.57,-64.54 831.57,-79.46 805.19,-90 767.87,-90 741.48,-79.46 741.48,-64.54 767.87,-54 805.19,-54 831.57,-64.54"/>
<text text-anchor="middle" x="786.53" y="-68.3" font-family="Times,serif" font-size="14.00">xsd:float</text>
</g>
<!-- percentballopened&#45;&gt;percentballopenedValue -->
<g id="edge14" class="edge">
<title>percentballopened&#45;&gt;percentballopenedValue</title>
<path fill="none" stroke="black" d="M495.81,-194.99C503.97,-191.27 511.62,-186.39 517.74,-180 538.17,-158.65 513.83,-135.83 535.74,-116 588.76,-68.02 675.03,-63.21 731.03,-66.1"/>
<polygon fill="black" stroke="black" points="730.92,-69.6 741.11,-66.72 731.35,-62.62 730.92,-69.6"/>
<text text-anchor="middle" x="596.24" y="-119.8" font-family="Times,serif" font-size="14.00">qudt:value</text>
</g>
<!-- crop&#45;&gt;cotton -->
<g id="edge18" class="edge">
<title>crop&#45;&gt;cotton</title>
<path fill="none" stroke="black" d="M463.72,-41.96C483.76,-39.84 511.39,-37.04 535.74,-35 591.94,-30.28 655.35,-25.98 704.22,-22.88"/>
<polygon fill="black" stroke="black" points="704.66,-26.36 714.42,-22.24 704.22,-19.37 704.66,-26.36"/>
<text text-anchor="middle" x="596.24" y="-38.8" font-family="Times,serif" font-size="14.00">rdf:type</text>
</g>
</g>
</svg>