<?xml version="1.0" encoding="UTF-8" standalone="no"?>
<!DOCTYPE svg PUBLIC "-//W3C//DTD SVG 1.1//EN"
 "http://www.w3.org/Graphics/SVG/1.1/DTD/svg11.dtd">
<!-- Generated by graphviz version 6.0.2 (20221011.1828)
 -->
<!-- Title: weather Pages: 1 -->
<svg width="812pt" height="1451pt"
 viewBox="0.00 0.00 812.00 1451.00" xmlns="http://www.w3.org/2000/svg" xmlns:xlink="http://www.w3.org/1999/xlink">
<g id="graph0" class="graph" transform="scale(1 1) rotate(0) translate(4 1447)">
<title>weather</title>
<polygon fill="white" stroke="none" points="-4,4 -4,-1447 808,-1447 808,4 -4,4"/>
<!-- example -->
<!-- agschemas -->
<!-- ghcnd -->
<!-- xsd -->
<!-- nalt -->
<!-- rdf -->
<!-- dct -->
<!-- schema -->
<!-- qudt -->
<!-- quantitykind -->
<!-- unit -->
<!-- examplelocation -->
<g id="node12" class="node">
<title>examplelocation</title>
<polygon fill="none" stroke="black" points="134,-630 32.79,-612 134,-594 235.21,-612 134,-630"/>
<text text-anchor="middle" x="134" y="-608.3" font-family="Times,serif" font-size="14.00">example:location</text>
</g>
<!-- exampleweatherStation -->
<g id="node13" class="node">
<title>exampleweatherStation</title>
<polygon fill="none" stroke="black" points="646,-684 509.93,-666 646,-648 782.07,-666 646,-684"/>
<text text-anchor="middle" x="646" y="-662.3" font-family="Times,serif" font-size="14.00">example:weatherStation</text>
</g>
<!-- location -->
<g id="node14" class="node">
<title>location</title>
<ellipse fill="none" stroke="black" cx="134" cy="-666" rx="38.99" ry="18"/>
<text text-anchor="middle" x="134" y="-662.3" font-family="Times,serif" font-size="14.00">location</text>
</g>
<!-- location&#45;&gt;exampleweatherStation -->
<g id="edge1" class="edge">
<title>location&#45;&gt;exampleweatherStation</title>
<path fill="none" stroke="black" d="M173.33,-666C241.75,-666 388.17,-666 499.85,-666"/>
<polygon fill="black" stroke="black" points="499.86,-669.5 509.86,-666 499.86,-662.5 499.86,-669.5"/>
<text text-anchor="middle" x="378" y="-669.8" font-family="Times,serif" font-size="14.00">agschemas:nearbyWeatherStation</text>
</g>
<!-- weatherStation5229622&#45;rdf&#45;syntax&#45;ns#type -->
<g id="node15" class="node">
<title>weatherStation5229622&#45;rdf&#45;syntax&#45;ns#type</title>
<polygon fill="none" stroke="black" points="698.12,-1090.54 698.12,-1105.46 667.59,-1116 624.41,-1116 593.88,-1105.46 593.88,-1090.54 624.41,-1080 667.59,-1080 698.12,-1090.54"/>
<text text-anchor="middle" x="646" y="-1094.3" font-family="Times,serif" font-size="14.00">nalt:52296</text>
</g>
<!-- weatherStation -->
<g id="node16" class="node">
<title>weatherStation</title>
<ellipse fill="none" stroke="black" cx="134" cy="-909" rx="63.89" ry="18"/>
<text text-anchor="middle" x="134" y="-905.3" font-family="Times,serif" font-size="14.00">weatherStation</text>
</g>
<!-- weatherStation&#45;&gt;weatherStation5229622&#45;rdf&#45;syntax&#45;ns#type -->
<g id="edge2" class="edge">
<title>weatherStation&#45;&gt;weatherStation5229622&#45;rdf&#45;syntax&#45;ns#type</title>
<path fill="none" stroke="black" d="M148.02,-926.96C171.62,-957.97 224.73,-1021 286,-1050 382.76,-1095.79 509.59,-1101.91 583.71,-1100.87"/>
<polygon fill="black" stroke="black" points="583.87,-1104.36 593.81,-1100.68 583.74,-1097.37 583.87,-1104.36"/>
<text text-anchor="middle" x="378" y="-1099.8" font-family="Times,serif" font-size="14.00">rdf:type</text>
</g>
<!-- weatherStationXMLSchema#stringidentifier -->
<g id="node17" class="node">
<title>weatherStationXMLSchema#stringidentifier</title>
<polygon fill="none" stroke="black" points="695.49,-1036.54 695.49,-1051.46 666.5,-1062 625.5,-1062 596.51,-1051.46 596.51,-1036.54 625.5,-1026 666.5,-1026 695.49,-1036.54"/>
<text text-anchor="middle" x="646" y="-1040.3" font-family="Times,serif" font-size="14.00">xsd:string</text>
</g>
<!-- weatherStation&#45;&gt;weatherStationXMLSchema#stringidentifier -->
<g id="edge3" class="edge">
<title>weatherStation&#45;&gt;weatherStationXMLSchema#stringidentifier</title>
<path fill="none" stroke="black" d="M159.15,-925.61C187.99,-944.6 238.32,-975.09 286,-991 388.25,-1025.11 514.17,-1037.3 586.46,-1041.63"/>
<polygon fill="black" stroke="black" points="586.54,-1045.15 596.72,-1042.22 586.94,-1038.16 586.54,-1045.15"/>
<text text-anchor="middle" x="378" y="-1034.8" font-family="Times,serif" font-size="14.00">dct:identifier</text>
</g>
<!-- weatherStationXMLSchema#decimallatitude -->
<g id="node18" class="node">
<title>weatherStationXMLSchema#decimallatitude</title>
<polygon fill="none" stroke="black" points="704.28,-982.54 704.28,-997.46 670.14,-1008 621.86,-1008 587.72,-997.46 587.72,-982.54 621.86,-972 670.14,-972 704.28,-982.54"/>
<text text-anchor="middle" x="646" y="-986.3" font-family="Times,serif" font-size="14.00">xsd:decimal</text>
</g>
<!-- weatherStation&#45;&gt;weatherStationXMLSchema#decimallatitude -->
<g id="edge4" class="edge">
<title>weatherStation&#45;&gt;weatherStationXMLSchema#decimallatitude</title>
<path fill="none" stroke="black" d="M179.96,-921.5C209.83,-929.43 250.03,-939.41 286,-946 386.67,-964.44 504.67,-977.23 577.13,-984.1"/>
<polygon fill="black" stroke="black" points="577.2,-987.62 587.48,-985.07 577.85,-980.65 577.2,-987.62"/>
<text text-anchor="middle" x="378" y="-975.8" font-family="Times,serif" font-size="14.00">schema:latitude</text>
</g>
<!-- weatherStationXMLSchema#decimallongitude -->
<g id="node19" class="node">
<title>weatherStationXMLSchema#decimallongitude</title>
<polygon fill="none" stroke="black" points="704.28,-928.54 704.28,-943.46 670.14,-954 621.86,-954 587.72,-943.46 587.72,-928.54 621.86,-918 670.14,-918 704.28,-928.54"/>
<text text-anchor="middle" x="646" y="-932.3" font-family="Times,serif" font-size="14.00">xsd:decimal</text>
</g>
<!-- weatherStation&#45;&gt;weatherStationXMLSchema#decimallongitude -->
<g id="edge5" class="edge">
<title>weatherStation&#45;&gt;weatherStationXMLSchema#decimallongitude</title>
<path fill="none" stroke="black" d="M196.77,-912.27C292.95,-917.36 477.77,-927.15 577.4,-932.42"/>
<polygon fill="black" stroke="black" points="577.47,-935.93 587.65,-932.96 577.84,-928.94 577.47,-935.93"/>
<text text-anchor="middle" x="378" y="-930.8" font-family="Times,serif" font-size="14.00">schema:longitude</text>
</g>
<!-- weatherStationXMLSchema#decimalelavation -->
<g id="node20" class="node">
<title>weatherStationXMLSchema#decimalelavation</title>
<polygon fill="none" stroke="black" points="704.28,-874.54 704.28,-889.46 670.14,-900 621.86,-900 587.72,-889.46 587.72,-874.54 621.86,-864 670.14,-864 704.28,-874.54"/>
<text text-anchor="middle" x="646" y="-878.3" font-family="Times,serif" font-size="14.00">xsd:decimal</text>
</g>
<!-- weatherStation&#45;&gt;weatherStationXMLSchema#decimalelavation -->
<g id="edge6" class="edge">
<title>weatherStation&#45;&gt;weatherStationXMLSchema#decimalelavation</title>
<path fill="none" stroke="black" d="M195.96,-904.7C223.47,-902.83 256.36,-900.68 286,-899 387.38,-893.24 504.95,-887.94 577.15,-884.83"/>
<polygon fill="black" stroke="black" points="577.63,-888.32 587.47,-884.39 577.33,-881.32 577.63,-888.32"/>
<text text-anchor="middle" x="378" y="-902.8" font-family="Times,serif" font-size="14.00">schema:elavation</text>
</g>
<!-- weatherStationXMLSchema#datestartDate -->
<g id="node21" class="node">
<title>weatherStationXMLSchema#datestartDate</title>
<polygon fill="none" stroke="black" points="689.73,-820.54 689.73,-835.46 664.11,-846 627.89,-846 602.27,-835.46 602.27,-820.54 627.89,-810 664.11,-810 689.73,-820.54"/>
<text text-anchor="middle" x="646" y="-824.3" font-family="Times,serif" font-size="14.00">xsd:date</text>
</g>
<!-- weatherStation&#45;&gt;weatherStationXMLSchema#datestartDate -->
<g id="edge7" class="edge">
<title>weatherStation&#45;&gt;weatherStationXMLSchema#datestartDate</title>
<path fill="none" stroke="black" d="M179.27,-896.28C209.2,-888.07 249.72,-877.71 286,-871 393.74,-851.08 521.44,-838.33 591.81,-832.24"/>
<polygon fill="black" stroke="black" points="592.52,-835.69 602.18,-831.35 591.92,-828.72 592.52,-835.69"/>
<text text-anchor="middle" x="378" y="-874.8" font-family="Times,serif" font-size="14.00">schema:startDate</text>
</g>
<!-- weatherStationXMLSchema#dateendDate -->
<g id="node22" class="node">
<title>weatherStationXMLSchema#dateendDate</title>
<polygon fill="none" stroke="black" points="689.73,-766.54 689.73,-781.46 664.11,-792 627.89,-792 602.27,-781.46 602.27,-766.54 627.89,-756 664.11,-756 689.73,-766.54"/>
<text text-anchor="middle" x="646" y="-770.3" font-family="Times,serif" font-size="14.00">xsd:date</text>
</g>
<!-- weatherStation&#45;&gt;weatherStationXMLSchema#dateendDate -->
<g id="edge8" class="edge">
<title>weatherStation&#45;&gt;weatherStationXMLSchema#dateendDate</title>
<path fill="none" stroke="black" d="M159.15,-892.39C187.99,-873.4 238.32,-842.91 286,-827 390.95,-791.98 520.85,-780.07 592.08,-776.04"/>
<polygon fill="black" stroke="black" points="592.36,-779.53 602.16,-775.5 591.98,-772.54 592.36,-779.53"/>
<text text-anchor="middle" x="378" y="-830.8" font-family="Times,serif" font-size="14.00">schema:endDate</text>
</g>
<!-- examplemeasurement -->
<g id="node23" class="node">
<title>examplemeasurement</title>
<polygon fill="none" stroke="black" points="646,-738 517.14,-720 646,-702 774.86,-720 646,-738"/>
<text text-anchor="middle" x="646" y="-716.3" font-family="Times,serif" font-size="14.00">example:measurement</text>
</g>
<!-- weatherStation&#45;&gt;examplemeasurement -->
<g id="edge9" class="edge">
<title>weatherStation&#45;&gt;examplemeasurement</title>
<path fill="none" stroke="black" d="M148.06,-891.19C171.72,-860.42 224.92,-797.88 286,-769 358.5,-734.73 447.81,-722.44 519.22,-718.73"/>
<polygon fill="black" stroke="black" points="519.8,-722.21 529.62,-718.25 519.47,-715.22 519.8,-722.21"/>
<text text-anchor="middle" x="378" y="-772.8" font-family="Times,serif" font-size="14.00">schema:hasMeasurement</text>
</g>
<!-- measurementQuantityValue22&#45;rdf&#45;syntax&#45;ns#type -->
<g id="node24" class="node">
<title>measurementQuantityValue22&#45;rdf&#45;syntax&#45;ns#type</title>
<polygon fill="none" stroke="black" points="731.65,-1417.54 731.65,-1432.46 681.48,-1443 610.52,-1443 560.35,-1432.46 560.35,-1417.54 610.52,-1407 681.48,-1407 731.65,-1417.54"/>
<text text-anchor="middle" x="646" y="-1421.3" font-family="Times,serif" font-size="14.00">qudt:QuantityValue</text>
</g>
<!-- measurement -->
<g id="node25" class="node">
<title>measurement</title>
<ellipse fill="none" stroke="black" cx="134" cy="-1288" rx="58.49" ry="18"/>
<text text-anchor="middle" x="134" y="-1284.3" font-family="Times,serif" font-size="14.00">measurement</text>
</g>
<!-- measurement&#45;&gt;measurementQuantityValue22&#45;rdf&#45;syntax&#45;ns#type -->
<g id="edge10" class="edge">
<title>measurement&#45;&gt;measurementQuantityValue22&#45;rdf&#45;syntax&#45;ns#type</title>
<path fill="none" stroke="black" d="M158.91,-1304.4C187.72,-1323.33 238.22,-1353.91 286,-1370 372.61,-1399.16 476.22,-1412.93 549.82,-1419.39"/>
<polygon fill="black" stroke="black" points="549.74,-1422.9 560,-1420.25 550.33,-1415.92 549.74,-1422.9"/>
<text text-anchor="middle" x="378" y="-1413.8" font-family="Times,serif" font-size="14.00">rdf:type</text>
</g>
<!-- measurementXMLSchema#decimalquantityValue -->
<g id="node26" class="node">
<title>measurementXMLSchema#decimalquantityValue</title>
<polygon fill="none" stroke="black" points="704.28,-1363.54 704.28,-1378.46 670.14,-1389 621.86,-1389 587.72,-1378.46 587.72,-1363.54 621.86,-1353 670.14,-1353 704.28,-1363.54"/>
<text text-anchor="middle" x="646" y="-1367.3" font-family="Times,serif" font-size="14.00">xsd:decimal</text>
</g>
<!-- measurement&#45;&gt;measurementXMLSchema#decimalquantityValue -->
<g id="edge11" class="edge">
<title>measurement&#45;&gt;measurementXMLSchema#decimalquantityValue</title>
<path fill="none" stroke="black" d="M178,-1299.91C208.07,-1307.9 249.25,-1318.17 286,-1325 386.69,-1343.72 504.68,-1357.25 577.13,-1364.61"/>
<polygon fill="black" stroke="black" points="577.19,-1368.13 587.49,-1365.65 577.89,-1361.17 577.19,-1368.13"/>
<text text-anchor="middle" x="378" y="-1354.8" font-family="Times,serif" font-size="14.00">qudt:quantityValue</text>
</g>
<!-- measurementquantitykindPrecipitation|quantitykindTemperaturequantityKind -->
<g id="node27" class="node">
<title>measurementquantitykindPrecipitation|quantitykindTemperaturequantityKind</title>
<polygon fill="none" stroke="black" points="488,-1298 488,-1334 804,-1334 804,-1298 488,-1298"/>
<text text-anchor="middle" x="567" y="-1312.3" font-family="Times,serif" font-size="14.00">quantitykind:Precipitation</text>
<polyline fill="none" stroke="black" points="646,-1298 646,-1334"/>
<text text-anchor="middle" x="725" y="-1312.3" font-family="Times,serif" font-size="14.00">quantitykind:Temperature</text>
</g>
<!-- measurement&#45;&gt;measurementquantitykindPrecipitation|quantitykindTemperaturequantityKind -->
<g id="edge12" class="edge">
<title>measurement&#45;&gt;measurementquantitykindPrecipitation|quantitykindTemperaturequantityKind</title>
<path fill="none" stroke="black" d="M192.02,-1291.13C260.75,-1294.9 379.3,-1301.41 477.89,-1306.83"/>
<polygon fill="black" stroke="black" points="477.8,-1310.33 487.97,-1307.38 478.18,-1303.34 477.8,-1310.33"/>
<text text-anchor="middle" x="378" y="-1309.8" font-family="Times,serif" font-size="14.00">qudt:quantityKind</text>
</g>
<!-- measurementunitDEG_F|unitINunit -->
<g id="node28" class="node">
<title>measurementunitDEG_F|unitINunit</title>
<polygon fill="none" stroke="black" points="576.5,-1243 576.5,-1279 715.5,-1279 715.5,-1243 576.5,-1243"/>
<text text-anchor="middle" x="618" y="-1257.3" font-family="Times,serif" font-size="14.00">unit:DEG_F</text>
<polyline fill="none" stroke="black" points="659.5,-1243 659.5,-1279"/>
<text text-anchor="middle" x="687.5" y="-1257.3" font-family="Times,serif" font-size="14.00">unit:IN</text>
</g>
<!-- measurement&#45;&gt;measurementunitDEG_F|unitINunit -->
<g id="edge13" class="edge">
<title>measurement&#45;&gt;measurementunitDEG_F|unitINunit</title>
<path fill="none" stroke="black" d="M191.64,-1284.5C219.97,-1282.78 254.8,-1280.71 286,-1279 382.41,-1273.71 493.42,-1268.24 566.16,-1264.74"/>
<polygon fill="black" stroke="black" points="566.35,-1268.23 576.17,-1264.26 566.01,-1261.24 566.35,-1268.23"/>
<text text-anchor="middle" x="378" y="-1282.8" font-family="Times,serif" font-size="14.00">qudt:unit</text>
</g>
<!-- measurementXMLSchema#datestartDate -->
<g id="node29" class="node">
<title>measurementXMLSchema#datestartDate</title>
<polygon fill="none" stroke="black" points="689.73,-1198.54 689.73,-1213.46 664.11,-1224 627.89,-1224 602.27,-1213.46 602.27,-1198.54 627.89,-1188 664.11,-1188 689.73,-1198.54"/>
<text text-anchor="middle" x="646" y="-1202.3" font-family="Times,serif" font-size="14.00">xsd:date</text>
</g>
<!-- measurement&#45;&gt;measurementXMLSchema#datestartDate -->
<g id="edge14" class="edge">
<title>measurement&#45;&gt;measurementXMLSchema#datestartDate</title>
<path fill="none" stroke="black" d="M177.32,-1275.85C207.42,-1267.57 248.93,-1256.91 286,-1250 393.74,-1229.92 521.45,-1216.77 591.81,-1210.43"/>
<polygon fill="black" stroke="black" points="592.53,-1213.88 602.18,-1209.51 591.91,-1206.91 592.53,-1213.88"/>
<text text-anchor="middle" x="378" y="-1253.8" font-family="Times,serif" font-size="14.00">schema:startDate</text>
</g>
<!-- measurementXMLSchema#dateendDate -->
<g id="node30" class="node">
<title>measurementXMLSchema#dateendDate</title>
<polygon fill="none" stroke="black" points="689.73,-1144.54 689.73,-1159.46 664.11,-1170 627.89,-1170 602.27,-1159.46 602.27,-1144.54 627.89,-1134 664.11,-1134 689.73,-1144.54"/>
<text text-anchor="middle" x="646" y="-1148.3" font-family="Times,serif" font-size="14.00">xsd:date</text>
</g>
<!-- measurement&#45;&gt;measurementXMLSchema#dateendDate -->
<g id="edge15" class="edge">
<title>measurement&#45;&gt;measurementXMLSchema#dateendDate</title>
<path fill="none" stroke="black" d="M158.32,-1271.46C186.95,-1252.01 237.68,-1220.32 286,-1204 390.78,-1168.61 520.74,-1157.3 592.03,-1153.69"/>
<polygon fill="black" stroke="black" points="592.29,-1157.18 602.11,-1153.21 591.96,-1150.19 592.29,-1157.18"/>
<text text-anchor="middle" x="378" y="-1207.8" font-family="Times,serif" font-size="14.00">schema:endDate</text>
</g>
</g>
</svg>