<?xml version="1.0" encoding="UTF-8" standalone="no"?>
<!DOCTYPE svg PUBLIC "-//W3C//DTD SVG 1.1//EN"
 "http://www.w3.org/Graphics/SVG/1.1/DTD/svg11.dtd">
<!-- Generated by graphviz version 6.0.2 (20221011.1828)
 -->
<!-- Pages: 1 -->
<svg width="381pt" height="345pt"
 viewBox="0.00 0.00 381.24 345.00" xmlns="http://www.w3.org/2000/svg" xmlns:xlink="http://www.w3.org/1999/xlink">
<g id="graph0" class="graph" transform="scale(1 1) rotate(0) translate(4 341)">
<polygon fill="white" stroke="none" points="-4,4 -4,-341 377.24,-341 377.24,4 -4,4"/>
<!-- test -->
<g id="node1" class="node">
<title>test</title>
<polygon fill="none" stroke="black" points="129.24,-249 57.36,-231 129.24,-213 201.13,-231 129.24,-249"/>
<text text-anchor="middle" x="129.24" y="-227.3" font-family="Times,serif" font-size="14.00">experiment</text>
</g>
<!-- triallabel -->
<g id="node3" class="node">
<title>triallabel</title>
<polygon fill="none" stroke="black" points="98.73,-73.54 98.73,-88.46 69.74,-99 28.74,-99 -0.25,-88.46 -0.25,-73.54 28.74,-63 69.74,-63 98.73,-73.54"/>
<text text-anchor="middle" x="49.24" y="-77.3" font-family="Times,serif" font-size="14.00">xsd:string</text>
</g>
<!-- test&#45;&gt;triallabel -->
<g id="edge3" class="edge">
<title>test&#45;&gt;triallabel</title>
<path fill="none" stroke="black" d="M98.76,-220.59C86.1,-215.13 72.47,-206.92 64.24,-195 46.81,-169.75 44.99,-133.63 46.27,-109.08"/>
<polygon fill="black" stroke="black" points="49.77,-109.23 47,-99.01 42.78,-108.73 49.77,-109.23"/>
<text text-anchor="middle" x="104.74" y="-183.8" font-family="Times,serif" font-size="14.00">skos:prefLabel</text>
</g>
<!-- agriculturetrialdesign -->
<g id="node5" class="node">
<title>agriculturetrialdesign</title>
<polygon fill="none" stroke="black" points="116.74,-0.5 116.74,-161.5 301.74,-161.5 301.74,-0.5 116.74,-0.5"/>
<text text-anchor="middle" x="209.24" y="-146.3" font-family="Times,serif" font-size="14.00">agschemas:CAST</text>
<polyline fill="none" stroke="black" points="116.74,-138.5 301.74,-138.5"/>
<text text-anchor="middle" x="209.24" y="-123.3" font-family="Times,serif" font-size="14.00">agschemas:CottonIncorporated</text>
<polyline fill="none" stroke="black" points="116.74,-115.5 301.74,-115.5"/>
<text text-anchor="middle" x="209.24" y="-100.3" font-family="Times,serif" font-size="14.00">agschemas:County</text>
<polyline fill="none" stroke="black" points="116.74,-92.5 301.74,-92.5"/>
<text text-anchor="middle" x="209.24" y="-77.3" font-family="Times,serif" font-size="14.00">agschemas:Extension</text>
<polyline fill="none" stroke="black" points="116.74,-69.5 301.74,-69.5"/>
<text text-anchor="middle" x="209.24" y="-54.3" font-family="Times,serif" font-size="14.00">agschemas:OVT</text>
<polyline fill="none" stroke="black" points="116.74,-46.5 301.74,-46.5"/>
<text text-anchor="middle" x="209.24" y="-31.3" font-family="Times,serif" font-size="14.00">agschemas:Strip</text>
<polyline fill="none" stroke="black" points="116.74,-23.5 301.74,-23.5"/>
<text text-anchor="middle" x="209.24" y="-8.3" font-family="Times,serif" font-size="14.00">agschemas:VertWilt</text>
</g>
<!-- test&#45;&gt;agriculturetrialdesign -->
<g id="edge2" class="edge">
<title>test&#45;&gt;agriculturetrialdesign</title>
<path fill="none" stroke="black" d="M137.36,-214.99C143.34,-203.92 152.04,-187.84 161.32,-170.66"/>
<polygon fill="black" stroke="black" points="164.54,-172.06 166.22,-161.6 158.39,-168.73 164.54,-172.06"/>
<text text-anchor="middle" x="176.74" y="-183.8" font-family="Times,serif" font-size="14.00">rdf:type</text>
</g>
<!-- sample -->
<g id="node2" class="node">
<title>sample</title>
<polygon fill="none" stroke="black" points="238.24,-336.5 175.74,-318.5 238.24,-300.5 300.75,-318.5 238.24,-336.5"/>
<text text-anchor="middle" x="238.24" y="-314.8" font-family="Times,serif" font-size="14.00">nalt:9555</text>
</g>
<g id="node4" class="node">
<title></title>
<polygon fill="none" stroke="black" points="373.24,-311.04 373.24,-325.96 357.43,-336.5 335.06,-336.5 319.24,-325.96 319.24,-311.04 335.06,-300.5 357.43,-300.5 373.24,-311.04"/>
</g>
<!-- harvest -->
<g id="node6" class="node">
<title>harvest</title>
<polygon fill="none" stroke="black" points="101.24,-300.5 101.24,-336.5 157.24,-336.5 157.24,-300.5 101.24,-300.5"/>
<text text-anchor="middle" x="129.24" y="-314.8" font-family="Times,serif" font-size="14.00">harvest</text>
</g>
<!-- harvest&#45;&gt;test -->
<g id="edge1" class="edge">
<title>harvest&#45;&gt;test</title>
<path fill="none" stroke="black" d="M129.24,-300.2C129.24,-288.49 129.24,-272.79 129.24,-259.4"/>
<polygon fill="black" stroke="black" points="132.74,-259.28 129.24,-249.28 125.74,-259.28 132.74,-259.28"/>
<text text-anchor="middle" x="200.74" y="-270.8" font-family="Times,serif" font-size="14.00">agschemas:trialPerformed</text>
</g>
</g>
</svg>