<?xml version="1.0" encoding="UTF-8" standalone="no"?>
<!DOCTYPE svg PUBLIC "-//W3C//DTD SVG 1.1//EN"
 "http://www.w3.org/Graphics/SVG/1.1/DTD/svg11.dtd">
<!-- Generated by graphviz version 6.0.2 (20221011.1828)
 -->
<!-- Pages: 1 -->
<svg width="1091pt" height="265pt"
 viewBox="0.00 0.00 1090.70 265.00" xmlns="http://www.w3.org/2000/svg" xmlns:xlink="http://www.w3.org/1999/xlink">
<g id="graph0" class="graph" transform="scale(1 1) rotate(0) translate(4 261)">
<polygon fill="white" stroke="none" points="-4,4 -4,-261 1086.7,-261 1086.7,4 -4,4"/>
<!-- production -->
<g id="node1" class="node">
<title>production</title>
<polygon fill="none" stroke="black" points="98.35,-37.5 28.64,-19.5 98.35,-1.5 168.06,-19.5 98.35,-37.5"/>
<text text-anchor="middle" x="98.35" y="-15.8" font-family="Times,serif" font-size="14.00">Production</text>
</g>
<!-- productioncrop -->
<g id="node2" class="node">
<title>productioncrop</title>
<polygon fill="none" stroke="black" points="98.35,-91.5 0.15,-73.5 98.35,-55.5 196.55,-73.5 98.35,-91.5"/>
<text text-anchor="middle" x="98.35" y="-69.8" font-family="Times,serif" font-size="14.00">Production Crop</text>
</g>
<!-- administrationtype -->
<g id="node3" class="node">
<title>administrationtype</title>
<polygon fill="none" stroke="black" points="807.7,-55.5 807.7,-91.5 1082.7,-91.5 1082.7,-55.5 807.7,-55.5"/>
<text text-anchor="middle" x="850.2" y="-69.8" font-family="Times,serif" font-size="14.00">schema:City</text>
<polyline fill="none" stroke="black" points="892.7,-55.5 892.7,-91.5"/>
<text text-anchor="middle" x="943.2" y="-69.8" font-family="Times,serif" font-size="14.00">schema:County</text>
<polyline fill="none" stroke="black" points="993.7,-55.5 993.7,-91.5"/>
<text text-anchor="middle" x="1038.2" y="-69.8" font-family="Times,serif" font-size="14.00">schema:State</text>
</g>
<!-- harvest -->
<g id="node4" class="node">
<title>harvest</title>
<polygon fill="none" stroke="black" points="70.35,-110.5 70.35,-146.5 126.35,-146.5 126.35,-110.5 70.35,-110.5"/>
<text text-anchor="middle" x="98.35" y="-124.8" font-family="Times,serif" font-size="14.00">harvest</text>
</g>
<!-- harvestlocation -->
<g id="node5" class="node">
<title>harvestlocation</title>
<polygon fill="none" stroke="black" points="361.7,-110.5 361.7,-146.5 460.7,-146.5 460.7,-110.5 361.7,-110.5"/>
<text text-anchor="middle" x="411.2" y="-124.8" font-family="Times,serif" font-size="14.00">harvestlocation</text>
</g>
<!-- harvest&#45;&gt;harvestlocation -->
<g id="edge1" class="edge">
<title>harvest&#45;&gt;harvestlocation</title>
<path fill="none" stroke="black" d="M126.39,-128.5C176.34,-128.5 284.1,-128.5 351.53,-128.5"/>
<polygon fill="black" stroke="black" points="351.58,-132 361.58,-128.5 351.58,-125 351.58,-132"/>
<text text-anchor="middle" x="279.2" y="-132.3" font-family="Times,serif" font-size="14.00">agschemas:harvestedAt</text>
</g>
<!-- latitude -->
<g id="node6" class="node">
<title>latitude</title>
<polygon fill="none" stroke="black" points="635.7,-220.5 635.7,-256.5 692.7,-256.5 692.7,-220.5 635.7,-220.5"/>
<text text-anchor="middle" x="664.2" y="-234.8" font-family="Times,serif" font-size="14.00">latitude</text>
</g>
<!-- harvestlocation&#45;&gt;latitude -->
<g id="edge2" class="edge">
<title>harvestlocation&#45;&gt;latitude</title>
<path fill="none" stroke="black" d="M427.96,-146.75C440.46,-160.13 459.04,-177.78 478.7,-188.5 525.57,-214.07 586.39,-227.24 625.12,-233.51"/>
<polygon fill="black" stroke="black" points="625.01,-237.03 635.43,-235.1 626.08,-230.12 625.01,-237.03"/>
<text text-anchor="middle" x="530.2" y="-228.3" font-family="Times,serif" font-size="14.00">schema:latitude</text>
</g>
<!-- longitude -->
<g id="node7" class="node">
<title>longitude</title>
<polygon fill="none" stroke="black" points="630.2,-165.5 630.2,-201.5 698.2,-201.5 698.2,-165.5 630.2,-165.5"/>
<text text-anchor="middle" x="664.2" y="-179.8" font-family="Times,serif" font-size="14.00">longitude</text>
</g>
<!-- harvestlocation&#45;&gt;longitude -->
<g id="edge3" class="edge">
<title>harvestlocation&#45;&gt;longitude</title>
<path fill="none" stroke="black" d="M460.74,-142.89C466.77,-144.52 472.86,-146.1 478.7,-147.5 526.71,-159.02 582.4,-169.5 619.94,-176.14"/>
<polygon fill="black" stroke="black" points="619.57,-179.63 630.02,-177.91 620.78,-172.73 619.57,-179.63"/>
<text text-anchor="middle" x="530.2" y="-173.3" font-family="Times,serif" font-size="14.00">schema:longitude</text>
</g>
<!-- harvestlocationname -->
<g id="node8" class="node">
<title>harvestlocationname</title>
<polygon fill="none" stroke="black" points="599.7,-110.5 599.7,-146.5 728.7,-146.5 728.7,-110.5 599.7,-110.5"/>
<text text-anchor="middle" x="664.2" y="-124.8" font-family="Times,serif" font-size="14.00">harvestlocationname</text>
</g>
<!-- harvestlocation&#45;&gt;harvestlocationname -->
<g id="edge4" class="edge">
<title>harvestlocation&#45;&gt;harvestlocationname</title>
<path fill="none" stroke="black" d="M460.89,-128.5C497.37,-128.5 547.93,-128.5 589.37,-128.5"/>
<polygon fill="black" stroke="black" points="589.42,-132 599.42,-128.5 589.42,-125 589.42,-132"/>
<text text-anchor="middle" x="530.2" y="-132.3" font-family="Times,serif" font-size="14.00">skos:prefLabel</text>
</g>
<!-- administration -->
<g id="node9" class="node">
<title>administration</title>
<polygon fill="none" stroke="black" points="616.7,-55.5 616.7,-91.5 711.7,-91.5 711.7,-55.5 616.7,-55.5"/>
<text text-anchor="middle" x="664.2" y="-69.8" font-family="Times,serif" font-size="14.00">administration</text>
</g>
<!-- harvestlocation&#45;&gt;administration -->
<g id="edge5" class="edge">
<title>harvestlocation&#45;&gt;administration</title>
<path fill="none" stroke="black" d="M460.74,-114.11C466.77,-112.48 472.86,-110.9 478.7,-109.5 521.2,-99.3 569.72,-89.92 606.33,-83.3"/>
<polygon fill="black" stroke="black" points="607.1,-86.71 616.33,-81.5 605.87,-79.82 607.1,-86.71"/>
<text text-anchor="middle" x="530.2" y="-113.3" font-family="Times,serif" font-size="14.00">schema:isPartOf</text>
</g>
<!-- zipcode -->
<g id="node10" class="node">
<title>zipcode</title>
<polygon fill="none" stroke="black" points="634.7,-0.5 634.7,-36.5 693.7,-36.5 693.7,-0.5 634.7,-0.5"/>
<text text-anchor="middle" x="664.2" y="-14.8" font-family="Times,serif" font-size="14.00">zipcode</text>
</g>
<!-- harvestlocation&#45;&gt;zipcode -->
<g id="edge7" class="edge">
<title>harvestlocation&#45;&gt;zipcode</title>
<path fill="none" stroke="black" d="M428.3,-110.32C440.83,-97.21 459.31,-80.04 478.7,-69.5 525.28,-44.19 585.44,-30.62 624.17,-23.99"/>
<polygon fill="black" stroke="black" points="625.2,-27.37 634.5,-22.3 624.07,-20.46 625.2,-27.37"/>
<text text-anchor="middle" x="530.2" y="-73.3" font-family="Times,serif" font-size="14.00">schemapostalCode</text>
</g>
<!-- administration&#45;&gt;administrationtype -->
<g id="edge6" class="edge">
<title>administration&#45;&gt;administrationtype</title>
<path fill="none" stroke="black" d="M711.9,-73.5C735.83,-73.5 766.44,-73.5 797.52,-73.5"/>
<polygon fill="black" stroke="black" points="797.63,-77 807.63,-73.5 797.63,-70 797.63,-77"/>
<text text-anchor="middle" x="768.2" y="-77.3" font-family="Times,serif" font-size="14.00">rdf:type</text>
</g>
</g>
</svg>