<?xml version="1.0" encoding="UTF-8" standalone="no"?>
<!DOCTYPE svg PUBLIC "-//W3C//DTD SVG 1.1//EN"
 "http://www.w3.org/Graphics/SVG/1.1/DTD/svg11.dtd">
<!-- Generated by graphviz version 6.0.2 (20221011.1828)
 -->
<!-- Pages: 1 -->
<svg width="738pt" height="218pt"
 viewBox="0.00 0.00 737.61 218.00" xmlns="http://www.w3.org/2000/svg" xmlns:xlink="http://www.w3.org/1999/xlink">
<g id="graph0" class="graph" transform="scale(1 1) rotate(0) translate(4 214)">
<polygon fill="white" stroke="none" points="-4,4 -4,-214 733.61,-214 733.61,4 -4,4"/>
<!-- subject -->
<g id="node1" class="node">
<title>subject</title>
<polygon fill="none" stroke="black" points="456.61,-210 404.33,-192 456.61,-174 508.9,-192 456.61,-210"/>
<text text-anchor="middle" x="456.61" y="-188.3" font-family="Times,serif" font-size="14.00">Subject</text>
</g>
<!-- clinicalsite -->
<g id="node2" class="node">
<title>clinicalsite</title>
<polygon fill="none" stroke="black" points="72.61,-123 -0.11,-105 72.61,-87 145.34,-105 72.61,-123"/>
<text text-anchor="middle" x="72.61" y="-101.3" font-family="Times,serif" font-size="14.00">clinical site</text>
</g>
<!-- subject&#45;&gt;clinicalsite -->
<g id="edge5" class="edge">
<title>subject&#45;&gt;clinicalsite</title>
<path fill="none" stroke="black" d="M410.23,-189.86C314.73,-187.07 103.09,-178.41 79.61,-156 73.39,-150.06 70.91,-141.33 70.22,-132.82"/>
<polygon fill="black" stroke="black" points="73.72,-132.72 70.13,-122.75 66.72,-132.78 73.72,-132.72"/>
<text text-anchor="middle" x="164.11" y="-144.8" font-family="Times,serif" font-size="14.00">sio:SIO_000066 (has provider)</text>
</g>
<!-- laboratory -->
<g id="node3" class="node">
<title>laboratory</title>
<polygon fill="none" stroke="black" points="247.61,-123 181.25,-105 247.61,-87 313.97,-105 247.61,-123"/>
<text text-anchor="middle" x="247.61" y="-101.3" font-family="Times,serif" font-size="14.00">laboratory</text>
</g>
<!-- subject&#45;&gt;laboratory -->
<g id="edge7" class="edge">
<title>subject&#45;&gt;laboratory</title>
<path fill="none" stroke="black" d="M414.04,-188.56C363.54,-184.8 283.44,-175.84 261.61,-156 255.16,-150.14 251.59,-141.57 249.64,-133.18"/>
<polygon fill="black" stroke="black" points="253.07,-132.51 247.98,-123.22 246.17,-133.66 253.07,-132.51"/>
<text text-anchor="middle" x="346.11" y="-144.8" font-family="Times,serif" font-size="14.00">sio:SIO_000066 (has provider)</text>
</g>
<!-- NCIT_C16960 -->
<g id="node4" class="node">
<title>NCIT_C16960</title>
<ellipse fill="none" stroke="black" cx="410.61" cy="-105" rx="79.09" ry="18"/>
<text text-anchor="middle" x="410.61" y="-101.3" font-family="Times,serif" font-size="14.00">obo:NCIT_C16960</text>
</g>
<!-- subject&#45;&gt;NCIT_C16960 -->
<g id="edge2" class="edge">
<title>subject&#45;&gt;NCIT_C16960</title>
<path fill="none" stroke="black" d="M450.78,-175.77C446.7,-165.68 440.88,-152.27 434.61,-141 432.88,-137.88 430.94,-134.69 428.93,-131.56"/>
<polygon fill="black" stroke="black" points="431.7,-129.41 423.24,-123.04 425.89,-133.3 431.7,-129.41"/>
<text text-anchor="middle" x="464.11" y="-144.8" font-family="Times,serif" font-size="14.00">rdf:type</text>
</g>
<!-- iddatatype -->
<g id="node8" class="node">
<title>iddatatype</title>
<polygon fill="none" stroke="black" points="607.1,-97.54 607.1,-112.46 578.11,-123 537.11,-123 508.12,-112.46 508.12,-97.54 537.11,-87 578.11,-87 607.1,-97.54"/>
<text text-anchor="middle" x="557.61" y="-101.3" font-family="Times,serif" font-size="14.00">xsd:string</text>
</g>
<!-- subject&#45;&gt;iddatatype -->
<g id="edge4" class="edge">
<title>subject&#45;&gt;iddatatype</title>
<path fill="none" stroke="black" d="M471.08,-178.82C486.26,-166.05 510.5,-145.65 529.47,-129.69"/>
<polygon fill="black" stroke="black" points="531.83,-132.27 537.23,-123.15 527.32,-126.92 531.83,-132.27"/>
<text text-anchor="middle" x="562.11" y="-144.8" font-family="Times,serif" font-size="14.00">dcterms:identifier</text>
</g>
<!-- fileURI -->
<g id="node9" class="node">
<title>fileURI</title>
<polygon fill="none" stroke="black" points="712.22,-97.54 712.22,-112.46 688.43,-123 654.79,-123 631.01,-112.46 631.01,-97.54 654.79,-87 688.43,-87 712.22,-97.54"/>
<text text-anchor="middle" x="671.61" y="-101.3" font-family="Times,serif" font-size="14.00">fileURI</text>
</g>
<!-- subject&#45;&gt;fileURI -->
<g id="edge1" class="edge">
<title>subject&#45;&gt;fileURI</title>
<path fill="none" stroke="black" d="M496.78,-187.69C529.87,-183.67 577.27,-174.92 614.61,-156 627.21,-149.61 639.27,-139.8 649.02,-130.55"/>
<polygon fill="black" stroke="black" points="651.67,-132.85 656.31,-123.32 646.74,-127.87 651.67,-132.85"/>
<text text-anchor="middle" x="683.11" y="-144.8" font-family="Times,serif" font-size="14.00">dcterms:isPartOf</text>
</g>
<!-- clinicalMedicalClinic -->
<g id="node7" class="node">
<title>clinicalMedicalClinic</title>
<polygon fill="none" stroke="black" points="142.61,-36 2.61,-36 2.61,0 142.61,0 142.61,-36"/>
<text text-anchor="middle" x="72.61" y="-14.3" font-family="Times,serif" font-size="14.00">schema:MedicalClinic</text>
</g>
<!-- clinicalsite&#45;&gt;clinicalMedicalClinic -->
<g id="edge6" class="edge">
<title>clinicalsite&#45;&gt;clinicalMedicalClinic</title>
<path fill="none" stroke="black" d="M72.61,-86.8C72.61,-75.16 72.61,-59.55 72.61,-46.24"/>
<polygon fill="black" stroke="black" points="76.11,-46.18 72.61,-36.18 69.11,-46.18 76.11,-46.18"/>
<text text-anchor="middle" x="94.11" y="-57.8" font-family="Times,serif" font-size="14.00">rdf:type</text>
</g>
<!-- schemaDiagnosticLab -->
<g id="node6" class="node">
<title>schemaDiagnosticLab</title>
<polygon fill="none" stroke="black" points="318.11,-36 177.11,-36 177.11,0 318.11,0 318.11,-36"/>
<text text-anchor="middle" x="247.61" y="-14.3" font-family="Times,serif" font-size="14.00">schema:DiagnosticLab</text>
</g>
<!-- laboratory&#45;&gt;schemaDiagnosticLab -->
<g id="edge8" class="edge">
<title>laboratory&#45;&gt;schemaDiagnosticLab</title>
<path fill="none" stroke="black" d="M247.61,-86.8C247.61,-75.16 247.61,-59.55 247.61,-46.24"/>
<polygon fill="black" stroke="black" points="251.11,-46.18 247.61,-36.18 244.11,-46.18 251.11,-46.18"/>
<text text-anchor="middle" x="269.11" y="-57.8" font-family="Times,serif" font-size="14.00">rdf:type</text>
</g>
<!-- NCIT_C16960Label -->
<g id="node5" class="node">
<title>NCIT_C16960Label</title>
<polygon fill="none" stroke="black" points="450.61,-36 370.61,-36 370.61,0 450.61,0 450.61,-36"/>
<text text-anchor="middle" x="410.61" y="-14.3" font-family="Times,serif" font-size="14.00">Patient@en</text>
</g>
<!-- NCIT_C16960&#45;&gt;NCIT_C16960Label -->
<g id="edge3" class="edge">
<title>NCIT_C16960&#45;&gt;NCIT_C16960Label</title>
<path fill="none" stroke="black" d="M410.61,-86.8C410.61,-75.16 410.61,-59.55 410.61,-46.24"/>
<polygon fill="black" stroke="black" points="414.11,-46.18 410.61,-36.18 407.11,-46.18 414.11,-46.18"/>
<text text-anchor="middle" x="436.61" y="-57.8" font-family="Times,serif" font-size="14.00">rdfs:label</text>
</g>
</g>
</svg>