<?xml version="1.0" encoding="UTF-8" standalone="no"?>
<!DOCTYPE svg PUBLIC "-//W3C//DTD SVG 1.1//EN"
 "http://www.w3.org/Graphics/SVG/1.1/DTD/svg11.dtd">
<!-- Generated by graphviz version 6.0.2 (20221011.1828)
 -->
<!-- Title: ../creating&#45;rdf/data/Sample clinical data_July 2022.xlsx Pages: 1 -->
<svg width="741pt" height="260pt"
 viewBox="0.00 0.00 740.91 260.00" xmlns="http://www.w3.org/2000/svg" xmlns:xlink="http://www.w3.org/1999/xlink">
<g id="graph0" class="graph" transform="scale(1 1) rotate(0) translate(4 256)">
<title>../creating&#45;rdf/data/Sample clinical data_July 2022.xlsx</title>
<polygon fill="white" stroke="none" points="-4,4 -4,-256 736.91,-256 736.91,4 -4,4"/>
<!-- fileURI -->
<g id="node1" class="node">
<title>fileURI</title>
<polygon fill="none" stroke="black" points="53.31,-144 0.19,-126 53.31,-108 106.43,-126 53.31,-144"/>
<text text-anchor="middle" x="53.31" y="-122.3" font-family="Times,serif" font-size="14.00">fileURI</text>
</g>
<!-- dcatdataset -->
<g id="node2" class="node">
<title>dcatdataset</title>
<ellipse fill="none" stroke="black" cx="305.27" cy="-234" rx="51.99" ry="18"/>
<text text-anchor="middle" x="305.27" y="-230.3" font-family="Times,serif" font-size="14.00">dcat:dataset</text>
</g>
<!-- fileURI&#45;&gt;dcatdataset -->
<g id="edge1" class="edge">
<title>fileURI&#45;&gt;dcatdataset</title>
<path fill="none" stroke="black" d="M67.09,-139.41C80.32,-152.56 102.17,-172.29 124.62,-184 163.33,-204.18 211.09,-216.97 247.64,-224.56"/>
<polygon fill="black" stroke="black" points="247.14,-228.03 257.63,-226.57 248.51,-221.17 247.14,-228.03"/>
<text text-anchor="middle" x="173.12" y="-221.8" font-family="Times,serif" font-size="14.00">rdf:type</text>
</g>
<!-- Q63082925 -->
<g id="node3" class="node">
<title>Q63082925</title>
<ellipse fill="none" stroke="black" cx="305.27" cy="-180" rx="65.79" ry="18"/>
<text text-anchor="middle" x="305.27" y="-176.3" font-family="Times,serif" font-size="14.00">wd:Q63082925</text>
</g>
<!-- fileURI&#45;&gt;Q63082925 -->
<g id="edge2" class="edge">
<title>fileURI&#45;&gt;Q63082925</title>
<path fill="none" stroke="black" d="M82.59,-134.14C95.37,-137.69 110.7,-141.77 124.62,-145 162.51,-153.8 205.24,-162.19 239.52,-168.54"/>
<polygon fill="black" stroke="black" points="238.94,-172 249.41,-170.36 240.21,-165.11 238.94,-172"/>
<text text-anchor="middle" x="173.12" y="-168.8" font-family="Times,serif" font-size="14.00">dcterms:format</text>
</g>
<!-- filename -->
<g id="node5" class="node">
<title>filename</title>
<polygon fill="none" stroke="black" points="354.76,-118.54 354.76,-133.46 325.77,-144 284.77,-144 255.78,-133.46 255.78,-118.54 284.77,-108 325.77,-108 354.76,-118.54"/>
<text text-anchor="middle" x="305.27" y="-122.3" font-family="Times,serif" font-size="14.00">xsd:string</text>
</g>
<!-- fileURI&#45;&gt;filename -->
<g id="edge4" class="edge">
<title>fileURI&#45;&gt;filename</title>
<path fill="none" stroke="black" d="M106.71,-126C147.31,-126 203.55,-126 245.64,-126"/>
<polygon fill="black" stroke="black" points="245.75,-129.5 255.75,-126 245.75,-122.5 245.75,-129.5"/>
<text text-anchor="middle" x="173.12" y="-129.8" font-family="Times,serif" font-size="14.00">rdfs:label</text>
</g>
<!-- filedatecreated -->
<g id="node6" class="node">
<title>filedatecreated</title>
<polygon fill="none" stroke="black" points="349,-64.54 349,-79.46 323.38,-90 287.15,-90 261.53,-79.46 261.53,-64.54 287.15,-54 323.38,-54 349,-64.54"/>
<text text-anchor="middle" x="305.27" y="-68.3" font-family="Times,serif" font-size="14.00">xsd:date</text>
</g>
<!-- fileURI&#45;&gt;filedatecreated -->
<g id="edge5" class="edge">
<title>fileURI&#45;&gt;filedatecreated</title>
<path fill="none" stroke="black" d="M82.59,-117.86C95.37,-114.31 110.7,-110.23 124.62,-107 167.02,-97.15 215.48,-87.82 251.37,-81.28"/>
<polygon fill="black" stroke="black" points="252.4,-84.65 261.62,-79.42 251.15,-77.76 252.4,-84.65"/>
<text text-anchor="middle" x="173.12" y="-110.8" font-family="Times,serif" font-size="14.00">dcterms:issued</text>
</g>
<!-- filedatemodified -->
<g id="node7" class="node">
<title>filedatemodified</title>
<polygon fill="none" stroke="black" points="349,-10.54 349,-25.46 323.38,-36 287.15,-36 261.53,-25.46 261.53,-10.54 287.15,0 323.38,0 349,-10.54"/>
<text text-anchor="middle" x="305.27" y="-14.3" font-family="Times,serif" font-size="14.00">xsd:date</text>
</g>
<!-- fileURI&#45;&gt;filedatemodified -->
<g id="edge6" class="edge">
<title>fileURI&#45;&gt;filedatemodified</title>
<path fill="none" stroke="black" d="M67.39,-112.61C80.7,-99.71 102.45,-80.51 124.62,-69 164.73,-48.17 214.42,-34.91 251.37,-27.14"/>
<polygon fill="black" stroke="black" points="252.33,-30.52 261.44,-25.1 250.94,-23.66 252.33,-30.52"/>
<text text-anchor="middle" x="173.12" y="-72.8" font-family="Times,serif" font-size="14.00">dcterms:modified</text>
</g>
<!-- Office Open XML Spreadsheet Document@en -->
<g id="node4" class="node">
<title>Office Open XML Spreadsheet Document@en</title>
<polygon fill="none" stroke="black" points="732.91,-198 458.91,-198 458.91,-162 732.91,-162 732.91,-198"/>
<text text-anchor="middle" x="595.91" y="-176.3" font-family="Times,serif" font-size="14.00">Office Open XML Spreadsheet Document@en</text>
</g>
<!-- Q63082925&#45;&gt;Office Open XML Spreadsheet Document@en -->
<g id="edge3" class="edge">
<title>Q63082925&#45;&gt;Office Open XML Spreadsheet Document@en</title>
<path fill="none" stroke="black" d="M371.04,-180C394.21,-180 421.36,-180 448.59,-180"/>
<polygon fill="black" stroke="black" points="448.63,-183.5 458.63,-180 448.63,-176.5 448.63,-183.5"/>
<text text-anchor="middle" x="414.91" y="-183.8" font-family="Times,serif" font-size="14.00">rdfs:label</text>
</g>
</g>
</svg>