<?xml version="1.0" encoding="UTF-8" standalone="no"?>
<!DOCTYPE svg PUBLIC "-//W3C//DTD SVG 1.1//EN"
 "http://www.w3.org/Graphics/SVG/1.1/DTD/svg11.dtd">
<!-- Generated by graphviz version 6.0.2 (20221011.1828)
 -->
<!-- Pages: 1 -->
<svg width="1498pt" height="308pt"
 viewBox="0.00 0.00 1497.60 307.99" xmlns="http://www.w3.org/2000/svg" xmlns:xlink="http://www.w3.org/1999/xlink">
<g id="graph0" class="graph" transform="scale(1 1) rotate(0) translate(4 303.99)">
<polygon fill="white" stroke="none" points="-4,4 -4,-303.99 1493.6,-303.99 1493.6,4 -4,4"/>
<!-- subjectproperties -->
<g id="node1" class="node">
<title>subjectproperties</title>
<ellipse fill="black" stroke="black" cx="261.8" cy="-133.99" rx="1.8" ry="1.8"/>
</g>
<!-- ecog -->
<g id="node2" class="node">
<title>ecog</title>
<ellipse fill="black" stroke="black" cx="637.6" cy="-226.99" rx="1.8" ry="1.8"/>
</g>
<!-- subjectproperties&#45;&gt;ecog -->
<g id="edge5" class="edge">
<title>subjectproperties&#45;&gt;ecog</title>
<path fill="none" stroke="black" d="M262.77,-135.72C262.72,-143.52 263.67,-175.62 281.6,-189.99 389.42,-276.35 578.67,-240.36 625.76,-229.62"/>
<polygon fill="black" stroke="black" points="626.66,-233 635.56,-227.26 625.02,-226.19 626.66,-233"/>
<text text-anchor="middle" x="366.1" y="-247.79" font-family="Times,serif" font-size="14.00">obo:RO_0000086 (has quality)</text>
</g>
<!-- deceased -->
<g id="node3" class="node">
<title>deceased</title>
<ellipse fill="black" stroke="black" cx="637.6" cy="-171.99" rx="1.8" ry="1.8"/>
</g>
<!-- subjectproperties&#45;&gt;deceased -->
<g id="edge8" class="edge">
<title>subjectproperties&#45;&gt;deceased</title>
<path fill="none" stroke="black" d="M263.66,-135.11C266.09,-138.17 273.33,-146.65 281.6,-149.99 346.23,-176.06 572.87,-173.26 625.59,-172.23"/>
<polygon fill="black" stroke="black" points="625.87,-175.73 635.79,-172.01 625.72,-168.73 625.87,-175.73"/>
<text text-anchor="middle" x="366.1" y="-174.79" font-family="Times,serif" font-size="14.00">obo:RO_0000086 (has quality)</text>
</g>
<!-- dob -->
<g id="node6" class="node">
<title>dob</title>
<polygon fill="none" stroke="black" points="681.33,-126.53 681.33,-141.44 655.71,-151.99 619.49,-151.99 593.87,-141.44 593.87,-126.53 619.49,-115.99 655.71,-115.99 681.33,-126.53"/>
<text text-anchor="middle" x="637.6" y="-130.29" font-family="Times,serif" font-size="14.00">xsd:date</text>
</g>
<!-- subjectproperties&#45;&gt;dob -->
<g id="edge2" class="edge">
<title>subjectproperties&#45;&gt;dob</title>
<path fill="none" stroke="black" d="M263.87,-133.99C280.44,-133.99 484.71,-133.99 583.62,-133.99"/>
<polygon fill="black" stroke="black" points="583.71,-137.49 593.71,-133.99 583.71,-130.49 583.71,-137.49"/>
<text text-anchor="middle" x="366.1" y="-137.79" font-family="Times,serif" font-size="14.00">schema:birthDate</text>
</g>
<!-- age -->
<g id="node7" class="node">
<title>age</title>
<polygon fill="none" stroke="black" points="691.94,-72.53 691.94,-87.44 660.11,-97.99 615.09,-97.99 583.26,-87.44 583.26,-72.53 615.09,-61.99 660.11,-61.99 691.94,-72.53"/>
<text text-anchor="middle" x="637.6" y="-76.29" font-family="Times,serif" font-size="14.00">xsd:integer</text>
</g>
<!-- subjectproperties&#45;&gt;age -->
<g id="edge3" class="edge">
<title>subjectproperties&#45;&gt;age</title>
<path fill="none" stroke="black" d="M263.37,-133.06C265.39,-129.86 272.55,-119.3 281.6,-114.99 375.72,-70.16 499.55,-69.15 573.33,-73.72"/>
<polygon fill="black" stroke="black" points="573.19,-77.22 583.4,-74.4 573.66,-70.23 573.19,-77.22"/>
<text text-anchor="middle" x="366.1" y="-118.79" font-family="Times,serif" font-size="14.00">foaf:age</text>
</g>
<!-- gender -->
<g id="node8" class="node">
<title>gender</title>
<polygon fill="none" stroke="black" points="468.6,-6.99 468.6,-42.99 806.6,-42.99 806.6,-6.99 468.6,-6.99"/>
<text text-anchor="middle" x="556.1" y="-21.29" font-family="Times,serif" font-size="14.00">obo:NCIT_C16576 (Female)</text>
<polyline fill="none" stroke="black" points="643.6,-6.99 643.6,-42.99"/>
<text text-anchor="middle" x="725.1" y="-21.29" font-family="Times,serif" font-size="14.00">obo:NCIT_C20197 (Male)</text>
</g>
<!-- subjectproperties&#45;&gt;gender -->
<g id="edge4" class="edge">
<title>subjectproperties&#45;&gt;gender</title>
<path fill="none" stroke="black" d="M262.94,-132.34C263.86,-122.02 269.35,-66.53 281.6,-55.99 352.31,4.88 462.9,4.79 541.85,-5.56"/>
<polygon fill="black" stroke="black" points="541.41,-9.03 551.8,-6.94 542.37,-2.1 541.41,-9.03"/>
<text text-anchor="middle" x="366.1" y="-59.79" font-family="Times,serif" font-size="14.00">schema:gender</text>
</g>
<!-- NCIT_C102408 -->
<g id="node4" class="node">
<title>NCIT_C102408</title>
<ellipse fill="none" stroke="black" cx="1190.6" cy="-281.99" rx="192.27" ry="18"/>
<text text-anchor="middle" x="1190.6" y="-278.29" font-family="Times,serif" font-size="14.00">obo:NCIT_C102408 (ECOG &#45; Performance Status)</text>
</g>
<!-- ecog&#45;&gt;NCIT_C102408 -->
<g id="edge6" class="edge">
<title>ecog&#45;&gt;NCIT_C102408</title>
<path fill="none" stroke="black" d="M639.51,-227.09C651.7,-228.54 784.31,-244.19 891.6,-254.99 939.37,-259.79 991.49,-264.65 1038.6,-268.89"/>
<polygon fill="black" stroke="black" points="1038.29,-272.38 1048.57,-269.79 1038.92,-265.41 1038.29,-272.38"/>
<text text-anchor="middle" x="849.1" y="-255.79" font-family="Times,serif" font-size="14.00">rdf:type</text>
</g>
<!-- ecogs -->
<g id="node9" class="node">
<title>ecogs</title>
<polygon fill="none" stroke="black" points="891.6,-208.99 891.6,-244.99 1489.6,-244.99 1489.6,-208.99 891.6,-208.99"/>
<text text-anchor="middle" x="1041.1" y="-223.29" font-family="Times,serif" font-size="14.00">obo:NCIT_C105722 (ECOG Performance Status 0)</text>
<polyline fill="none" stroke="black" points="1190.6,-208.99 1190.6,-244.99"/>
<text text-anchor="middle" x="1340.1" y="-223.29" font-family="Times,serif" font-size="14.00">obo:NCIT_C105723 (ECOG Performance Status 1)</text>
</g>
<!-- ecog&#45;&gt;ecogs -->
<g id="edge7" class="edge">
<title>ecog&#45;&gt;ecogs</title>
<path fill="none" stroke="black" d="M639.49,-226.99C650.51,-226.99 761.78,-226.99 881.39,-226.99"/>
<polygon fill="black" stroke="black" points="881.49,-230.49 891.49,-226.99 881.49,-223.49 881.49,-230.49"/>
<text text-anchor="middle" x="849.1" y="-230.79" font-family="Times,serif" font-size="14.00">rdf:value</text>
</g>
<!-- NCIT_C28554 -->
<g id="node5" class="node">
<title>NCIT_C28554</title>
<ellipse fill="none" stroke="black" cx="1190.6" cy="-171.99" rx="103.98" ry="18"/>
<text text-anchor="middle" x="1190.6" y="-168.29" font-family="Times,serif" font-size="14.00">obo:NCIT_C28554 (dead)</text>
</g>
<!-- deceased&#45;&gt;NCIT_C28554 -->
<g id="edge9" class="edge">
<title>deceased&#45;&gt;NCIT_C28554</title>
<path fill="none" stroke="black" d="M639.49,-171.99C656.77,-171.99 920.44,-171.99 1076.37,-171.99"/>
<polygon fill="black" stroke="black" points="1076.48,-175.49 1086.48,-171.99 1076.48,-168.49 1076.48,-175.49"/>
<text text-anchor="middle" x="849.1" y="-175.79" font-family="Times,serif" font-size="14.00">rdf:type</text>
</g>
<!-- deceasedvalue -->
<g id="node10" class="node">
<title>deceasedvalue</title>
<polygon fill="none" stroke="black" points="1147.1,-98.99 1147.1,-134.99 1234.1,-134.99 1234.1,-98.99 1147.1,-98.99"/>
<text text-anchor="middle" x="1168.1" y="-113.29" font-family="Times,serif" font-size="14.00">True</text>
<polyline fill="none" stroke="black" points="1189.1,-98.99 1189.1,-134.99"/>
<text text-anchor="middle" x="1211.6" y="-113.29" font-family="Times,serif" font-size="14.00">False</text>
</g>
<!-- deceased&#45;&gt;deceasedvalue -->
<g id="edge10" class="edge">
<title>deceased&#45;&gt;deceasedvalue</title>
<path fill="none" stroke="black" d="M639.69,-172.06C650.43,-172.75 738.49,-177.78 806.6,-160.99 815.1,-158.89 816.16,-155.31 824.6,-152.99 853.51,-145.03 861.78,-148.17 891.6,-144.99 977.15,-135.86 1076.68,-126.83 1136.33,-121.58"/>
<polygon fill="black" stroke="black" points="1136.98,-125.04 1146.63,-120.68 1136.37,-118.07 1136.98,-125.04"/>
<text text-anchor="middle" x="849.1" y="-156.79" font-family="Times,serif" font-size="14.00">rdf:value</text>
</g>
<!-- subject -->
<g id="node11" class="node">
<title>subject</title>
<polygon fill="none" stroke="black" points="0,-115.99 0,-151.99 55,-151.99 55,-115.99 0,-115.99"/>
<text text-anchor="middle" x="27.5" y="-130.29" font-family="Times,serif" font-size="14.00">subject</text>
</g>
<!-- subject&#45;&gt;subjectproperties -->
<g id="edge1" class="edge">
<title>subject&#45;&gt;subjectproperties</title>
<path fill="none" stroke="black" d="M55.15,-133.99C105.81,-133.99 214.11,-133.99 249.41,-133.99"/>
<polygon fill="black" stroke="black" points="249.87,-137.49 259.87,-133.99 249.87,-130.49 249.87,-137.49"/>
<text text-anchor="middle" x="157.5" y="-137.79" font-family="Times,serif" font-size="14.00">sio:SIO_000223 (has property)</text>
</g>
</g>
</svg>
